<svg width="410" height="410" viewBox="0 0 410 410" xmlns="http://www.w3.org/2000/svg" xmlns:xlink="http://www.w3.org/1999/xlink" id="qr-code" class="interactive-qr">
<title>Interactive QR Code</title><desc>QR Code with 37x37 modules</desc>  <rect x="0" y="0" width="410" height="410" fill="#ffffff" class="qr-background" />
<style type="text/css">
&lt;![CDATA[

        .qr-background {
            pointer-events: none;
        }
        
        .qr-module {
            transition: all 0.2s ease;
        }
        
        .qr-finder {
            fill: currentColor;
        }
        
        .qr-finder-inner {
            fill: var(--qr-bg-color, white);
        }
        
        .qr-timing {
            fill: currentColor;
        }
        
        .qr-data {
            fill: currentColor;
        }
        
        .qr-alignment {
            fill: currentColor;
        }
        
        .qr-format {
            fill: currentColor;
        }
        
        .qr-cluster {
            fill: currentColor;
            stroke: none;
        }
        
        .qr-contour {
            fill: currentColor;
            stroke: none;
        }
        
]]&gt;
</style>
<g class="qr-modules" fill="#7c3aed">
    <rect x="20" y="20" width="10" height="10" class="qr-module" />
  <rect x="30" y="20" width="10" height="10" class="qr-module" />
  <rect x="40" y="20" width="10" height="10" class="qr-module" />
  <rect x="50" y="20" width="10" height="10" class="qr-module" />
  <rect x="60" y="20" width="10" height="10" class="qr-module" />
  <rect x="70" y="20" width="10" height="10" class="qr-module" />
  <rect x="80" y="20" width="10" height="10" class="qr-module" />
<polygon points="125.0,20 130,25.0 125.0,30 120,25.0" class="qr-module" /><polygon points="165.0,20 170,25.0 165.0,30 160,25.0" class="qr-module" /><polygon points="175.0,20 180,25.0 175.0,30 170,25.0" class="qr-module" /><polygon points="225.0,20 230,25.0 225.0,30 220,25.0" class="qr-module" /><polygon points="245.0,20 250,25.0 245.0,30 240,25.0" class="qr-module" /><polygon points="255.0,20 260,25.0 255.0,30 250,25.0" class="qr-module" /><polygon points="275.0,20 280,25.0 275.0,30 270,25.0" class="qr-module" />  <rect x="320" y="20" width="10" height="10" class="qr-module" />
  <rect x="330" y="20" width="10" height="10" class="qr-module" />
  <rect x="340" y="20" width="10" height="10" class="qr-module" />
  <rect x="350" y="20" width="10" height="10" class="qr-module" />
  <rect x="360" y="20" width="10" height="10" class="qr-module" />
  <rect x="370" y="20" width="10" height="10" class="qr-module" />
  <rect x="380" y="20" width="10" height="10" class="qr-module" />
  <rect x="20" y="30" width="10" height="10" class="qr-module" />
  <rect x="80" y="30" width="10" height="10" class="qr-module" />
  <rect x="100" y="30" width="10" height="10" class="qr-module" />
<polygon points="165.0,30 170,35.0 165.0,40 160,35.0" class="qr-module" /><polygon points="185.0,30 190,35.0 185.0,40 180,35.0" class="qr-module" /><polygon points="205.0,30 210,35.0 205.0,40 200,35.0" class="qr-module" /><polygon points="215.0,30 220,35.0 215.0,40 210,35.0" class="qr-module" /><polygon points="225.0,30 230,35.0 225.0,40 220,35.0" class="qr-module" /><polygon points="235.0,30 240,35.0 235.0,40 230,35.0" class="qr-module" /><polygon points="245.0,30 250,35.0 245.0,40 240,35.0" class="qr-module" /><polygon points="265.0,30 270,35.0 265.0,40 260,35.0" class="qr-module" />  <rect x="320" y="30" width="10" height="10" class="qr-module" />
  <rect x="380" y="30" width="10" height="10" class="qr-module" />
  <rect x="20" y="40" width="10" height="10" class="qr-module" />
  <rect x="40" y="40" width="10" height="10" class="qr-module" />
  <rect x="50" y="40" width="10" height="10" class="qr-module" />
  <rect x="60" y="40" width="10" height="10" class="qr-module" />
  <rect x="80" y="40" width="10" height="10" class="qr-module" />
  <rect x="100" y="40" width="10" height="10" class="qr-module" />
<polygon points="125.0,40 130,45.0 125.0,50 120,45.0" class="qr-module" /><polygon points="135.0,40 140,45.0 135.0,50 130,45.0" class="qr-module" /><polygon points="165.0,40 170,45.0 165.0,50 160,45.0" class="qr-module" /><polygon points="185.0,40 190,45.0 185.0,50 180,45.0" class="qr-module" /><polygon points="215.0,40 220,45.0 215.0,50 210,45.0" class="qr-module" /><polygon points="235.0,40 240,45.0 235.0,50 230,45.0" class="qr-module" /><polygon points="245.0,40 250,45.0 245.0,50 240,45.0" class="qr-module" /><polygon points="275.0,40 280,45.0 275.0,50 270,45.0" class="qr-module" /><polygon points="285.0,40 290,45.0 285.0,50 280,45.0" class="qr-module" /><polygon points="295.0,40 300,45.0 295.0,50 290,45.0" class="qr-module" />  <rect x="320" y="40" width="10" height="10" class="qr-module" />
  <rect x="340" y="40" width="10" height="10" class="qr-module" />
  <rect x="350" y="40" width="10" height="10" class="qr-module" />
  <rect x="360" y="40" width="10" height="10" class="qr-module" />
  <rect x="380" y="40" width="10" height="10" class="qr-module" />
  <rect x="20" y="50" width="10" height="10" class="qr-module" />
  <rect x="40" y="50" width="10" height="10" class="qr-module" />
  <rect x="50" y="50" width="10" height="10" class="qr-module" />
  <rect x="60" y="50" width="10" height="10" class="qr-module" />
  <rect x="80" y="50" width="10" height="10" class="qr-module" />
  <rect x="100" y="50" width="10" height="10" class="qr-module" />
<polygon points="115.0,50 120,55.0 115.0,60 110,55.0" class="qr-module" /><polygon points="165.0,50 170,55.0 165.0,60 160,55.0" class="qr-module" /><polygon points="185.0,50 190,55.0 185.0,60 180,55.0" class="qr-module" /><polygon points="195.0,50 200,55.0 195.0,60 190,55.0" class="qr-module" /><polygon points="225.0,50 230,55.0 225.0,60 220,55.0" class="qr-module" /><polygon points="235.0,50 240,55.0 235.0,60 230,55.0" class="qr-module" /><polygon points="275.0,50 280,55.0 275.0,60 270,55.0" class="qr-module" /><polygon points="285.0,50 290,55.0 285.0,60 280,55.0" class="qr-module" />  <rect x="320" y="50" width="10" height="10" class="qr-module" />
  <rect x="340" y="50" width="10" height="10" class="qr-module" />
  <rect x="350" y="50" width="10" height="10" class="qr-module" />
  <rect x="360" y="50" width="10" height="10" class="qr-module" />
  <rect x="380" y="50" width="10" height="10" class="qr-module" />
  <rect x="20" y="60" width="10" height="10" class="qr-module" />
  <rect x="40" y="60" width="10" height="10" class="qr-module" />
  <rect x="50" y="60" width="10" height="10" class="qr-module" />
  <rect x="60" y="60" width="10" height="10" class="qr-module" />
  <rect x="80" y="60" width="10" height="10" class="qr-module" />
  <rect x="100" y="60" width="10" height="10" class="qr-module" />
<polygon points="135.0,60 140,65.0 135.0,70 130,65.0" class="qr-module" /><polygon points="175.0,60 180,65.0 175.0,70 170,65.0" class="qr-module" /><polygon points="185.0,60 190,65.0 185.0,70 180,65.0" class="qr-module" /><polygon points="195.0,60 200,65.0 195.0,70 190,65.0" class="qr-module" /><polygon points="215.0,60 220,65.0 215.0,70 210,65.0" class="qr-module" /><polygon points="225.0,60 230,65.0 225.0,70 220,65.0" class="qr-module" /><polygon points="235.0,60 240,65.0 235.0,70 230,65.0" class="qr-module" /><polygon points="245.0,60 250,65.0 245.0,70 240,65.0" class="qr-module" /><polygon points="265.0,60 270,65.0 265.0,70 260,65.0" class="qr-module" /><polygon points="285.0,60 290,65.0 285.0,70 280,65.0" class="qr-module" />  <rect x="320" y="60" width="10" height="10" class="qr-module" />
  <rect x="340" y="60" width="10" height="10" class="qr-module" />
  <rect x="350" y="60" width="10" height="10" class="qr-module" />
  <rect x="360" y="60" width="10" height="10" class="qr-module" />
  <rect x="380" y="60" width="10" height="10" class="qr-module" />
  <rect x="20" y="70" width="10" height="10" class="qr-module" />
  <rect x="80" y="70" width="10" height="10" class="qr-module" />
  <rect x="100" y="70" width="10" height="10" class="qr-module" />
<polygon points="125.0,70 130,75.0 125.0,80 120,75.0" class="qr-module" /><polygon points="135.0,70 140,75.0 135.0,80 130,75.0" class="qr-module" /><polygon points="145.0,70 150,75.0 145.0,80 140,75.0" class="qr-module" /><polygon points="155.0,70 160,75.0 155.0,80 150,75.0" class="qr-module" /><polygon points="185.0,70 190,75.0 185.0,80 180,75.0" class="qr-module" /><polygon points="195.0,70 200,75.0 195.0,80 190,75.0" class="qr-module" /><polygon points="205.0,70 210,75.0 205.0,80 200,75.0" class="qr-module" /><polygon points="225.0,70 230,75.0 225.0,80 220,75.0" class="qr-module" /><polygon points="235.0,70 240,75.0 235.0,80 230,75.0" class="qr-module" /><polygon points="245.0,70 250,75.0 245.0,80 240,75.0" class="qr-module" /><polygon points="255.0,70 260,75.0 255.0,80 250,75.0" class="qr-module" /><polygon points="275.0,70 280,75.0 275.0,80 270,75.0" class="qr-module" /><polygon points="285.0,70 290,75.0 285.0,80 280,75.0" class="qr-module" /><polygon points="305.0,70 310,75.0 305.0,80 300,75.0" class="qr-module" />  <rect x="320" y="70" width="10" height="10" class="qr-module" />
  <rect x="380" y="70" width="10" height="10" class="qr-module" />
  <rect x="20" y="80" width="10" height="10" class="qr-module" />
  <rect x="30" y="80" width="10" height="10" class="qr-module" />
  <rect x="40" y="80" width="10" height="10" class="qr-module" />
  <rect x="50" y="80" width="10" height="10" class="qr-module" />
  <rect x="60" y="80" width="10" height="10" class="qr-module" />
  <rect x="70" y="80" width="10" height="10" class="qr-module" />
  <rect x="80" y="80" width="10" height="10" class="qr-module" />
  <rect x="100" y="80" width="10" height="10" class="qr-module" />
  <rect x="120" y="80" width="10" height="10" class="qr-module" />
  <rect x="140" y="80" width="10" height="10" class="qr-module" />
  <rect x="160" y="80" width="10" height="10" class="qr-module" />
  <rect x="180" y="80" width="10" height="10" class="qr-module" />
  <rect x="200" y="80" width="10" height="10" class="qr-module" />
  <rect x="220" y="80" width="10" height="10" class="qr-module" />
  <rect x="240" y="80" width="10" height="10" class="qr-module" />
  <rect x="260" y="80" width="10" height="10" class="qr-module" />
  <rect x="280" y="80" width="10" height="10" class="qr-module" />
  <rect x="300" y="80" width="10" height="10" class="qr-module" />
  <rect x="320" y="80" width="10" height="10" class="qr-module" />
  <rect x="330" y="80" width="10" height="10" class="qr-module" />
  <rect x="340" y="80" width="10" height="10" class="qr-module" />
  <rect x="350" y="80" width="10" height="10" class="qr-module" />
  <rect x="360" y="80" width="10" height="10" class="qr-module" />
  <rect x="370" y="80" width="10" height="10" class="qr-module" />
  <rect x="380" y="80" width="10" height="10" class="qr-module" />
<polygon points="115.0,90 120,95.0 115.0,100 110,95.0" class="qr-module" /><polygon points="135.0,90 140,95.0 135.0,100 130,95.0" class="qr-module" /><polygon points="155.0,90 160,95.0 155.0,100 150,95.0" class="qr-module" /><polygon points="165.0,90 170,95.0 165.0,100 160,95.0" class="qr-module" /><polygon points="175.0,90 180,95.0 175.0,100 170,95.0" class="qr-module" /><polygon points="185.0,90 190,95.0 185.0,100 180,95.0" class="qr-module" /><polygon points="205.0,90 210,95.0 205.0,100 200,95.0" class="qr-module" /><polygon points="215.0,90 220,95.0 215.0,100 210,95.0" class="qr-module" /><polygon points="225.0,90 230,95.0 225.0,100 220,95.0" class="qr-module" /><polygon points="235.0,90 240,95.0 235.0,100 230,95.0" class="qr-module" /><polygon points="245.0,90 250,95.0 245.0,100 240,95.0" class="qr-module" /><polygon points="255.0,90 260,95.0 255.0,100 250,95.0" class="qr-module" /><polygon points="265.0,90 270,95.0 265.0,100 260,95.0" class="qr-module" /><polygon points="275.0,90 280,95.0 275.0,100 270,95.0" class="qr-module" /><polygon points="295.0,90 300,95.0 295.0,100 290,95.0" class="qr-module" /><polygon points="305.0,90 310,95.0 305.0,100 300,95.0" class="qr-module" />  <rect x="40" y="100" width="10" height="10" class="qr-module" />
  <rect x="70" y="100" width="10" height="10" class="qr-module" />
  <rect x="80" y="100" width="10" height="10" class="qr-module" />
  <rect x="90" y="100" width="10" height="10" class="qr-module" />
  <rect x="100" y="100" width="10" height="10" class="qr-module" />
<polygon points="115.0,100 120,105.0 115.0,110 110,105.0" class="qr-module" /><polygon points="125.0,100 130,105.0 125.0,110 120,105.0" class="qr-module" /><polygon points="135.0,100 140,105.0 135.0,110 130,105.0" class="qr-module" /><polygon points="145.0,100 150,105.0 145.0,110 140,105.0" class="qr-module" /><polygon points="155.0,100 160,105.0 155.0,110 150,105.0" class="qr-module" /><polygon points="175.0,100 180,105.0 175.0,110 170,105.0" class="qr-module" /><polygon points="185.0,100 190,105.0 185.0,110 180,105.0" class="qr-module" /><polygon points="215.0,100 220,105.0 215.0,110 210,105.0" class="qr-module" /><polygon points="235.0,100 240,105.0 235.0,110 230,105.0" class="qr-module" /><polygon points="245.0,100 250,105.0 245.0,110 240,105.0" class="qr-module" /><polygon points="265.0,100 270,105.0 265.0,110 260,105.0" class="qr-module" /><polygon points="275.0,100 280,105.0 275.0,110 270,105.0" class="qr-module" />  <rect x="310" y="100" width="10" height="10" class="qr-module" />
  <rect x="330" y="100" width="10" height="10" class="qr-module" />
  <rect x="340" y="100" width="10" height="10" class="qr-module" />
  <rect x="350" y="100" width="10" height="10" class="qr-module" />
  <rect x="360" y="100" width="10" height="10" class="qr-module" />
  <rect x="370" y="100" width="10" height="10" class="qr-module" />
<polygon points="25.0,110 30,115.0 25.0,120 20,115.0" class="qr-module" /><polygon points="35.0,110 40,115.0 35.0,120 30,115.0" class="qr-module" /><polygon points="45.0,110 50,115.0 45.0,120 40,115.0" class="qr-module" /><polygon points="75.0,110 80,115.0 75.0,120 70,115.0" class="qr-module" /><polygon points="95.0,110 100,115.0 95.0,120 90,115.0" class="qr-module" /><polygon points="105.0,110 110,115.0 105.0,120 100,115.0" class="qr-module" /><polygon points="115.0,110 120,115.0 115.0,120 110,115.0" class="qr-module" /><polygon points="125.0,110 130,115.0 125.0,120 120,115.0" class="qr-module" /><polygon points="145.0,110 150,115.0 145.0,120 140,115.0" class="qr-module" /><polygon points="185.0,110 190,115.0 185.0,120 180,115.0" class="qr-module" /><polygon points="225.0,110 230,115.0 225.0,120 220,115.0" class="qr-module" /><polygon points="245.0,110 250,115.0 245.0,120 240,115.0" class="qr-module" /><polygon points="255.0,110 260,115.0 255.0,120 250,115.0" class="qr-module" /><polygon points="265.0,110 270,115.0 265.0,120 260,115.0" class="qr-module" /><polygon points="335.0,110 340,115.0 335.0,120 330,115.0" class="qr-module" /><polygon points="345.0,110 350,115.0 345.0,120 340,115.0" class="qr-module" /><polygon points="355.0,110 360,115.0 355.0,120 350,115.0" class="qr-module" /><polygon points="365.0,110 370,115.0 365.0,120 360,115.0" class="qr-module" /><polygon points="385.0,110 390,115.0 385.0,120 380,115.0" class="qr-module" /><polygon points="35.0,120 40,125.0 35.0,130 30,125.0" class="qr-module" /><polygon points="45.0,120 50,125.0 45.0,130 40,125.0" class="qr-module" /><polygon points="65.0,120 70,125.0 65.0,130 60,125.0" class="qr-module" /><polygon points="75.0,120 80,125.0 75.0,130 70,125.0" class="qr-module" />  <rect x="80" y="120" width="10" height="10" class="qr-module" />
<polygon points="95.0,120 100,125.0 95.0,130 90,125.0" class="qr-module" /><polygon points="105.0,120 110,125.0 105.0,130 100,125.0" class="qr-module" /><polygon points="115.0,120 120,125.0 115.0,130 110,125.0" class="qr-module" /><polygon points="125.0,120 130,125.0 125.0,130 120,125.0" class="qr-module" /><polygon points="145.0,120 150,125.0 145.0,130 140,125.0" class="qr-module" /><polygon points="215.0,120 220,125.0 215.0,130 210,125.0" class="qr-module" /><polygon points="245.0,120 250,125.0 245.0,130 240,125.0" class="qr-module" /><polygon points="255.0,120 260,125.0 255.0,130 250,125.0" class="qr-module" /><polygon points="275.0,120 280,125.0 275.0,130 270,125.0" class="qr-module" /><polygon points="295.0,120 300,125.0 295.0,130 290,125.0" class="qr-module" /><polygon points="325.0,120 330,125.0 325.0,130 320,125.0" class="qr-module" /><polygon points="335.0,120 340,125.0 335.0,130 330,125.0" class="qr-module" /><polygon points="375.0,120 380,125.0 375.0,130 370,125.0" class="qr-module" /><polygon points="385.0,120 390,125.0 385.0,130 380,125.0" class="qr-module" /><polygon points="25.0,130 30,135.0 25.0,140 20,135.0" class="qr-module" /><polygon points="55.0,130 60,135.0 55.0,140 50,135.0" class="qr-module" /><polygon points="125.0,130 130,135.0 125.0,140 120,135.0" class="qr-module" /><polygon points="145.0,130 150,135.0 145.0,140 140,135.0" class="qr-module" /><polygon points="185.0,130 190,135.0 185.0,140 180,135.0" class="qr-module" /><polygon points="205.0,130 210,135.0 205.0,140 200,135.0" class="qr-module" /><polygon points="225.0,130 230,135.0 225.0,140 220,135.0" class="qr-module" /><polygon points="235.0,130 240,135.0 235.0,140 230,135.0" class="qr-module" /><polygon points="245.0,130 250,135.0 245.0,140 240,135.0" class="qr-module" /><polygon points="255.0,130 260,135.0 255.0,140 250,135.0" class="qr-module" /><polygon points="265.0,130 270,135.0 265.0,140 260,135.0" class="qr-module" /><polygon points="315.0,130 320,135.0 315.0,140 310,135.0" class="qr-module" /><polygon points="335.0,130 340,135.0 335.0,140 330,135.0" class="qr-module" /><polygon points="345.0,130 350,135.0 345.0,140 340,135.0" class="qr-module" /><polygon points="355.0,130 360,135.0 355.0,140 350,135.0" class="qr-module" /><polygon points="385.0,130 390,135.0 385.0,140 380,135.0" class="qr-module" /><polygon points="45.0,140 50,145.0 45.0,150 40,145.0" class="qr-module" /><polygon points="65.0,140 70,145.0 65.0,150 60,145.0" class="qr-module" /><polygon points="75.0,140 80,145.0 75.0,150 70,145.0" class="qr-module" />  <rect x="80" y="140" width="10" height="10" class="qr-module" />
<polygon points="125.0,140 130,145.0 125.0,150 120,145.0" class="qr-module" /><polygon points="145.0,140 150,145.0 145.0,150 140,145.0" class="qr-module" /><polygon points="155.0,140 160,145.0 155.0,150 150,145.0" class="qr-module" /><polygon points="205.0,140 210,145.0 205.0,150 200,145.0" class="qr-module" /><polygon points="215.0,140 220,145.0 215.0,150 210,145.0" class="qr-module" /><polygon points="225.0,140 230,145.0 225.0,150 220,145.0" class="qr-module" /><polygon points="295.0,140 300,145.0 295.0,150 290,145.0" class="qr-module" /><polygon points="315.0,140 320,145.0 315.0,150 310,145.0" class="qr-module" /><polygon points="325.0,140 330,145.0 325.0,150 320,145.0" class="qr-module" /><polygon points="355.0,140 360,145.0 355.0,150 350,145.0" class="qr-module" /><polygon points="375.0,140 380,145.0 375.0,150 370,145.0" class="qr-module" /><polygon points="35.0,150 40,155.0 35.0,160 30,155.0" class="qr-module" /><polygon points="55.0,150 60,155.0 55.0,160 50,155.0" class="qr-module" /><polygon points="95.0,150 100,155.0 95.0,160 90,155.0" class="qr-module" /><polygon points="105.0,150 110,155.0 105.0,160 100,155.0" class="qr-module" /><polygon points="115.0,150 120,155.0 115.0,160 110,155.0" class="qr-module" /><polygon points="125.0,150 130,155.0 125.0,160 120,155.0" class="qr-module" /><polygon points="165.0,150 170,155.0 165.0,160 160,155.0" class="qr-module" /><polygon points="195.0,150 200,155.0 195.0,160 190,155.0" class="qr-module" /><polygon points="265.0,150 270,155.0 265.0,160 260,155.0" class="qr-module" /><polygon points="295.0,150 300,155.0 295.0,160 290,155.0" class="qr-module" /><polygon points="305.0,150 310,155.0 305.0,160 300,155.0" class="qr-module" /><polygon points="325.0,150 330,155.0 325.0,160 320,155.0" class="qr-module" /><polygon points="335.0,150 340,155.0 335.0,160 330,155.0" class="qr-module" /><polygon points="385.0,150 390,155.0 385.0,160 380,155.0" class="qr-module" /><polygon points="35.0,160 40,165.0 35.0,170 30,165.0" class="qr-module" /><polygon points="75.0,160 80,165.0 75.0,170 70,165.0" class="qr-module" />  <rect x="80" y="160" width="10" height="10" class="qr-module" />
<polygon points="145.0,160 150,165.0 145.0,170 140,165.0" class="qr-module" /><polygon points="165.0,160 170,165.0 165.0,170 160,165.0" class="qr-module" /><polygon points="175.0,160 180,165.0 175.0,170 170,165.0" class="qr-module" /><polygon points="185.0,160 190,165.0 185.0,170 180,165.0" class="qr-module" /><polygon points="195.0,160 200,165.0 195.0,170 190,165.0" class="qr-module" /><polygon points="215.0,160 220,165.0 215.0,170 210,165.0" class="qr-module" /><polygon points="225.0,160 230,165.0 225.0,170 220,165.0" class="qr-module" /><polygon points="235.0,160 240,165.0 235.0,170 230,165.0" class="qr-module" /><polygon points="255.0,160 260,165.0 255.0,170 250,165.0" class="qr-module" /><polygon points="265.0,160 270,165.0 265.0,170 260,165.0" class="qr-module" /><polygon points="275.0,160 280,165.0 275.0,170 270,165.0" class="qr-module" /><polygon points="295.0,160 300,165.0 295.0,170 290,165.0" class="qr-module" /><polygon points="315.0,160 320,165.0 315.0,170 310,165.0" class="qr-module" /><polygon points="345.0,160 350,165.0 345.0,170 340,165.0" class="qr-module" /><polygon points="385.0,160 390,165.0 385.0,170 380,165.0" class="qr-module" /><polygon points="35.0,170 40,175.0 35.0,180 30,175.0" class="qr-module" /><polygon points="65.0,170 70,175.0 65.0,180 60,175.0" class="qr-module" /><polygon points="75.0,170 80,175.0 75.0,180 70,175.0" class="qr-module" /><polygon points="135.0,170 140,175.0 135.0,180 130,175.0" class="qr-module" /><polygon points="145.0,170 150,175.0 145.0,180 140,175.0" class="qr-module" /><polygon points="165.0,170 170,175.0 165.0,180 160,175.0" class="qr-module" /><polygon points="185.0,170 190,175.0 185.0,180 180,175.0" class="qr-module" /><polygon points="205.0,170 210,175.0 205.0,180 200,175.0" class="qr-module" /><polygon points="215.0,170 220,175.0 215.0,180 210,175.0" class="qr-module" /><polygon points="225.0,170 230,175.0 225.0,180 220,175.0" class="qr-module" /><polygon points="235.0,170 240,175.0 235.0,180 230,175.0" class="qr-module" /><polygon points="245.0,170 250,175.0 245.0,180 240,175.0" class="qr-module" /><polygon points="265.0,170 270,175.0 265.0,180 260,175.0" class="qr-module" /><polygon points="305.0,170 310,175.0 305.0,180 300,175.0" class="qr-module" /><polygon points="325.0,170 330,175.0 325.0,180 320,175.0" class="qr-module" /><polygon points="335.0,170 340,175.0 335.0,180 330,175.0" class="qr-module" /><polygon points="355.0,170 360,175.0 355.0,180 350,175.0" class="qr-module" /><polygon points="25.0,180 30,185.0 25.0,190 20,185.0" class="qr-module" /><polygon points="35.0,180 40,185.0 35.0,190 30,185.0" class="qr-module" /><polygon points="65.0,180 70,185.0 65.0,190 60,185.0" class="qr-module" />  <rect x="80" y="180" width="10" height="10" class="qr-module" />
<polygon points="95.0,180 100,185.0 95.0,190 90,185.0" class="qr-module" /><polygon points="115.0,180 120,185.0 115.0,190 110,185.0" class="qr-module" /><polygon points="125.0,180 130,185.0 125.0,190 120,185.0" class="qr-module" /><polygon points="155.0,180 160,185.0 155.0,190 150,185.0" class="qr-module" /><polygon points="165.0,180 170,185.0 165.0,190 160,185.0" class="qr-module" /><polygon points="175.0,180 180,185.0 175.0,190 170,185.0" class="qr-module" /><polygon points="205.0,180 210,185.0 205.0,190 200,185.0" class="qr-module" /><polygon points="215.0,180 220,185.0 215.0,190 210,185.0" class="qr-module" /><polygon points="245.0,180 250,185.0 245.0,190 240,185.0" class="qr-module" /><polygon points="255.0,180 260,185.0 255.0,190 250,185.0" class="qr-module" /><polygon points="315.0,180 320,185.0 315.0,190 310,185.0" class="qr-module" /><polygon points="325.0,180 330,185.0 325.0,190 320,185.0" class="qr-module" /><polygon points="355.0,180 360,185.0 355.0,190 350,185.0" class="qr-module" /><polygon points="385.0,180 390,185.0 385.0,190 380,185.0" class="qr-module" /><polygon points="25.0,190 30,195.0 25.0,200 20,195.0" class="qr-module" /><polygon points="45.0,190 50,195.0 45.0,200 40,195.0" class="qr-module" /><polygon points="55.0,190 60,195.0 55.0,200 50,195.0" class="qr-module" /><polygon points="65.0,190 70,195.0 65.0,200 60,195.0" class="qr-module" /><polygon points="75.0,190 80,195.0 75.0,200 70,195.0" class="qr-module" /><polygon points="95.0,190 100,195.0 95.0,200 90,195.0" class="qr-module" /><polygon points="115.0,190 120,195.0 115.0,200 110,195.0" class="qr-module" /><polygon points="135.0,190 140,195.0 135.0,200 130,195.0" class="qr-module" /><polygon points="165.0,190 170,195.0 165.0,200 160,195.0" class="qr-module" /><polygon points="175.0,190 180,195.0 175.0,200 170,195.0" class="qr-module" /><polygon points="185.0,190 190,195.0 185.0,200 180,195.0" class="qr-module" /><polygon points="275.0,190 280,195.0 275.0,200 270,195.0" class="qr-module" /><polygon points="285.0,190 290,195.0 285.0,200 280,195.0" class="qr-module" /><polygon points="295.0,190 300,195.0 295.0,200 290,195.0" class="qr-module" /><polygon points="305.0,190 310,195.0 305.0,200 300,195.0" class="qr-module" /><polygon points="325.0,190 330,195.0 325.0,200 320,195.0" class="qr-module" /><polygon points="355.0,190 360,195.0 355.0,200 350,195.0" class="qr-module" /><polygon points="375.0,190 380,195.0 375.0,200 370,195.0" class="qr-module" /><polygon points="65.0,200 70,205.0 65.0,210 60,205.0" class="qr-module" />  <rect x="80" y="200" width="10" height="10" class="qr-module" />
<polygon points="95.0,200 100,205.0 95.0,210 90,205.0" class="qr-module" /><polygon points="105.0,200 110,205.0 105.0,210 100,205.0" class="qr-module" /><polygon points="115.0,200 120,205.0 115.0,210 110,205.0" class="qr-module" /><polygon points="125.0,200 130,205.0 125.0,210 120,205.0" class="qr-module" /><polygon points="135.0,200 140,205.0 135.0,210 130,205.0" class="qr-module" /><polygon points="175.0,200 180,205.0 175.0,210 170,205.0" class="qr-module" /><polygon points="185.0,200 190,205.0 185.0,210 180,205.0" class="qr-module" /><polygon points="215.0,200 220,205.0 215.0,210 210,205.0" class="qr-module" /><polygon points="255.0,200 260,205.0 255.0,210 250,205.0" class="qr-module" /><polygon points="265.0,200 270,205.0 265.0,210 260,205.0" class="qr-module" /><polygon points="275.0,200 280,205.0 275.0,210 270,205.0" class="qr-module" /><polygon points="295.0,200 300,205.0 295.0,210 290,205.0" class="qr-module" /><polygon points="305.0,200 310,205.0 305.0,210 300,205.0" class="qr-module" /><polygon points="315.0,200 320,205.0 315.0,210 310,205.0" class="qr-module" /><polygon points="365.0,200 370,205.0 365.0,210 360,205.0" class="qr-module" /><polygon points="385.0,200 390,205.0 385.0,210 380,205.0" class="qr-module" /><polygon points="35.0,210 40,215.0 35.0,220 30,215.0" class="qr-module" /><polygon points="55.0,210 60,215.0 55.0,220 50,215.0" class="qr-module" /><polygon points="105.0,210 110,215.0 105.0,220 100,215.0" class="qr-module" /><polygon points="125.0,210 130,215.0 125.0,220 120,215.0" class="qr-module" /><polygon points="175.0,210 180,215.0 175.0,220 170,215.0" class="qr-module" /><polygon points="235.0,210 240,215.0 235.0,220 230,215.0" class="qr-module" /><polygon points="245.0,210 250,215.0 245.0,220 240,215.0" class="qr-module" /><polygon points="255.0,210 260,215.0 255.0,220 250,215.0" class="qr-module" /><polygon points="265.0,210 270,215.0 265.0,220 260,215.0" class="qr-module" /><polygon points="335.0,210 340,215.0 335.0,220 330,215.0" class="qr-module" /><polygon points="345.0,210 350,215.0 345.0,220 340,215.0" class="qr-module" /><polygon points="355.0,210 360,215.0 355.0,220 350,215.0" class="qr-module" /><polygon points="375.0,210 380,215.0 375.0,220 370,215.0" class="qr-module" /><polygon points="385.0,210 390,215.0 385.0,220 380,215.0" class="qr-module" /><polygon points="35.0,220 40,225.0 35.0,230 30,225.0" class="qr-module" /><polygon points="55.0,220 60,225.0 55.0,230 50,225.0" class="qr-module" />  <rect x="80" y="220" width="10" height="10" class="qr-module" />
<polygon points="105.0,220 110,225.0 105.0,230 100,225.0" class="qr-module" /><polygon points="125.0,220 130,225.0 125.0,230 120,225.0" class="qr-module" /><polygon points="155.0,220 160,225.0 155.0,230 150,225.0" class="qr-module" /><polygon points="165.0,220 170,225.0 165.0,230 160,225.0" class="qr-module" /><polygon points="205.0,220 210,225.0 205.0,230 200,225.0" class="qr-module" /><polygon points="215.0,220 220,225.0 215.0,230 210,225.0" class="qr-module" /><polygon points="225.0,220 230,225.0 225.0,230 220,225.0" class="qr-module" /><polygon points="255.0,220 260,225.0 255.0,230 250,225.0" class="qr-module" /><polygon points="265.0,220 270,225.0 265.0,230 260,225.0" class="qr-module" /><polygon points="305.0,220 310,225.0 305.0,230 300,225.0" class="qr-module" /><polygon points="325.0,220 330,225.0 325.0,230 320,225.0" class="qr-module" /><polygon points="335.0,220 340,225.0 335.0,230 330,225.0" class="qr-module" /><polygon points="355.0,220 360,225.0 355.0,230 350,225.0" class="qr-module" /><polygon points="375.0,220 380,225.0 375.0,230 370,225.0" class="qr-module" /><polygon points="385.0,220 390,225.0 385.0,230 380,225.0" class="qr-module" /><polygon points="25.0,230 30,235.0 25.0,240 20,235.0" class="qr-module" /><polygon points="35.0,230 40,235.0 35.0,240 30,235.0" class="qr-module" /><polygon points="65.0,230 70,235.0 65.0,240 60,235.0" class="qr-module" /><polygon points="75.0,230 80,235.0 75.0,240 70,235.0" class="qr-module" /><polygon points="95.0,230 100,235.0 95.0,240 90,235.0" class="qr-module" /><polygon points="105.0,230 110,235.0 105.0,240 100,235.0" class="qr-module" /><polygon points="125.0,230 130,235.0 125.0,240 120,235.0" class="qr-module" /><polygon points="195.0,230 200,235.0 195.0,240 190,235.0" class="qr-module" /><polygon points="225.0,230 230,235.0 225.0,240 220,235.0" class="qr-module" /><polygon points="235.0,230 240,235.0 235.0,240 230,235.0" class="qr-module" /><polygon points="295.0,230 300,235.0 295.0,240 290,235.0" class="qr-module" /><polygon points="305.0,230 310,235.0 305.0,240 300,235.0" class="qr-module" /><polygon points="325.0,230 330,235.0 325.0,240 320,235.0" class="qr-module" /><polygon points="335.0,230 340,235.0 335.0,240 330,235.0" class="qr-module" /><polygon points="355.0,230 360,235.0 355.0,240 350,235.0" class="qr-module" /><polygon points="365.0,230 370,235.0 365.0,240 360,235.0" class="qr-module" /><polygon points="385.0,230 390,235.0 385.0,240 380,235.0" class="qr-module" /><polygon points="35.0,240 40,245.0 35.0,250 30,245.0" class="qr-module" /><polygon points="75.0,240 80,245.0 75.0,250 70,245.0" class="qr-module" />  <rect x="80" y="240" width="10" height="10" class="qr-module" />
<polygon points="95.0,240 100,245.0 95.0,250 90,245.0" class="qr-module" /><polygon points="105.0,240 110,245.0 105.0,250 100,245.0" class="qr-module" /><polygon points="125.0,240 130,245.0 125.0,250 120,245.0" class="qr-module" /><polygon points="135.0,240 140,245.0 135.0,250 130,245.0" class="qr-module" /><polygon points="175.0,240 180,245.0 175.0,250 170,245.0" class="qr-module" /><polygon points="225.0,240 230,245.0 225.0,250 220,245.0" class="qr-module" /><polygon points="275.0,240 280,245.0 275.0,250 270,245.0" class="qr-module" /><polygon points="285.0,240 290,245.0 285.0,250 280,245.0" class="qr-module" /><polygon points="295.0,240 300,245.0 295.0,250 290,245.0" class="qr-module" /><polygon points="315.0,240 320,245.0 315.0,250 310,245.0" class="qr-module" /><polygon points="325.0,240 330,245.0 325.0,250 320,245.0" class="qr-module" /><polygon points="335.0,240 340,245.0 335.0,250 330,245.0" class="qr-module" /><polygon points="385.0,240 390,245.0 385.0,250 380,245.0" class="qr-module" /><polygon points="35.0,250 40,255.0 35.0,260 30,255.0" class="qr-module" /><polygon points="45.0,250 50,255.0 45.0,260 40,255.0" class="qr-module" /><polygon points="55.0,250 60,255.0 55.0,260 50,255.0" class="qr-module" /><polygon points="75.0,250 80,255.0 75.0,260 70,255.0" class="qr-module" /><polygon points="125.0,250 130,255.0 125.0,260 120,255.0" class="qr-module" /><polygon points="155.0,250 160,255.0 155.0,260 150,255.0" class="qr-module" /><polygon points="175.0,250 180,255.0 175.0,260 170,255.0" class="qr-module" /><polygon points="215.0,250 220,255.0 215.0,260 210,255.0" class="qr-module" /><polygon points="235.0,250 240,255.0 235.0,260 230,255.0" class="qr-module" /><polygon points="255.0,250 260,255.0 255.0,260 250,255.0" class="qr-module" /><polygon points="265.0,250 270,255.0 265.0,260 260,255.0" class="qr-module" /><polygon points="285.0,250 290,255.0 285.0,260 280,255.0" class="qr-module" /><polygon points="305.0,250 310,255.0 305.0,260 300,255.0" class="qr-module" /><polygon points="315.0,250 320,255.0 315.0,260 310,255.0" class="qr-module" /><polygon points="335.0,250 340,255.0 335.0,260 330,255.0" class="qr-module" /><polygon points="375.0,250 380,255.0 375.0,260 370,255.0" class="qr-module" /><polygon points="385.0,250 390,255.0 385.0,260 380,255.0" class="qr-module" /><polygon points="45.0,260 50,265.0 45.0,270 40,265.0" class="qr-module" /><polygon points="55.0,260 60,265.0 55.0,270 50,265.0" class="qr-module" /><polygon points="75.0,260 80,265.0 75.0,270 70,265.0" class="qr-module" />  <rect x="80" y="260" width="10" height="10" class="qr-module" />
<polygon points="95.0,260 100,265.0 95.0,270 90,265.0" class="qr-module" /><polygon points="115.0,260 120,265.0 115.0,270 110,265.0" class="qr-module" /><polygon points="135.0,260 140,265.0 135.0,270 130,265.0" class="qr-module" /><polygon points="145.0,260 150,265.0 145.0,270 140,265.0" class="qr-module" /><polygon points="155.0,260 160,265.0 155.0,270 150,265.0" class="qr-module" /><polygon points="165.0,260 170,265.0 165.0,270 160,265.0" class="qr-module" /><polygon points="205.0,260 210,265.0 205.0,270 200,265.0" class="qr-module" /><polygon points="215.0,260 220,265.0 215.0,270 210,265.0" class="qr-module" /><polygon points="225.0,260 230,265.0 225.0,270 220,265.0" class="qr-module" /><polygon points="235.0,260 240,265.0 235.0,270 230,265.0" class="qr-module" /><polygon points="245.0,260 250,265.0 245.0,270 240,265.0" class="qr-module" /><polygon points="255.0,260 260,265.0 255.0,270 250,265.0" class="qr-module" /><polygon points="275.0,260 280,265.0 275.0,270 270,265.0" class="qr-module" /><polygon points="285.0,260 290,265.0 285.0,270 280,265.0" class="qr-module" /><polygon points="305.0,260 310,265.0 305.0,270 300,265.0" class="qr-module" /><polygon points="315.0,260 320,265.0 315.0,270 310,265.0" class="qr-module" /><polygon points="325.0,260 330,265.0 325.0,270 320,265.0" class="qr-module" /><polygon points="335.0,260 340,265.0 335.0,270 330,265.0" class="qr-module" /><polygon points="345.0,260 350,265.0 345.0,270 340,265.0" class="qr-module" /><polygon points="355.0,260 360,265.0 355.0,270 350,265.0" class="qr-module" /><polygon points="375.0,260 380,265.0 375.0,270 370,265.0" class="qr-module" /><polygon points="385.0,260 390,265.0 385.0,270 380,265.0" class="qr-module" /><polygon points="45.0,270 50,275.0 45.0,280 40,275.0" class="qr-module" /><polygon points="55.0,270 60,275.0 55.0,280 50,275.0" class="qr-module" /><polygon points="65.0,270 70,275.0 65.0,280 60,275.0" class="qr-module" /><polygon points="75.0,270 80,275.0 75.0,280 70,275.0" class="qr-module" /><polygon points="95.0,270 100,275.0 95.0,280 90,275.0" class="qr-module" /><polygon points="115.0,270 120,275.0 115.0,280 110,275.0" class="qr-module" /><polygon points="125.0,270 130,275.0 125.0,280 120,275.0" class="qr-module" /><polygon points="135.0,270 140,275.0 135.0,280 130,275.0" class="qr-module" /><polygon points="165.0,270 170,275.0 165.0,280 160,275.0" class="qr-module" /><polygon points="195.0,270 200,275.0 195.0,280 190,275.0" class="qr-module" /><polygon points="215.0,270 220,275.0 215.0,280 210,275.0" class="qr-module" /><polygon points="225.0,270 230,275.0 225.0,280 220,275.0" class="qr-module" /><polygon points="235.0,270 240,275.0 235.0,280 230,275.0" class="qr-module" /><polygon points="285.0,270 290,275.0 285.0,280 280,275.0" class="qr-module" /><polygon points="305.0,270 310,275.0 305.0,280 300,275.0" class="qr-module" /><polygon points="315.0,270 320,275.0 315.0,280 310,275.0" class="qr-module" /><polygon points="355.0,270 360,275.0 355.0,280 350,275.0" class="qr-module" /><polygon points="365.0,270 370,275.0 365.0,280 360,275.0" class="qr-module" /><polygon points="375.0,270 380,275.0 375.0,280 370,275.0" class="qr-module" /><polygon points="385.0,270 390,275.0 385.0,280 380,275.0" class="qr-module" /><polygon points="25.0,280 30,285.0 25.0,290 20,285.0" class="qr-module" /><polygon points="35.0,280 40,285.0 35.0,290 30,285.0" class="qr-module" /><polygon points="45.0,280 50,285.0 45.0,290 40,285.0" class="qr-module" /><polygon points="65.0,280 70,285.0 65.0,290 60,285.0" class="qr-module" />  <rect x="80" y="280" width="10" height="10" class="qr-module" />
<polygon points="125.0,280 130,285.0 125.0,290 120,285.0" class="qr-module" /><polygon points="155.0,280 160,285.0 155.0,290 150,285.0" class="qr-module" /><polygon points="165.0,280 170,285.0 165.0,290 160,285.0" class="qr-module" /><polygon points="185.0,280 190,285.0 185.0,290 180,285.0" class="qr-module" /><polygon points="195.0,280 200,285.0 195.0,290 190,285.0" class="qr-module" /><polygon points="215.0,280 220,285.0 215.0,290 210,285.0" class="qr-module" /><polygon points="225.0,280 230,285.0 225.0,290 220,285.0" class="qr-module" /><polygon points="235.0,280 240,285.0 235.0,290 230,285.0" class="qr-module" /><polygon points="245.0,280 250,285.0 245.0,290 240,285.0" class="qr-module" /><polygon points="255.0,280 260,285.0 255.0,290 250,285.0" class="qr-module" /><polygon points="275.0,280 280,285.0 275.0,290 270,285.0" class="qr-module" /><polygon points="305.0,280 310,285.0 305.0,290 300,285.0" class="qr-module" /><polygon points="315.0,280 320,285.0 315.0,290 310,285.0" class="qr-module" /><polygon points="325.0,280 330,285.0 325.0,290 320,285.0" class="qr-module" /><polygon points="335.0,280 340,285.0 335.0,290 330,285.0" class="qr-module" /><polygon points="345.0,280 350,285.0 345.0,290 340,285.0" class="qr-module" /><polygon points="365.0,280 370,285.0 365.0,290 360,285.0" class="qr-module" /><polygon points="375.0,280 380,285.0 375.0,290 370,285.0" class="qr-module" /><polygon points="385.0,280 390,285.0 385.0,290 380,285.0" class="qr-module" /><polygon points="65.0,290 70,295.0 65.0,300 60,295.0" class="qr-module" /><polygon points="95.0,290 100,295.0 95.0,300 90,295.0" class="qr-module" /><polygon points="105.0,290 110,295.0 105.0,300 100,295.0" class="qr-module" /><polygon points="115.0,290 120,295.0 115.0,300 110,295.0" class="qr-module" /><polygon points="125.0,290 130,295.0 125.0,300 120,295.0" class="qr-module" /><polygon points="135.0,290 140,295.0 135.0,300 130,295.0" class="qr-module" /><polygon points="155.0,290 160,295.0 155.0,300 150,295.0" class="qr-module" /><polygon points="165.0,290 170,295.0 165.0,300 160,295.0" class="qr-module" /><polygon points="175.0,290 180,295.0 175.0,300 170,295.0" class="qr-module" /><polygon points="205.0,290 210,295.0 205.0,300 200,295.0" class="qr-module" /><polygon points="215.0,290 220,295.0 215.0,300 210,295.0" class="qr-module" /><polygon points="225.0,290 230,295.0 225.0,300 220,295.0" class="qr-module" /><polygon points="245.0,290 250,295.0 245.0,300 240,295.0" class="qr-module" /><polygon points="285.0,290 290,295.0 285.0,300 280,295.0" class="qr-module" /><polygon points="295.0,290 300,295.0 295.0,300 290,295.0" class="qr-module" /><polygon points="305.0,290 310,295.0 305.0,300 300,295.0" class="qr-module" /><polygon points="375.0,290 380,295.0 375.0,300 370,295.0" class="qr-module" /><polygon points="385.0,290 390,295.0 385.0,300 380,295.0" class="qr-module" /><polygon points="25.0,300 30,305.0 25.0,310 20,305.0" class="qr-module" /><polygon points="35.0,300 40,305.0 35.0,310 30,305.0" class="qr-module" /><polygon points="45.0,300 50,305.0 45.0,310 40,305.0" class="qr-module" /><polygon points="55.0,300 60,305.0 55.0,310 50,305.0" class="qr-module" />  <rect x="80" y="300" width="10" height="10" class="qr-module" />
<polygon points="105.0,300 110,305.0 105.0,310 100,305.0" class="qr-module" /><polygon points="115.0,300 120,305.0 115.0,310 110,305.0" class="qr-module" /><polygon points="135.0,300 140,305.0 135.0,310 130,305.0" class="qr-module" /><polygon points="155.0,300 160,305.0 155.0,310 150,305.0" class="qr-module" /><polygon points="175.0,300 180,305.0 175.0,310 170,305.0" class="qr-module" /><polygon points="185.0,300 190,305.0 185.0,310 180,305.0" class="qr-module" /><polygon points="225.0,300 230,305.0 225.0,310 220,305.0" class="qr-module" /><polygon points="235.0,300 240,305.0 235.0,310 230,305.0" class="qr-module" /><polygon points="255.0,300 260,305.0 255.0,310 250,305.0" class="qr-module" /><polygon points="265.0,300 270,305.0 265.0,310 260,305.0" class="qr-module" /><polygon points="285.0,300 290,305.0 285.0,310 280,305.0" class="qr-module" />  <rect x="300" y="300" width="10" height="10" class="qr-module" />
  <rect x="310" y="300" width="10" height="10" class="qr-module" />
  <rect x="320" y="300" width="10" height="10" class="qr-module" />
  <rect x="330" y="300" width="10" height="10" class="qr-module" />
  <rect x="340" y="300" width="10" height="10" class="qr-module" />
<polygon points="355.0,300 360,305.0 355.0,310 350,305.0" class="qr-module" /><polygon points="365.0,300 370,305.0 365.0,310 360,305.0" class="qr-module" /><polygon points="375.0,300 380,305.0 375.0,310 370,305.0" class="qr-module" /><polygon points="385.0,300 390,305.0 385.0,310 380,305.0" class="qr-module" />  <rect x="100" y="310" width="10" height="10" class="qr-module" />
<polygon points="125.0,310 130,315.0 125.0,320 120,315.0" class="qr-module" /><polygon points="145.0,310 150,315.0 145.0,320 140,315.0" class="qr-module" /><polygon points="165.0,310 170,315.0 165.0,320 160,315.0" class="qr-module" /><polygon points="185.0,310 190,315.0 185.0,320 180,315.0" class="qr-module" /><polygon points="205.0,310 210,315.0 205.0,320 200,315.0" class="qr-module" /><polygon points="215.0,310 220,315.0 215.0,320 210,315.0" class="qr-module" /><polygon points="255.0,310 260,315.0 255.0,320 250,315.0" class="qr-module" /><polygon points="265.0,310 270,315.0 265.0,320 260,315.0" class="qr-module" />  <rect x="300" y="310" width="10" height="10" class="qr-module" />
  <rect x="340" y="310" width="10" height="10" class="qr-module" />
  <rect x="20" y="320" width="10" height="10" class="qr-module" />
  <rect x="30" y="320" width="10" height="10" class="qr-module" />
  <rect x="40" y="320" width="10" height="10" class="qr-module" />
  <rect x="50" y="320" width="10" height="10" class="qr-module" />
  <rect x="60" y="320" width="10" height="10" class="qr-module" />
  <rect x="70" y="320" width="10" height="10" class="qr-module" />
  <rect x="80" y="320" width="10" height="10" class="qr-module" />
  <rect x="100" y="320" width="10" height="10" class="qr-module" />
<polygon points="115.0,320 120,325.0 115.0,330 110,325.0" class="qr-module" /><polygon points="135.0,320 140,325.0 135.0,330 130,325.0" class="qr-module" /><polygon points="145.0,320 150,325.0 145.0,330 140,325.0" class="qr-module" /><polygon points="165.0,320 170,325.0 165.0,330 160,325.0" class="qr-module" /><polygon points="205.0,320 210,325.0 205.0,330 200,325.0" class="qr-module" /><polygon points="225.0,320 230,325.0 225.0,330 220,325.0" class="qr-module" /><polygon points="235.0,320 240,325.0 235.0,330 230,325.0" class="qr-module" /><polygon points="245.0,320 250,325.0 245.0,330 240,325.0" class="qr-module" /><polygon points="255.0,320 260,325.0 255.0,330 250,325.0" class="qr-module" /><polygon points="265.0,320 270,325.0 265.0,330 260,325.0" class="qr-module" /><polygon points="275.0,320 280,325.0 275.0,330 270,325.0" class="qr-module" /><polygon points="285.0,320 290,325.0 285.0,330 280,325.0" class="qr-module" />  <rect x="300" y="320" width="10" height="10" class="qr-module" />
<polygon points="325.0,320 330,325.0 325.0,330 320,325.0" class="qr-module" />  <rect x="340" y="320" width="10" height="10" class="qr-module" />
<polygon points="365.0,320 370,325.0 365.0,330 360,325.0" class="qr-module" /><polygon points="385.0,320 390,325.0 385.0,330 380,325.0" class="qr-module" />  <rect x="20" y="330" width="10" height="10" class="qr-module" />
  <rect x="80" y="330" width="10" height="10" class="qr-module" />
  <rect x="100" y="330" width="10" height="10" class="qr-module" />
<polygon points="125.0,330 130,335.0 125.0,340 120,335.0" class="qr-module" /><polygon points="135.0,330 140,335.0 135.0,340 130,335.0" class="qr-module" /><polygon points="145.0,330 150,335.0 145.0,340 140,335.0" class="qr-module" /><polygon points="175.0,330 180,335.0 175.0,340 170,335.0" class="qr-module" /><polygon points="185.0,330 190,335.0 185.0,340 180,335.0" class="qr-module" /><polygon points="215.0,330 220,335.0 215.0,340 210,335.0" class="qr-module" /><polygon points="245.0,330 250,335.0 245.0,340 240,335.0" class="qr-module" /><polygon points="255.0,330 260,335.0 255.0,340 250,335.0" class="qr-module" /><polygon points="265.0,330 270,335.0 265.0,340 260,335.0" class="qr-module" /><polygon points="295.0,330 300,335.0 295.0,340 290,335.0" class="qr-module" />  <rect x="300" y="330" width="10" height="10" class="qr-module" />
  <rect x="340" y="330" width="10" height="10" class="qr-module" />
<polygon points="355.0,330 360,335.0 355.0,340 350,335.0" class="qr-module" />  <rect x="20" y="340" width="10" height="10" class="qr-module" />
  <rect x="40" y="340" width="10" height="10" class="qr-module" />
  <rect x="50" y="340" width="10" height="10" class="qr-module" />
  <rect x="60" y="340" width="10" height="10" class="qr-module" />
  <rect x="80" y="340" width="10" height="10" class="qr-module" />
<polygon points="115.0,340 120,345.0 115.0,350 110,345.0" class="qr-module" /><polygon points="125.0,340 130,345.0 125.0,350 120,345.0" class="qr-module" /><polygon points="145.0,340 150,345.0 145.0,350 140,345.0" class="qr-module" /><polygon points="175.0,340 180,345.0 175.0,350 170,345.0" class="qr-module" /><polygon points="215.0,340 220,345.0 215.0,350 210,345.0" class="qr-module" /><polygon points="225.0,340 230,345.0 225.0,350 220,345.0" class="qr-module" /><polygon points="235.0,340 240,345.0 235.0,350 230,345.0" class="qr-module" /><polygon points="265.0,340 270,345.0 265.0,350 260,345.0" class="qr-module" /><polygon points="295.0,340 300,345.0 295.0,350 290,345.0" class="qr-module" />  <rect x="300" y="340" width="10" height="10" class="qr-module" />
  <rect x="310" y="340" width="10" height="10" class="qr-module" />
  <rect x="320" y="340" width="10" height="10" class="qr-module" />
  <rect x="330" y="340" width="10" height="10" class="qr-module" />
  <rect x="340" y="340" width="10" height="10" class="qr-module" />
<polygon points="355.0,340 360,345.0 355.0,350 350,345.0" class="qr-module" /><polygon points="375.0,340 380,345.0 375.0,350 370,345.0" class="qr-module" /><polygon points="385.0,340 390,345.0 385.0,350 380,345.0" class="qr-module" />  <rect x="20" y="350" width="10" height="10" class="qr-module" />
  <rect x="40" y="350" width="10" height="10" class="qr-module" />
  <rect x="50" y="350" width="10" height="10" class="qr-module" />
  <rect x="60" y="350" width="10" height="10" class="qr-module" />
  <rect x="80" y="350" width="10" height="10" class="qr-module" />
<polygon points="135.0,350 140,355.0 135.0,360 130,355.0" class="qr-module" /><polygon points="145.0,350 150,355.0 145.0,360 140,355.0" class="qr-module" /><polygon points="155.0,350 160,355.0 155.0,360 150,355.0" class="qr-module" /><polygon points="165.0,350 170,355.0 165.0,360 160,355.0" class="qr-module" /><polygon points="175.0,350 180,355.0 175.0,360 170,355.0" class="qr-module" /><polygon points="185.0,350 190,355.0 185.0,360 180,355.0" class="qr-module" /><polygon points="205.0,350 210,355.0 205.0,360 200,355.0" class="qr-module" /><polygon points="215.0,350 220,355.0 215.0,360 210,355.0" class="qr-module" /><polygon points="225.0,350 230,355.0 225.0,360 220,355.0" class="qr-module" /><polygon points="245.0,350 250,355.0 245.0,360 240,355.0" class="qr-module" /><polygon points="265.0,350 270,355.0 265.0,360 260,355.0" class="qr-module" /><polygon points="285.0,350 290,355.0 285.0,360 280,355.0" class="qr-module" /><polygon points="295.0,350 300,355.0 295.0,360 290,355.0" class="qr-module" /><polygon points="315.0,350 320,355.0 315.0,360 310,355.0" class="qr-module" /><polygon points="345.0,350 350,355.0 345.0,360 340,355.0" class="qr-module" /><polygon points="355.0,350 360,355.0 355.0,360 350,355.0" class="qr-module" /><polygon points="365.0,350 370,355.0 365.0,360 360,355.0" class="qr-module" /><polygon points="385.0,350 390,355.0 385.0,360 380,355.0" class="qr-module" />  <rect x="20" y="360" width="10" height="10" class="qr-module" />
  <rect x="40" y="360" width="10" height="10" class="qr-module" />
  <rect x="50" y="360" width="10" height="10" class="qr-module" />
  <rect x="60" y="360" width="10" height="10" class="qr-module" />
  <rect x="80" y="360" width="10" height="10" class="qr-module" />
  <rect x="100" y="360" width="10" height="10" class="qr-module" />
<polygon points="115.0,360 120,365.0 115.0,370 110,365.0" class="qr-module" /><polygon points="145.0,360 150,365.0 145.0,370 140,365.0" class="qr-module" /><polygon points="155.0,360 160,365.0 155.0,370 150,365.0" class="qr-module" /><polygon points="175.0,360 180,365.0 175.0,370 170,365.0" class="qr-module" /><polygon points="185.0,360 190,365.0 185.0,370 180,365.0" class="qr-module" /><polygon points="225.0,360 230,365.0 225.0,370 220,365.0" class="qr-module" /><polygon points="245.0,360 250,365.0 245.0,370 240,365.0" class="qr-module" /><polygon points="265.0,360 270,365.0 265.0,370 260,365.0" class="qr-module" /><polygon points="275.0,360 280,365.0 275.0,370 270,365.0" class="qr-module" /><polygon points="295.0,360 300,365.0 295.0,370 290,365.0" class="qr-module" /><polygon points="305.0,360 310,365.0 305.0,370 300,365.0" class="qr-module" /><polygon points="315.0,360 320,365.0 315.0,370 310,365.0" class="qr-module" /><polygon points="325.0,360 330,365.0 325.0,370 320,365.0" class="qr-module" /><polygon points="345.0,360 350,365.0 345.0,370 340,365.0" class="qr-module" /><polygon points="365.0,360 370,365.0 365.0,370 360,365.0" class="qr-module" /><polygon points="375.0,360 380,365.0 375.0,370 370,365.0" class="qr-module" /><polygon points="385.0,360 390,365.0 385.0,370 380,365.0" class="qr-module" />  <rect x="20" y="370" width="10" height="10" class="qr-module" />
  <rect x="80" y="370" width="10" height="10" class="qr-module" />
<polygon points="115.0,370 120,375.0 115.0,380 110,375.0" class="qr-module" /><polygon points="125.0,370 130,375.0 125.0,380 120,375.0" class="qr-module" /><polygon points="185.0,370 190,375.0 185.0,380 180,375.0" class="qr-module" /><polygon points="255.0,370 260,375.0 255.0,380 250,375.0" class="qr-module" /><polygon points="265.0,370 270,375.0 265.0,380 260,375.0" class="qr-module" /><polygon points="285.0,370 290,375.0 285.0,380 280,375.0" class="qr-module" /><polygon points="305.0,370 310,375.0 305.0,380 300,375.0" class="qr-module" /><polygon points="335.0,370 340,375.0 335.0,380 330,375.0" class="qr-module" /><polygon points="345.0,370 350,375.0 345.0,380 340,375.0" class="qr-module" /><polygon points="355.0,370 360,375.0 355.0,380 350,375.0" class="qr-module" />  <rect x="20" y="380" width="10" height="10" class="qr-module" />
  <rect x="30" y="380" width="10" height="10" class="qr-module" />
  <rect x="40" y="380" width="10" height="10" class="qr-module" />
  <rect x="50" y="380" width="10" height="10" class="qr-module" />
  <rect x="60" y="380" width="10" height="10" class="qr-module" />
  <rect x="70" y="380" width="10" height="10" class="qr-module" />
  <rect x="80" y="380" width="10" height="10" class="qr-module" />
<polygon points="115.0,380 120,385.0 115.0,390 110,385.0" class="qr-module" /><polygon points="125.0,380 130,385.0 125.0,390 120,385.0" class="qr-module" /><polygon points="145.0,380 150,385.0 145.0,390 140,385.0" class="qr-module" /><polygon points="165.0,380 170,385.0 165.0,390 160,385.0" class="qr-module" /><polygon points="185.0,380 190,385.0 185.0,390 180,385.0" class="qr-module" /><polygon points="205.0,380 210,385.0 205.0,390 200,385.0" class="qr-module" /><polygon points="215.0,380 220,385.0 215.0,390 210,385.0" class="qr-module" /><polygon points="265.0,380 270,385.0 265.0,390 260,385.0" class="qr-module" /><polygon points="285.0,380 290,385.0 285.0,390 280,385.0" class="qr-module" /><polygon points="305.0,380 310,385.0 305.0,390 300,385.0" class="qr-module" /><polygon points="315.0,380 320,385.0 315.0,390 310,385.0" class="qr-module" /><polygon points="325.0,380 330,385.0 325.0,390 320,385.0" class="qr-module" /><polygon points="355.0,380 360,385.0 355.0,390 350,385.0" class="qr-module" /><polygon points="385.0,380 390,385.0 385.0,390 380,385.0" class="qr-module" />
</g></svg>