<svg width="410" height="410" viewBox="0 0 410 410" xmlns="http://www.w3.org/2000/svg" xmlns:xlink="http://www.w3.org/1999/xlink" id="qr-code" class="interactive-qr">
<title>Interactive QR Code</title><desc>QR Code with 37x37 modules</desc>  <rect x="0" y="0" width="410" height="410" fill="#ffffff" class="qr-background" />
<style type="text/css">
&lt;![CDATA[

        .qr-background {
            pointer-events: none;
        }
        
        .qr-module {
            transition: all 0.2s ease;
        }
        
        .qr-finder {
            fill: currentColor;
        }
        
        .qr-finder-inner {
            fill: var(--qr-bg-color, white);
        }
        
        .qr-timing {
            fill: currentColor;
        }
        
        .qr-data {
            fill: currentColor;
        }
        
        .qr-alignment {
            fill: currentColor;
        }
        
        .qr-format {
            fill: currentColor;
        }
        
        .qr-cluster {
            fill: currentColor;
            stroke: none;
        }
        
        .qr-contour {
            fill: currentColor;
            stroke: none;
        }
        
]]&gt;
</style>
<g class="qr-modules" fill="#2563eb">
    <rect x="20" y="20" width="10" height="10" class="qr-module" />
  <rect x="30" y="20" width="10" height="10" class="qr-module" />
  <rect x="40" y="20" width="10" height="10" class="qr-module" />
  <rect x="50" y="20" width="10" height="10" class="qr-module" />
  <rect x="60" y="20" width="10" height="10" class="qr-module" />
  <rect x="70" y="20" width="10" height="10" class="qr-module" />
  <rect x="80" y="20" width="10" height="10" class="qr-module" />
  <circle cx="125.0" cy="25.0" r="4.5" class="qr-module" />
  <circle cx="165.0" cy="25.0" r="4.5" class="qr-module" />
  <circle cx="175.0" cy="25.0" r="4.5" class="qr-module" />
  <circle cx="225.0" cy="25.0" r="4.5" class="qr-module" />
  <circle cx="245.0" cy="25.0" r="4.5" class="qr-module" />
  <circle cx="255.0" cy="25.0" r="4.5" class="qr-module" />
  <circle cx="275.0" cy="25.0" r="4.5" class="qr-module" />
  <rect x="320" y="20" width="10" height="10" class="qr-module" />
  <rect x="330" y="20" width="10" height="10" class="qr-module" />
  <rect x="340" y="20" width="10" height="10" class="qr-module" />
  <rect x="350" y="20" width="10" height="10" class="qr-module" />
  <rect x="360" y="20" width="10" height="10" class="qr-module" />
  <rect x="370" y="20" width="10" height="10" class="qr-module" />
  <rect x="380" y="20" width="10" height="10" class="qr-module" />
  <rect x="20" y="30" width="10" height="10" class="qr-module" />
  <rect x="80" y="30" width="10" height="10" class="qr-module" />
  <rect x="100" y="30" width="10" height="10" class="qr-module" />
  <circle cx="165.0" cy="35.0" r="4.5" class="qr-module" />
  <circle cx="185.0" cy="35.0" r="4.5" class="qr-module" />
  <circle cx="205.0" cy="35.0" r="4.5" class="qr-module" />
  <circle cx="215.0" cy="35.0" r="4.5" class="qr-module" />
  <circle cx="225.0" cy="35.0" r="4.5" class="qr-module" />
  <circle cx="235.0" cy="35.0" r="4.5" class="qr-module" />
  <circle cx="245.0" cy="35.0" r="4.5" class="qr-module" />
  <circle cx="265.0" cy="35.0" r="4.5" class="qr-module" />
  <rect x="320" y="30" width="10" height="10" class="qr-module" />
  <rect x="380" y="30" width="10" height="10" class="qr-module" />
  <rect x="20" y="40" width="10" height="10" class="qr-module" />
  <rect x="40" y="40" width="10" height="10" class="qr-module" />
  <rect x="50" y="40" width="10" height="10" class="qr-module" />
  <rect x="60" y="40" width="10" height="10" class="qr-module" />
  <rect x="80" y="40" width="10" height="10" class="qr-module" />
  <rect x="100" y="40" width="10" height="10" class="qr-module" />
  <circle cx="125.0" cy="45.0" r="4.5" class="qr-module" />
  <circle cx="135.0" cy="45.0" r="4.5" class="qr-module" />
  <circle cx="165.0" cy="45.0" r="4.5" class="qr-module" />
  <circle cx="185.0" cy="45.0" r="4.5" class="qr-module" />
  <circle cx="215.0" cy="45.0" r="4.5" class="qr-module" />
  <circle cx="235.0" cy="45.0" r="4.5" class="qr-module" />
  <circle cx="245.0" cy="45.0" r="4.5" class="qr-module" />
  <circle cx="275.0" cy="45.0" r="4.5" class="qr-module" />
  <circle cx="285.0" cy="45.0" r="4.5" class="qr-module" />
  <circle cx="295.0" cy="45.0" r="4.5" class="qr-module" />
  <rect x="320" y="40" width="10" height="10" class="qr-module" />
  <rect x="340" y="40" width="10" height="10" class="qr-module" />
  <rect x="350" y="40" width="10" height="10" class="qr-module" />
  <rect x="360" y="40" width="10" height="10" class="qr-module" />
  <rect x="380" y="40" width="10" height="10" class="qr-module" />
  <rect x="20" y="50" width="10" height="10" class="qr-module" />
  <rect x="40" y="50" width="10" height="10" class="qr-module" />
  <rect x="50" y="50" width="10" height="10" class="qr-module" />
  <rect x="60" y="50" width="10" height="10" class="qr-module" />
  <rect x="80" y="50" width="10" height="10" class="qr-module" />
  <rect x="100" y="50" width="10" height="10" class="qr-module" />
  <circle cx="115.0" cy="55.0" r="4.5" class="qr-module" />
  <circle cx="165.0" cy="55.0" r="4.5" class="qr-module" />
  <circle cx="185.0" cy="55.0" r="4.5" class="qr-module" />
  <circle cx="195.0" cy="55.0" r="4.5" class="qr-module" />
  <circle cx="225.0" cy="55.0" r="4.5" class="qr-module" />
  <circle cx="235.0" cy="55.0" r="4.5" class="qr-module" />
  <circle cx="275.0" cy="55.0" r="4.5" class="qr-module" />
  <circle cx="285.0" cy="55.0" r="4.5" class="qr-module" />
  <rect x="320" y="50" width="10" height="10" class="qr-module" />
  <rect x="340" y="50" width="10" height="10" class="qr-module" />
  <rect x="350" y="50" width="10" height="10" class="qr-module" />
  <rect x="360" y="50" width="10" height="10" class="qr-module" />
  <rect x="380" y="50" width="10" height="10" class="qr-module" />
  <rect x="20" y="60" width="10" height="10" class="qr-module" />
  <rect x="40" y="60" width="10" height="10" class="qr-module" />
  <rect x="50" y="60" width="10" height="10" class="qr-module" />
  <rect x="60" y="60" width="10" height="10" class="qr-module" />
  <rect x="80" y="60" width="10" height="10" class="qr-module" />
  <rect x="100" y="60" width="10" height="10" class="qr-module" />
  <circle cx="135.0" cy="65.0" r="4.5" class="qr-module" />
  <circle cx="175.0" cy="65.0" r="4.5" class="qr-module" />
  <circle cx="185.0" cy="65.0" r="4.5" class="qr-module" />
  <circle cx="195.0" cy="65.0" r="4.5" class="qr-module" />
  <circle cx="215.0" cy="65.0" r="4.5" class="qr-module" />
  <circle cx="225.0" cy="65.0" r="4.5" class="qr-module" />
  <circle cx="235.0" cy="65.0" r="4.5" class="qr-module" />
  <circle cx="245.0" cy="65.0" r="4.5" class="qr-module" />
  <circle cx="265.0" cy="65.0" r="4.5" class="qr-module" />
  <circle cx="285.0" cy="65.0" r="4.5" class="qr-module" />
  <rect x="320" y="60" width="10" height="10" class="qr-module" />
  <rect x="340" y="60" width="10" height="10" class="qr-module" />
  <rect x="350" y="60" width="10" height="10" class="qr-module" />
  <rect x="360" y="60" width="10" height="10" class="qr-module" />
  <rect x="380" y="60" width="10" height="10" class="qr-module" />
  <rect x="20" y="70" width="10" height="10" class="qr-module" />
  <rect x="80" y="70" width="10" height="10" class="qr-module" />
  <rect x="100" y="70" width="10" height="10" class="qr-module" />
  <circle cx="125.0" cy="75.0" r="4.5" class="qr-module" />
  <circle cx="135.0" cy="75.0" r="4.5" class="qr-module" />
  <circle cx="145.0" cy="75.0" r="4.5" class="qr-module" />
  <circle cx="155.0" cy="75.0" r="4.5" class="qr-module" />
  <circle cx="185.0" cy="75.0" r="4.5" class="qr-module" />
  <circle cx="195.0" cy="75.0" r="4.5" class="qr-module" />
  <circle cx="205.0" cy="75.0" r="4.5" class="qr-module" />
  <circle cx="225.0" cy="75.0" r="4.5" class="qr-module" />
  <circle cx="235.0" cy="75.0" r="4.5" class="qr-module" />
  <circle cx="245.0" cy="75.0" r="4.5" class="qr-module" />
  <circle cx="255.0" cy="75.0" r="4.5" class="qr-module" />
  <circle cx="275.0" cy="75.0" r="4.5" class="qr-module" />
  <circle cx="285.0" cy="75.0" r="4.5" class="qr-module" />
  <circle cx="305.0" cy="75.0" r="4.5" class="qr-module" />
  <rect x="320" y="70" width="10" height="10" class="qr-module" />
  <rect x="380" y="70" width="10" height="10" class="qr-module" />
  <rect x="20" y="80" width="10" height="10" class="qr-module" />
  <rect x="30" y="80" width="10" height="10" class="qr-module" />
  <rect x="40" y="80" width="10" height="10" class="qr-module" />
  <rect x="50" y="80" width="10" height="10" class="qr-module" />
  <rect x="60" y="80" width="10" height="10" class="qr-module" />
  <rect x="70" y="80" width="10" height="10" class="qr-module" />
  <rect x="80" y="80" width="10" height="10" class="qr-module" />
  <rect x="100" y="80" width="10" height="10" class="qr-module" />
  <rect x="120" y="80" width="10" height="10" class="qr-module" />
  <rect x="140" y="80" width="10" height="10" class="qr-module" />
  <rect x="160" y="80" width="10" height="10" class="qr-module" />
  <rect x="180" y="80" width="10" height="10" class="qr-module" />
  <rect x="200" y="80" width="10" height="10" class="qr-module" />
  <rect x="220" y="80" width="10" height="10" class="qr-module" />
  <rect x="240" y="80" width="10" height="10" class="qr-module" />
  <rect x="260" y="80" width="10" height="10" class="qr-module" />
  <rect x="280" y="80" width="10" height="10" class="qr-module" />
  <rect x="300" y="80" width="10" height="10" class="qr-module" />
  <rect x="320" y="80" width="10" height="10" class="qr-module" />
  <rect x="330" y="80" width="10" height="10" class="qr-module" />
  <rect x="340" y="80" width="10" height="10" class="qr-module" />
  <rect x="350" y="80" width="10" height="10" class="qr-module" />
  <rect x="360" y="80" width="10" height="10" class="qr-module" />
  <rect x="370" y="80" width="10" height="10" class="qr-module" />
  <rect x="380" y="80" width="10" height="10" class="qr-module" />
  <circle cx="115.0" cy="95.0" r="4.5" class="qr-module" />
  <circle cx="135.0" cy="95.0" r="4.5" class="qr-module" />
  <circle cx="155.0" cy="95.0" r="4.5" class="qr-module" />
  <circle cx="165.0" cy="95.0" r="4.5" class="qr-module" />
  <circle cx="175.0" cy="95.0" r="4.5" class="qr-module" />
  <circle cx="185.0" cy="95.0" r="4.5" class="qr-module" />
  <circle cx="205.0" cy="95.0" r="4.5" class="qr-module" />
  <circle cx="215.0" cy="95.0" r="4.5" class="qr-module" />
  <circle cx="225.0" cy="95.0" r="4.5" class="qr-module" />
  <circle cx="235.0" cy="95.0" r="4.5" class="qr-module" />
  <circle cx="245.0" cy="95.0" r="4.5" class="qr-module" />
  <circle cx="255.0" cy="95.0" r="4.5" class="qr-module" />
  <circle cx="265.0" cy="95.0" r="4.5" class="qr-module" />
  <circle cx="275.0" cy="95.0" r="4.5" class="qr-module" />
  <circle cx="295.0" cy="95.0" r="4.5" class="qr-module" />
  <circle cx="305.0" cy="95.0" r="4.5" class="qr-module" />
  <rect x="40" y="100" width="10" height="10" class="qr-module" />
  <rect x="70" y="100" width="10" height="10" class="qr-module" />
  <rect x="80" y="100" width="10" height="10" class="qr-module" />
  <rect x="90" y="100" width="10" height="10" class="qr-module" />
  <rect x="100" y="100" width="10" height="10" class="qr-module" />
  <circle cx="115.0" cy="105.0" r="4.5" class="qr-module" />
  <circle cx="125.0" cy="105.0" r="4.5" class="qr-module" />
  <circle cx="135.0" cy="105.0" r="4.5" class="qr-module" />
  <circle cx="145.0" cy="105.0" r="4.5" class="qr-module" />
  <circle cx="155.0" cy="105.0" r="4.5" class="qr-module" />
  <circle cx="175.0" cy="105.0" r="4.5" class="qr-module" />
  <circle cx="185.0" cy="105.0" r="4.5" class="qr-module" />
  <circle cx="215.0" cy="105.0" r="4.5" class="qr-module" />
  <circle cx="235.0" cy="105.0" r="4.5" class="qr-module" />
  <circle cx="245.0" cy="105.0" r="4.5" class="qr-module" />
  <circle cx="265.0" cy="105.0" r="4.5" class="qr-module" />
  <circle cx="275.0" cy="105.0" r="4.5" class="qr-module" />
  <rect x="310" y="100" width="10" height="10" class="qr-module" />
  <rect x="330" y="100" width="10" height="10" class="qr-module" />
  <rect x="340" y="100" width="10" height="10" class="qr-module" />
  <rect x="350" y="100" width="10" height="10" class="qr-module" />
  <rect x="360" y="100" width="10" height="10" class="qr-module" />
  <rect x="370" y="100" width="10" height="10" class="qr-module" />
  <circle cx="25.0" cy="115.0" r="4.5" class="qr-module" />
  <circle cx="35.0" cy="115.0" r="4.5" class="qr-module" />
  <circle cx="45.0" cy="115.0" r="4.5" class="qr-module" />
  <circle cx="75.0" cy="115.0" r="4.5" class="qr-module" />
  <circle cx="95.0" cy="115.0" r="4.5" class="qr-module" />
  <circle cx="105.0" cy="115.0" r="4.5" class="qr-module" />
  <circle cx="115.0" cy="115.0" r="4.5" class="qr-module" />
  <circle cx="125.0" cy="115.0" r="4.5" class="qr-module" />
  <circle cx="145.0" cy="115.0" r="4.5" class="qr-module" />
  <circle cx="185.0" cy="115.0" r="4.5" class="qr-module" />
  <circle cx="225.0" cy="115.0" r="4.5" class="qr-module" />
  <circle cx="245.0" cy="115.0" r="4.5" class="qr-module" />
  <circle cx="255.0" cy="115.0" r="4.5" class="qr-module" />
  <circle cx="265.0" cy="115.0" r="4.5" class="qr-module" />
  <circle cx="335.0" cy="115.0" r="4.5" class="qr-module" />
  <circle cx="345.0" cy="115.0" r="4.5" class="qr-module" />
  <circle cx="355.0" cy="115.0" r="4.5" class="qr-module" />
  <circle cx="365.0" cy="115.0" r="4.5" class="qr-module" />
  <circle cx="385.0" cy="115.0" r="4.5" class="qr-module" />
  <circle cx="35.0" cy="125.0" r="4.5" class="qr-module" />
  <circle cx="45.0" cy="125.0" r="4.5" class="qr-module" />
  <circle cx="65.0" cy="125.0" r="4.5" class="qr-module" />
  <circle cx="75.0" cy="125.0" r="4.5" class="qr-module" />
  <rect x="80" y="120" width="10" height="10" class="qr-module" />
  <circle cx="95.0" cy="125.0" r="4.5" class="qr-module" />
  <circle cx="105.0" cy="125.0" r="4.5" class="qr-module" />
  <circle cx="115.0" cy="125.0" r="4.5" class="qr-module" />
  <circle cx="125.0" cy="125.0" r="4.5" class="qr-module" />
  <circle cx="145.0" cy="125.0" r="4.5" class="qr-module" />
  <circle cx="215.0" cy="125.0" r="4.5" class="qr-module" />
  <circle cx="245.0" cy="125.0" r="4.5" class="qr-module" />
  <circle cx="255.0" cy="125.0" r="4.5" class="qr-module" />
  <circle cx="275.0" cy="125.0" r="4.5" class="qr-module" />
  <circle cx="295.0" cy="125.0" r="4.5" class="qr-module" />
  <circle cx="325.0" cy="125.0" r="4.5" class="qr-module" />
  <circle cx="335.0" cy="125.0" r="4.5" class="qr-module" />
  <circle cx="375.0" cy="125.0" r="4.5" class="qr-module" />
  <circle cx="385.0" cy="125.0" r="4.5" class="qr-module" />
  <circle cx="25.0" cy="135.0" r="4.5" class="qr-module" />
  <circle cx="55.0" cy="135.0" r="4.5" class="qr-module" />
  <circle cx="125.0" cy="135.0" r="4.5" class="qr-module" />
  <circle cx="145.0" cy="135.0" r="4.5" class="qr-module" />
  <circle cx="185.0" cy="135.0" r="4.5" class="qr-module" />
  <circle cx="205.0" cy="135.0" r="4.5" class="qr-module" />
  <circle cx="225.0" cy="135.0" r="4.5" class="qr-module" />
  <circle cx="235.0" cy="135.0" r="4.5" class="qr-module" />
  <circle cx="245.0" cy="135.0" r="4.5" class="qr-module" />
  <circle cx="255.0" cy="135.0" r="4.5" class="qr-module" />
  <circle cx="265.0" cy="135.0" r="4.5" class="qr-module" />
  <circle cx="315.0" cy="135.0" r="4.5" class="qr-module" />
  <circle cx="335.0" cy="135.0" r="4.5" class="qr-module" />
  <circle cx="345.0" cy="135.0" r="4.5" class="qr-module" />
  <circle cx="355.0" cy="135.0" r="4.5" class="qr-module" />
  <circle cx="385.0" cy="135.0" r="4.5" class="qr-module" />
  <circle cx="45.0" cy="145.0" r="4.5" class="qr-module" />
  <circle cx="65.0" cy="145.0" r="4.5" class="qr-module" />
  <circle cx="75.0" cy="145.0" r="4.5" class="qr-module" />
  <rect x="80" y="140" width="10" height="10" class="qr-module" />
  <circle cx="125.0" cy="145.0" r="4.5" class="qr-module" />
  <circle cx="145.0" cy="145.0" r="4.5" class="qr-module" />
  <circle cx="155.0" cy="145.0" r="4.5" class="qr-module" />
  <circle cx="205.0" cy="145.0" r="4.5" class="qr-module" />
  <circle cx="215.0" cy="145.0" r="4.5" class="qr-module" />
  <circle cx="225.0" cy="145.0" r="4.5" class="qr-module" />
  <circle cx="295.0" cy="145.0" r="4.5" class="qr-module" />
  <circle cx="315.0" cy="145.0" r="4.5" class="qr-module" />
  <circle cx="325.0" cy="145.0" r="4.5" class="qr-module" />
  <circle cx="355.0" cy="145.0" r="4.5" class="qr-module" />
  <circle cx="375.0" cy="145.0" r="4.5" class="qr-module" />
  <circle cx="35.0" cy="155.0" r="4.5" class="qr-module" />
  <circle cx="55.0" cy="155.0" r="4.5" class="qr-module" />
  <circle cx="95.0" cy="155.0" r="4.5" class="qr-module" />
  <circle cx="105.0" cy="155.0" r="4.5" class="qr-module" />
  <circle cx="115.0" cy="155.0" r="4.5" class="qr-module" />
  <circle cx="125.0" cy="155.0" r="4.5" class="qr-module" />
  <circle cx="165.0" cy="155.0" r="4.5" class="qr-module" />
  <circle cx="195.0" cy="155.0" r="4.5" class="qr-module" />
  <circle cx="265.0" cy="155.0" r="4.5" class="qr-module" />
  <circle cx="295.0" cy="155.0" r="4.5" class="qr-module" />
  <circle cx="305.0" cy="155.0" r="4.5" class="qr-module" />
  <circle cx="325.0" cy="155.0" r="4.5" class="qr-module" />
  <circle cx="335.0" cy="155.0" r="4.5" class="qr-module" />
  <circle cx="385.0" cy="155.0" r="4.5" class="qr-module" />
  <circle cx="35.0" cy="165.0" r="4.5" class="qr-module" />
  <circle cx="75.0" cy="165.0" r="4.5" class="qr-module" />
  <rect x="80" y="160" width="10" height="10" class="qr-module" />
  <circle cx="145.0" cy="165.0" r="4.5" class="qr-module" />
  <circle cx="165.0" cy="165.0" r="4.5" class="qr-module" />
  <circle cx="175.0" cy="165.0" r="4.5" class="qr-module" />
  <circle cx="185.0" cy="165.0" r="4.5" class="qr-module" />
  <circle cx="195.0" cy="165.0" r="4.5" class="qr-module" />
  <circle cx="215.0" cy="165.0" r="4.5" class="qr-module" />
  <circle cx="225.0" cy="165.0" r="4.5" class="qr-module" />
  <circle cx="235.0" cy="165.0" r="4.5" class="qr-module" />
  <circle cx="255.0" cy="165.0" r="4.5" class="qr-module" />
  <circle cx="265.0" cy="165.0" r="4.5" class="qr-module" />
  <circle cx="275.0" cy="165.0" r="4.5" class="qr-module" />
  <circle cx="295.0" cy="165.0" r="4.5" class="qr-module" />
  <circle cx="315.0" cy="165.0" r="4.5" class="qr-module" />
  <circle cx="345.0" cy="165.0" r="4.5" class="qr-module" />
  <circle cx="385.0" cy="165.0" r="4.5" class="qr-module" />
  <circle cx="35.0" cy="175.0" r="4.5" class="qr-module" />
  <circle cx="65.0" cy="175.0" r="4.5" class="qr-module" />
  <circle cx="75.0" cy="175.0" r="4.5" class="qr-module" />
  <circle cx="135.0" cy="175.0" r="4.5" class="qr-module" />
  <circle cx="145.0" cy="175.0" r="4.5" class="qr-module" />
  <circle cx="165.0" cy="175.0" r="4.5" class="qr-module" />
  <circle cx="185.0" cy="175.0" r="4.5" class="qr-module" />
  <circle cx="205.0" cy="175.0" r="4.5" class="qr-module" />
  <circle cx="215.0" cy="175.0" r="4.5" class="qr-module" />
  <circle cx="225.0" cy="175.0" r="4.5" class="qr-module" />
  <circle cx="235.0" cy="175.0" r="4.5" class="qr-module" />
  <circle cx="245.0" cy="175.0" r="4.5" class="qr-module" />
  <circle cx="265.0" cy="175.0" r="4.5" class="qr-module" />
  <circle cx="305.0" cy="175.0" r="4.5" class="qr-module" />
  <circle cx="325.0" cy="175.0" r="4.5" class="qr-module" />
  <circle cx="335.0" cy="175.0" r="4.5" class="qr-module" />
  <circle cx="355.0" cy="175.0" r="4.5" class="qr-module" />
  <circle cx="25.0" cy="185.0" r="4.5" class="qr-module" />
  <circle cx="35.0" cy="185.0" r="4.5" class="qr-module" />
  <circle cx="65.0" cy="185.0" r="4.5" class="qr-module" />
  <rect x="80" y="180" width="10" height="10" class="qr-module" />
  <circle cx="95.0" cy="185.0" r="4.5" class="qr-module" />
  <circle cx="115.0" cy="185.0" r="4.5" class="qr-module" />
  <circle cx="125.0" cy="185.0" r="4.5" class="qr-module" />
  <circle cx="155.0" cy="185.0" r="4.5" class="qr-module" />
  <circle cx="165.0" cy="185.0" r="4.5" class="qr-module" />
  <circle cx="175.0" cy="185.0" r="4.5" class="qr-module" />
  <circle cx="205.0" cy="185.0" r="4.5" class="qr-module" />
  <circle cx="215.0" cy="185.0" r="4.5" class="qr-module" />
  <circle cx="245.0" cy="185.0" r="4.5" class="qr-module" />
  <circle cx="255.0" cy="185.0" r="4.5" class="qr-module" />
  <circle cx="315.0" cy="185.0" r="4.5" class="qr-module" />
  <circle cx="325.0" cy="185.0" r="4.5" class="qr-module" />
  <circle cx="355.0" cy="185.0" r="4.5" class="qr-module" />
  <circle cx="385.0" cy="185.0" r="4.5" class="qr-module" />
  <circle cx="25.0" cy="195.0" r="4.5" class="qr-module" />
  <circle cx="45.0" cy="195.0" r="4.5" class="qr-module" />
  <circle cx="55.0" cy="195.0" r="4.5" class="qr-module" />
  <circle cx="65.0" cy="195.0" r="4.5" class="qr-module" />
  <circle cx="75.0" cy="195.0" r="4.5" class="qr-module" />
  <circle cx="95.0" cy="195.0" r="4.5" class="qr-module" />
  <circle cx="115.0" cy="195.0" r="4.5" class="qr-module" />
  <circle cx="135.0" cy="195.0" r="4.5" class="qr-module" />
  <circle cx="165.0" cy="195.0" r="4.5" class="qr-module" />
  <circle cx="175.0" cy="195.0" r="4.5" class="qr-module" />
  <circle cx="185.0" cy="195.0" r="4.5" class="qr-module" />
  <circle cx="275.0" cy="195.0" r="4.5" class="qr-module" />
  <circle cx="285.0" cy="195.0" r="4.5" class="qr-module" />
  <circle cx="295.0" cy="195.0" r="4.5" class="qr-module" />
  <circle cx="305.0" cy="195.0" r="4.5" class="qr-module" />
  <circle cx="325.0" cy="195.0" r="4.5" class="qr-module" />
  <circle cx="355.0" cy="195.0" r="4.5" class="qr-module" />
  <circle cx="375.0" cy="195.0" r="4.5" class="qr-module" />
  <circle cx="65.0" cy="205.0" r="4.5" class="qr-module" />
  <rect x="80" y="200" width="10" height="10" class="qr-module" />
  <circle cx="95.0" cy="205.0" r="4.5" class="qr-module" />
  <circle cx="105.0" cy="205.0" r="4.5" class="qr-module" />
  <circle cx="115.0" cy="205.0" r="4.5" class="qr-module" />
  <circle cx="125.0" cy="205.0" r="4.5" class="qr-module" />
  <circle cx="135.0" cy="205.0" r="4.5" class="qr-module" />
  <circle cx="175.0" cy="205.0" r="4.5" class="qr-module" />
  <circle cx="185.0" cy="205.0" r="4.5" class="qr-module" />
  <circle cx="215.0" cy="205.0" r="4.5" class="qr-module" />
  <circle cx="255.0" cy="205.0" r="4.5" class="qr-module" />
  <circle cx="265.0" cy="205.0" r="4.5" class="qr-module" />
  <circle cx="275.0" cy="205.0" r="4.5" class="qr-module" />
  <circle cx="295.0" cy="205.0" r="4.5" class="qr-module" />
  <circle cx="305.0" cy="205.0" r="4.5" class="qr-module" />
  <circle cx="315.0" cy="205.0" r="4.5" class="qr-module" />
  <circle cx="365.0" cy="205.0" r="4.5" class="qr-module" />
  <circle cx="385.0" cy="205.0" r="4.5" class="qr-module" />
  <circle cx="35.0" cy="215.0" r="4.5" class="qr-module" />
  <circle cx="55.0" cy="215.0" r="4.5" class="qr-module" />
  <circle cx="105.0" cy="215.0" r="4.5" class="qr-module" />
  <circle cx="125.0" cy="215.0" r="4.5" class="qr-module" />
  <circle cx="175.0" cy="215.0" r="4.5" class="qr-module" />
  <circle cx="235.0" cy="215.0" r="4.5" class="qr-module" />
  <circle cx="245.0" cy="215.0" r="4.5" class="qr-module" />
  <circle cx="255.0" cy="215.0" r="4.5" class="qr-module" />
  <circle cx="265.0" cy="215.0" r="4.5" class="qr-module" />
  <circle cx="335.0" cy="215.0" r="4.5" class="qr-module" />
  <circle cx="345.0" cy="215.0" r="4.5" class="qr-module" />
  <circle cx="355.0" cy="215.0" r="4.5" class="qr-module" />
  <circle cx="375.0" cy="215.0" r="4.5" class="qr-module" />
  <circle cx="385.0" cy="215.0" r="4.5" class="qr-module" />
  <circle cx="35.0" cy="225.0" r="4.5" class="qr-module" />
  <circle cx="55.0" cy="225.0" r="4.5" class="qr-module" />
  <rect x="80" y="220" width="10" height="10" class="qr-module" />
  <circle cx="105.0" cy="225.0" r="4.5" class="qr-module" />
  <circle cx="125.0" cy="225.0" r="4.5" class="qr-module" />
  <circle cx="155.0" cy="225.0" r="4.5" class="qr-module" />
  <circle cx="165.0" cy="225.0" r="4.5" class="qr-module" />
  <circle cx="205.0" cy="225.0" r="4.5" class="qr-module" />
  <circle cx="215.0" cy="225.0" r="4.5" class="qr-module" />
  <circle cx="225.0" cy="225.0" r="4.5" class="qr-module" />
  <circle cx="255.0" cy="225.0" r="4.5" class="qr-module" />
  <circle cx="265.0" cy="225.0" r="4.5" class="qr-module" />
  <circle cx="305.0" cy="225.0" r="4.5" class="qr-module" />
  <circle cx="325.0" cy="225.0" r="4.5" class="qr-module" />
  <circle cx="335.0" cy="225.0" r="4.5" class="qr-module" />
  <circle cx="355.0" cy="225.0" r="4.5" class="qr-module" />
  <circle cx="375.0" cy="225.0" r="4.5" class="qr-module" />
  <circle cx="385.0" cy="225.0" r="4.5" class="qr-module" />
  <circle cx="25.0" cy="235.0" r="4.5" class="qr-module" />
  <circle cx="35.0" cy="235.0" r="4.5" class="qr-module" />
  <circle cx="65.0" cy="235.0" r="4.5" class="qr-module" />
  <circle cx="75.0" cy="235.0" r="4.5" class="qr-module" />
  <circle cx="95.0" cy="235.0" r="4.5" class="qr-module" />
  <circle cx="105.0" cy="235.0" r="4.5" class="qr-module" />
  <circle cx="125.0" cy="235.0" r="4.5" class="qr-module" />
  <circle cx="195.0" cy="235.0" r="4.5" class="qr-module" />
  <circle cx="225.0" cy="235.0" r="4.5" class="qr-module" />
  <circle cx="235.0" cy="235.0" r="4.5" class="qr-module" />
  <circle cx="295.0" cy="235.0" r="4.5" class="qr-module" />
  <circle cx="305.0" cy="235.0" r="4.5" class="qr-module" />
  <circle cx="325.0" cy="235.0" r="4.5" class="qr-module" />
  <circle cx="335.0" cy="235.0" r="4.5" class="qr-module" />
  <circle cx="355.0" cy="235.0" r="4.5" class="qr-module" />
  <circle cx="365.0" cy="235.0" r="4.5" class="qr-module" />
  <circle cx="385.0" cy="235.0" r="4.5" class="qr-module" />
  <circle cx="35.0" cy="245.0" r="4.5" class="qr-module" />
  <circle cx="75.0" cy="245.0" r="4.5" class="qr-module" />
  <rect x="80" y="240" width="10" height="10" class="qr-module" />
  <circle cx="95.0" cy="245.0" r="4.5" class="qr-module" />
  <circle cx="105.0" cy="245.0" r="4.5" class="qr-module" />
  <circle cx="125.0" cy="245.0" r="4.5" class="qr-module" />
  <circle cx="135.0" cy="245.0" r="4.5" class="qr-module" />
  <circle cx="175.0" cy="245.0" r="4.5" class="qr-module" />
  <circle cx="225.0" cy="245.0" r="4.5" class="qr-module" />
  <circle cx="275.0" cy="245.0" r="4.5" class="qr-module" />
  <circle cx="285.0" cy="245.0" r="4.5" class="qr-module" />
  <circle cx="295.0" cy="245.0" r="4.5" class="qr-module" />
  <circle cx="315.0" cy="245.0" r="4.5" class="qr-module" />
  <circle cx="325.0" cy="245.0" r="4.5" class="qr-module" />
  <circle cx="335.0" cy="245.0" r="4.5" class="qr-module" />
  <circle cx="385.0" cy="245.0" r="4.5" class="qr-module" />
  <circle cx="35.0" cy="255.0" r="4.5" class="qr-module" />
  <circle cx="45.0" cy="255.0" r="4.5" class="qr-module" />
  <circle cx="55.0" cy="255.0" r="4.5" class="qr-module" />
  <circle cx="75.0" cy="255.0" r="4.5" class="qr-module" />
  <circle cx="125.0" cy="255.0" r="4.5" class="qr-module" />
  <circle cx="155.0" cy="255.0" r="4.5" class="qr-module" />
  <circle cx="175.0" cy="255.0" r="4.5" class="qr-module" />
  <circle cx="215.0" cy="255.0" r="4.5" class="qr-module" />
  <circle cx="235.0" cy="255.0" r="4.5" class="qr-module" />
  <circle cx="255.0" cy="255.0" r="4.5" class="qr-module" />
  <circle cx="265.0" cy="255.0" r="4.5" class="qr-module" />
  <circle cx="285.0" cy="255.0" r="4.5" class="qr-module" />
  <circle cx="305.0" cy="255.0" r="4.5" class="qr-module" />
  <circle cx="315.0" cy="255.0" r="4.5" class="qr-module" />
  <circle cx="335.0" cy="255.0" r="4.5" class="qr-module" />
  <circle cx="375.0" cy="255.0" r="4.5" class="qr-module" />
  <circle cx="385.0" cy="255.0" r="4.5" class="qr-module" />
  <circle cx="45.0" cy="265.0" r="4.5" class="qr-module" />
  <circle cx="55.0" cy="265.0" r="4.5" class="qr-module" />
  <circle cx="75.0" cy="265.0" r="4.5" class="qr-module" />
  <rect x="80" y="260" width="10" height="10" class="qr-module" />
  <circle cx="95.0" cy="265.0" r="4.5" class="qr-module" />
  <circle cx="115.0" cy="265.0" r="4.5" class="qr-module" />
  <circle cx="135.0" cy="265.0" r="4.5" class="qr-module" />
  <circle cx="145.0" cy="265.0" r="4.5" class="qr-module" />
  <circle cx="155.0" cy="265.0" r="4.5" class="qr-module" />
  <circle cx="165.0" cy="265.0" r="4.5" class="qr-module" />
  <circle cx="205.0" cy="265.0" r="4.5" class="qr-module" />
  <circle cx="215.0" cy="265.0" r="4.5" class="qr-module" />
  <circle cx="225.0" cy="265.0" r="4.5" class="qr-module" />
  <circle cx="235.0" cy="265.0" r="4.5" class="qr-module" />
  <circle cx="245.0" cy="265.0" r="4.5" class="qr-module" />
  <circle cx="255.0" cy="265.0" r="4.5" class="qr-module" />
  <circle cx="275.0" cy="265.0" r="4.5" class="qr-module" />
  <circle cx="285.0" cy="265.0" r="4.5" class="qr-module" />
  <circle cx="305.0" cy="265.0" r="4.5" class="qr-module" />
  <circle cx="315.0" cy="265.0" r="4.5" class="qr-module" />
  <circle cx="325.0" cy="265.0" r="4.5" class="qr-module" />
  <circle cx="335.0" cy="265.0" r="4.5" class="qr-module" />
  <circle cx="345.0" cy="265.0" r="4.5" class="qr-module" />
  <circle cx="355.0" cy="265.0" r="4.5" class="qr-module" />
  <circle cx="375.0" cy="265.0" r="4.5" class="qr-module" />
  <circle cx="385.0" cy="265.0" r="4.5" class="qr-module" />
  <circle cx="45.0" cy="275.0" r="4.5" class="qr-module" />
  <circle cx="55.0" cy="275.0" r="4.5" class="qr-module" />
  <circle cx="65.0" cy="275.0" r="4.5" class="qr-module" />
  <circle cx="75.0" cy="275.0" r="4.5" class="qr-module" />
  <circle cx="95.0" cy="275.0" r="4.5" class="qr-module" />
  <circle cx="115.0" cy="275.0" r="4.5" class="qr-module" />
  <circle cx="125.0" cy="275.0" r="4.5" class="qr-module" />
  <circle cx="135.0" cy="275.0" r="4.5" class="qr-module" />
  <circle cx="165.0" cy="275.0" r="4.5" class="qr-module" />
  <circle cx="195.0" cy="275.0" r="4.5" class="qr-module" />
  <circle cx="215.0" cy="275.0" r="4.5" class="qr-module" />
  <circle cx="225.0" cy="275.0" r="4.5" class="qr-module" />
  <circle cx="235.0" cy="275.0" r="4.5" class="qr-module" />
  <circle cx="285.0" cy="275.0" r="4.5" class="qr-module" />
  <circle cx="305.0" cy="275.0" r="4.5" class="qr-module" />
  <circle cx="315.0" cy="275.0" r="4.5" class="qr-module" />
  <circle cx="355.0" cy="275.0" r="4.5" class="qr-module" />
  <circle cx="365.0" cy="275.0" r="4.5" class="qr-module" />
  <circle cx="375.0" cy="275.0" r="4.5" class="qr-module" />
  <circle cx="385.0" cy="275.0" r="4.5" class="qr-module" />
  <circle cx="25.0" cy="285.0" r="4.5" class="qr-module" />
  <circle cx="35.0" cy="285.0" r="4.5" class="qr-module" />
  <circle cx="45.0" cy="285.0" r="4.5" class="qr-module" />
  <circle cx="65.0" cy="285.0" r="4.5" class="qr-module" />
  <rect x="80" y="280" width="10" height="10" class="qr-module" />
  <circle cx="125.0" cy="285.0" r="4.5" class="qr-module" />
  <circle cx="155.0" cy="285.0" r="4.5" class="qr-module" />
  <circle cx="165.0" cy="285.0" r="4.5" class="qr-module" />
  <circle cx="185.0" cy="285.0" r="4.5" class="qr-module" />
  <circle cx="195.0" cy="285.0" r="4.5" class="qr-module" />
  <circle cx="215.0" cy="285.0" r="4.5" class="qr-module" />
  <circle cx="225.0" cy="285.0" r="4.5" class="qr-module" />
  <circle cx="235.0" cy="285.0" r="4.5" class="qr-module" />
  <circle cx="245.0" cy="285.0" r="4.5" class="qr-module" />
  <circle cx="255.0" cy="285.0" r="4.5" class="qr-module" />
  <circle cx="275.0" cy="285.0" r="4.5" class="qr-module" />
  <circle cx="305.0" cy="285.0" r="4.5" class="qr-module" />
  <circle cx="315.0" cy="285.0" r="4.5" class="qr-module" />
  <circle cx="325.0" cy="285.0" r="4.5" class="qr-module" />
  <circle cx="335.0" cy="285.0" r="4.5" class="qr-module" />
  <circle cx="345.0" cy="285.0" r="4.5" class="qr-module" />
  <circle cx="365.0" cy="285.0" r="4.5" class="qr-module" />
  <circle cx="375.0" cy="285.0" r="4.5" class="qr-module" />
  <circle cx="385.0" cy="285.0" r="4.5" class="qr-module" />
  <circle cx="65.0" cy="295.0" r="4.5" class="qr-module" />
  <circle cx="95.0" cy="295.0" r="4.5" class="qr-module" />
  <circle cx="105.0" cy="295.0" r="4.5" class="qr-module" />
  <circle cx="115.0" cy="295.0" r="4.5" class="qr-module" />
  <circle cx="125.0" cy="295.0" r="4.5" class="qr-module" />
  <circle cx="135.0" cy="295.0" r="4.5" class="qr-module" />
  <circle cx="155.0" cy="295.0" r="4.5" class="qr-module" />
  <circle cx="165.0" cy="295.0" r="4.5" class="qr-module" />
  <circle cx="175.0" cy="295.0" r="4.5" class="qr-module" />
  <circle cx="205.0" cy="295.0" r="4.5" class="qr-module" />
  <circle cx="215.0" cy="295.0" r="4.5" class="qr-module" />
  <circle cx="225.0" cy="295.0" r="4.5" class="qr-module" />
  <circle cx="245.0" cy="295.0" r="4.5" class="qr-module" />
  <circle cx="285.0" cy="295.0" r="4.5" class="qr-module" />
  <circle cx="295.0" cy="295.0" r="4.5" class="qr-module" />
  <circle cx="305.0" cy="295.0" r="4.5" class="qr-module" />
  <circle cx="375.0" cy="295.0" r="4.5" class="qr-module" />
  <circle cx="385.0" cy="295.0" r="4.5" class="qr-module" />
  <circle cx="25.0" cy="305.0" r="4.5" class="qr-module" />
  <circle cx="35.0" cy="305.0" r="4.5" class="qr-module" />
  <circle cx="45.0" cy="305.0" r="4.5" class="qr-module" />
  <circle cx="55.0" cy="305.0" r="4.5" class="qr-module" />
  <rect x="80" y="300" width="10" height="10" class="qr-module" />
  <circle cx="105.0" cy="305.0" r="4.5" class="qr-module" />
  <circle cx="115.0" cy="305.0" r="4.5" class="qr-module" />
  <circle cx="135.0" cy="305.0" r="4.5" class="qr-module" />
  <circle cx="155.0" cy="305.0" r="4.5" class="qr-module" />
  <circle cx="175.0" cy="305.0" r="4.5" class="qr-module" />
  <circle cx="185.0" cy="305.0" r="4.5" class="qr-module" />
  <circle cx="225.0" cy="305.0" r="4.5" class="qr-module" />
  <circle cx="235.0" cy="305.0" r="4.5" class="qr-module" />
  <circle cx="255.0" cy="305.0" r="4.5" class="qr-module" />
  <circle cx="265.0" cy="305.0" r="4.5" class="qr-module" />
  <circle cx="285.0" cy="305.0" r="4.5" class="qr-module" />
  <rect x="300" y="300" width="10" height="10" class="qr-module" />
  <rect x="310" y="300" width="10" height="10" class="qr-module" />
  <rect x="320" y="300" width="10" height="10" class="qr-module" />
  <rect x="330" y="300" width="10" height="10" class="qr-module" />
  <rect x="340" y="300" width="10" height="10" class="qr-module" />
  <circle cx="355.0" cy="305.0" r="4.5" class="qr-module" />
  <circle cx="365.0" cy="305.0" r="4.5" class="qr-module" />
  <circle cx="375.0" cy="305.0" r="4.5" class="qr-module" />
  <circle cx="385.0" cy="305.0" r="4.5" class="qr-module" />
  <rect x="100" y="310" width="10" height="10" class="qr-module" />
  <circle cx="125.0" cy="315.0" r="4.5" class="qr-module" />
  <circle cx="145.0" cy="315.0" r="4.5" class="qr-module" />
  <circle cx="165.0" cy="315.0" r="4.5" class="qr-module" />
  <circle cx="185.0" cy="315.0" r="4.5" class="qr-module" />
  <circle cx="205.0" cy="315.0" r="4.5" class="qr-module" />
  <circle cx="215.0" cy="315.0" r="4.5" class="qr-module" />
  <circle cx="255.0" cy="315.0" r="4.5" class="qr-module" />
  <circle cx="265.0" cy="315.0" r="4.5" class="qr-module" />
  <rect x="300" y="310" width="10" height="10" class="qr-module" />
  <rect x="340" y="310" width="10" height="10" class="qr-module" />
  <rect x="20" y="320" width="10" height="10" class="qr-module" />
  <rect x="30" y="320" width="10" height="10" class="qr-module" />
  <rect x="40" y="320" width="10" height="10" class="qr-module" />
  <rect x="50" y="320" width="10" height="10" class="qr-module" />
  <rect x="60" y="320" width="10" height="10" class="qr-module" />
  <rect x="70" y="320" width="10" height="10" class="qr-module" />
  <rect x="80" y="320" width="10" height="10" class="qr-module" />
  <rect x="100" y="320" width="10" height="10" class="qr-module" />
  <circle cx="115.0" cy="325.0" r="4.5" class="qr-module" />
  <circle cx="135.0" cy="325.0" r="4.5" class="qr-module" />
  <circle cx="145.0" cy="325.0" r="4.5" class="qr-module" />
  <circle cx="165.0" cy="325.0" r="4.5" class="qr-module" />
  <circle cx="205.0" cy="325.0" r="4.5" class="qr-module" />
  <circle cx="225.0" cy="325.0" r="4.5" class="qr-module" />
  <circle cx="235.0" cy="325.0" r="4.5" class="qr-module" />
  <circle cx="245.0" cy="325.0" r="4.5" class="qr-module" />
  <circle cx="255.0" cy="325.0" r="4.5" class="qr-module" />
  <circle cx="265.0" cy="325.0" r="4.5" class="qr-module" />
  <circle cx="275.0" cy="325.0" r="4.5" class="qr-module" />
  <circle cx="285.0" cy="325.0" r="4.5" class="qr-module" />
  <rect x="300" y="320" width="10" height="10" class="qr-module" />
  <circle cx="325.0" cy="325.0" r="4.5" class="qr-module" />
  <rect x="340" y="320" width="10" height="10" class="qr-module" />
  <circle cx="365.0" cy="325.0" r="4.5" class="qr-module" />
  <circle cx="385.0" cy="325.0" r="4.5" class="qr-module" />
  <rect x="20" y="330" width="10" height="10" class="qr-module" />
  <rect x="80" y="330" width="10" height="10" class="qr-module" />
  <rect x="100" y="330" width="10" height="10" class="qr-module" />
  <circle cx="125.0" cy="335.0" r="4.5" class="qr-module" />
  <circle cx="135.0" cy="335.0" r="4.5" class="qr-module" />
  <circle cx="145.0" cy="335.0" r="4.5" class="qr-module" />
  <circle cx="175.0" cy="335.0" r="4.5" class="qr-module" />
  <circle cx="185.0" cy="335.0" r="4.5" class="qr-module" />
  <circle cx="215.0" cy="335.0" r="4.5" class="qr-module" />
  <circle cx="245.0" cy="335.0" r="4.5" class="qr-module" />
  <circle cx="255.0" cy="335.0" r="4.5" class="qr-module" />
  <circle cx="265.0" cy="335.0" r="4.5" class="qr-module" />
  <circle cx="295.0" cy="335.0" r="4.5" class="qr-module" />
  <rect x="300" y="330" width="10" height="10" class="qr-module" />
  <rect x="340" y="330" width="10" height="10" class="qr-module" />
  <circle cx="355.0" cy="335.0" r="4.5" class="qr-module" />
  <rect x="20" y="340" width="10" height="10" class="qr-module" />
  <rect x="40" y="340" width="10" height="10" class="qr-module" />
  <rect x="50" y="340" width="10" height="10" class="qr-module" />
  <rect x="60" y="340" width="10" height="10" class="qr-module" />
  <rect x="80" y="340" width="10" height="10" class="qr-module" />
  <circle cx="115.0" cy="345.0" r="4.5" class="qr-module" />
  <circle cx="125.0" cy="345.0" r="4.5" class="qr-module" />
  <circle cx="145.0" cy="345.0" r="4.5" class="qr-module" />
  <circle cx="175.0" cy="345.0" r="4.5" class="qr-module" />
  <circle cx="215.0" cy="345.0" r="4.5" class="qr-module" />
  <circle cx="225.0" cy="345.0" r="4.5" class="qr-module" />
  <circle cx="235.0" cy="345.0" r="4.5" class="qr-module" />
  <circle cx="265.0" cy="345.0" r="4.5" class="qr-module" />
  <circle cx="295.0" cy="345.0" r="4.5" class="qr-module" />
  <rect x="300" y="340" width="10" height="10" class="qr-module" />
  <rect x="310" y="340" width="10" height="10" class="qr-module" />
  <rect x="320" y="340" width="10" height="10" class="qr-module" />
  <rect x="330" y="340" width="10" height="10" class="qr-module" />
  <rect x="340" y="340" width="10" height="10" class="qr-module" />
  <circle cx="355.0" cy="345.0" r="4.5" class="qr-module" />
  <circle cx="375.0" cy="345.0" r="4.5" class="qr-module" />
  <circle cx="385.0" cy="345.0" r="4.5" class="qr-module" />
  <rect x="20" y="350" width="10" height="10" class="qr-module" />
  <rect x="40" y="350" width="10" height="10" class="qr-module" />
  <rect x="50" y="350" width="10" height="10" class="qr-module" />
  <rect x="60" y="350" width="10" height="10" class="qr-module" />
  <rect x="80" y="350" width="10" height="10" class="qr-module" />
  <circle cx="135.0" cy="355.0" r="4.5" class="qr-module" />
  <circle cx="145.0" cy="355.0" r="4.5" class="qr-module" />
  <circle cx="155.0" cy="355.0" r="4.5" class="qr-module" />
  <circle cx="165.0" cy="355.0" r="4.5" class="qr-module" />
  <circle cx="175.0" cy="355.0" r="4.5" class="qr-module" />
  <circle cx="185.0" cy="355.0" r="4.5" class="qr-module" />
  <circle cx="205.0" cy="355.0" r="4.5" class="qr-module" />
  <circle cx="215.0" cy="355.0" r="4.5" class="qr-module" />
  <circle cx="225.0" cy="355.0" r="4.5" class="qr-module" />
  <circle cx="245.0" cy="355.0" r="4.5" class="qr-module" />
  <circle cx="265.0" cy="355.0" r="4.5" class="qr-module" />
  <circle cx="285.0" cy="355.0" r="4.5" class="qr-module" />
  <circle cx="295.0" cy="355.0" r="4.5" class="qr-module" />
  <circle cx="315.0" cy="355.0" r="4.5" class="qr-module" />
  <circle cx="345.0" cy="355.0" r="4.5" class="qr-module" />
  <circle cx="355.0" cy="355.0" r="4.5" class="qr-module" />
  <circle cx="365.0" cy="355.0" r="4.5" class="qr-module" />
  <circle cx="385.0" cy="355.0" r="4.5" class="qr-module" />
  <rect x="20" y="360" width="10" height="10" class="qr-module" />
  <rect x="40" y="360" width="10" height="10" class="qr-module" />
  <rect x="50" y="360" width="10" height="10" class="qr-module" />
  <rect x="60" y="360" width="10" height="10" class="qr-module" />
  <rect x="80" y="360" width="10" height="10" class="qr-module" />
  <rect x="100" y="360" width="10" height="10" class="qr-module" />
  <circle cx="115.0" cy="365.0" r="4.5" class="qr-module" />
  <circle cx="145.0" cy="365.0" r="4.5" class="qr-module" />
  <circle cx="155.0" cy="365.0" r="4.5" class="qr-module" />
  <circle cx="175.0" cy="365.0" r="4.5" class="qr-module" />
  <circle cx="185.0" cy="365.0" r="4.5" class="qr-module" />
  <circle cx="225.0" cy="365.0" r="4.5" class="qr-module" />
  <circle cx="245.0" cy="365.0" r="4.5" class="qr-module" />
  <circle cx="265.0" cy="365.0" r="4.5" class="qr-module" />
  <circle cx="275.0" cy="365.0" r="4.5" class="qr-module" />
  <circle cx="295.0" cy="365.0" r="4.5" class="qr-module" />
  <circle cx="305.0" cy="365.0" r="4.5" class="qr-module" />
  <circle cx="315.0" cy="365.0" r="4.5" class="qr-module" />
  <circle cx="325.0" cy="365.0" r="4.5" class="qr-module" />
  <circle cx="345.0" cy="365.0" r="4.5" class="qr-module" />
  <circle cx="365.0" cy="365.0" r="4.5" class="qr-module" />
  <circle cx="375.0" cy="365.0" r="4.5" class="qr-module" />
  <circle cx="385.0" cy="365.0" r="4.5" class="qr-module" />
  <rect x="20" y="370" width="10" height="10" class="qr-module" />
  <rect x="80" y="370" width="10" height="10" class="qr-module" />
  <circle cx="115.0" cy="375.0" r="4.5" class="qr-module" />
  <circle cx="125.0" cy="375.0" r="4.5" class="qr-module" />
  <circle cx="185.0" cy="375.0" r="4.5" class="qr-module" />
  <circle cx="255.0" cy="375.0" r="4.5" class="qr-module" />
  <circle cx="265.0" cy="375.0" r="4.5" class="qr-module" />
  <circle cx="285.0" cy="375.0" r="4.5" class="qr-module" />
  <circle cx="305.0" cy="375.0" r="4.5" class="qr-module" />
  <circle cx="335.0" cy="375.0" r="4.5" class="qr-module" />
  <circle cx="345.0" cy="375.0" r="4.5" class="qr-module" />
  <circle cx="355.0" cy="375.0" r="4.5" class="qr-module" />
  <rect x="20" y="380" width="10" height="10" class="qr-module" />
  <rect x="30" y="380" width="10" height="10" class="qr-module" />
  <rect x="40" y="380" width="10" height="10" class="qr-module" />
  <rect x="50" y="380" width="10" height="10" class="qr-module" />
  <rect x="60" y="380" width="10" height="10" class="qr-module" />
  <rect x="70" y="380" width="10" height="10" class="qr-module" />
  <rect x="80" y="380" width="10" height="10" class="qr-module" />
  <circle cx="115.0" cy="385.0" r="4.5" class="qr-module" />
  <circle cx="125.0" cy="385.0" r="4.5" class="qr-module" />
  <circle cx="145.0" cy="385.0" r="4.5" class="qr-module" />
  <circle cx="165.0" cy="385.0" r="4.5" class="qr-module" />
  <circle cx="185.0" cy="385.0" r="4.5" class="qr-module" />
  <circle cx="205.0" cy="385.0" r="4.5" class="qr-module" />
  <circle cx="215.0" cy="385.0" r="4.5" class="qr-module" />
  <circle cx="265.0" cy="385.0" r="4.5" class="qr-module" />
  <circle cx="285.0" cy="385.0" r="4.5" class="qr-module" />
  <circle cx="305.0" cy="385.0" r="4.5" class="qr-module" />
  <circle cx="315.0" cy="385.0" r="4.5" class="qr-module" />
  <circle cx="325.0" cy="385.0" r="4.5" class="qr-module" />
  <circle cx="355.0" cy="385.0" r="4.5" class="qr-module" />
  <circle cx="385.0" cy="385.0" r="4.5" class="qr-module" />

</g></svg>