<svg width="410" height="410" viewBox="0 0 410 410" xmlns="http://www.w3.org/2000/svg" xmlns:xlink="http://www.w3.org/1999/xlink" id="qr-code" class="interactive-qr">
<title>Interactive QR Code</title><desc>QR Code with 37x37 modules</desc>  <rect x="0" y="0" width="410" height="410" fill="#ffffff" class="qr-background" />
<style type="text/css">
&lt;![CDATA[

        .qr-background {
            pointer-events: none;
        }
        
        .qr-module {
            transition: all 0.2s ease;
        }
        
        .qr-finder {
            fill: currentColor;
        }
        
        .qr-finder-inner {
            fill: var(--qr-bg-color, white);
        }
        
        .qr-timing {
            fill: currentColor;
        }
        
        .qr-data {
            fill: currentColor;
        }
        
        .qr-alignment {
            fill: currentColor;
        }
        
        .qr-format {
            fill: currentColor;
        }
        
        .qr-cluster {
            fill: currentColor;
            stroke: none;
        }
        
        .qr-contour {
            fill: currentColor;
            stroke: none;
        }
        
]]&gt;
</style>
<g class="qr-modules" fill="#dc2626">
    <circle cx="25.0" cy="25.0" r="4.5" class="qr-module" />
  <circle cx="35.0" cy="25.0" r="4.5" class="qr-module" />
  <circle cx="45.0" cy="25.0" r="4.5" class="qr-module" />
  <circle cx="55.0" cy="25.0" r="4.5" class="qr-module" />
  <circle cx="65.0" cy="25.0" r="4.5" class="qr-module" />
  <circle cx="75.0" cy="25.0" r="4.5" class="qr-module" />
  <circle cx="85.0" cy="25.0" r="4.5" class="qr-module" />
  <circle cx="125.0" cy="25.0" r="4.5" class="qr-module" />
  <circle cx="165.0" cy="25.0" r="4.5" class="qr-module" />
  <circle cx="175.0" cy="25.0" r="4.5" class="qr-module" />
  <circle cx="225.0" cy="25.0" r="4.5" class="qr-module" />
  <circle cx="245.0" cy="25.0" r="4.5" class="qr-module" />
  <circle cx="255.0" cy="25.0" r="4.5" class="qr-module" />
  <circle cx="275.0" cy="25.0" r="4.5" class="qr-module" />
  <circle cx="325.0" cy="25.0" r="4.5" class="qr-module" />
  <circle cx="335.0" cy="25.0" r="4.5" class="qr-module" />
  <circle cx="345.0" cy="25.0" r="4.5" class="qr-module" />
  <circle cx="355.0" cy="25.0" r="4.5" class="qr-module" />
  <circle cx="365.0" cy="25.0" r="4.5" class="qr-module" />
  <circle cx="375.0" cy="25.0" r="4.5" class="qr-module" />
  <circle cx="385.0" cy="25.0" r="4.5" class="qr-module" />
  <circle cx="25.0" cy="35.0" r="4.5" class="qr-module" />
  <circle cx="85.0" cy="35.0" r="4.5" class="qr-module" />
  <circle cx="105.0" cy="35.0" r="4.5" class="qr-module" />
  <circle cx="165.0" cy="35.0" r="4.5" class="qr-module" />
  <circle cx="185.0" cy="35.0" r="4.5" class="qr-module" />
  <circle cx="205.0" cy="35.0" r="4.5" class="qr-module" />
  <circle cx="215.0" cy="35.0" r="4.5" class="qr-module" />
  <circle cx="225.0" cy="35.0" r="4.5" class="qr-module" />
  <circle cx="235.0" cy="35.0" r="4.5" class="qr-module" />
  <circle cx="245.0" cy="35.0" r="4.5" class="qr-module" />
  <circle cx="265.0" cy="35.0" r="4.5" class="qr-module" />
  <circle cx="325.0" cy="35.0" r="4.5" class="qr-module" />
  <circle cx="385.0" cy="35.0" r="4.5" class="qr-module" />
  <circle cx="25.0" cy="45.0" r="4.5" class="qr-module" />
  <circle cx="45.0" cy="45.0" r="4.5" class="qr-module" />
  <circle cx="55.0" cy="45.0" r="4.5" class="qr-module" />
  <circle cx="65.0" cy="45.0" r="4.5" class="qr-module" />
  <circle cx="85.0" cy="45.0" r="4.5" class="qr-module" />
  <circle cx="105.0" cy="45.0" r="4.5" class="qr-module" />
  <circle cx="125.0" cy="45.0" r="4.5" class="qr-module" />
  <circle cx="135.0" cy="45.0" r="4.5" class="qr-module" />
  <circle cx="165.0" cy="45.0" r="4.5" class="qr-module" />
  <circle cx="185.0" cy="45.0" r="4.5" class="qr-module" />
  <circle cx="215.0" cy="45.0" r="4.5" class="qr-module" />
  <circle cx="235.0" cy="45.0" r="4.5" class="qr-module" />
  <circle cx="245.0" cy="45.0" r="4.5" class="qr-module" />
  <circle cx="275.0" cy="45.0" r="4.5" class="qr-module" />
  <circle cx="285.0" cy="45.0" r="4.5" class="qr-module" />
  <circle cx="295.0" cy="45.0" r="4.5" class="qr-module" />
  <circle cx="325.0" cy="45.0" r="4.5" class="qr-module" />
  <circle cx="345.0" cy="45.0" r="4.5" class="qr-module" />
  <circle cx="355.0" cy="45.0" r="4.5" class="qr-module" />
  <circle cx="365.0" cy="45.0" r="4.5" class="qr-module" />
  <circle cx="385.0" cy="45.0" r="4.5" class="qr-module" />
  <circle cx="25.0" cy="55.0" r="4.5" class="qr-module" />
  <circle cx="45.0" cy="55.0" r="4.5" class="qr-module" />
  <circle cx="55.0" cy="55.0" r="4.5" class="qr-module" />
  <circle cx="65.0" cy="55.0" r="4.5" class="qr-module" />
  <circle cx="85.0" cy="55.0" r="4.5" class="qr-module" />
  <circle cx="105.0" cy="55.0" r="4.5" class="qr-module" />
  <circle cx="115.0" cy="55.0" r="4.5" class="qr-module" />
  <circle cx="165.0" cy="55.0" r="4.5" class="qr-module" />
  <circle cx="185.0" cy="55.0" r="4.5" class="qr-module" />
  <circle cx="195.0" cy="55.0" r="4.5" class="qr-module" />
  <circle cx="225.0" cy="55.0" r="4.5" class="qr-module" />
  <circle cx="235.0" cy="55.0" r="4.5" class="qr-module" />
  <circle cx="275.0" cy="55.0" r="4.5" class="qr-module" />
  <circle cx="285.0" cy="55.0" r="4.5" class="qr-module" />
  <circle cx="325.0" cy="55.0" r="4.5" class="qr-module" />
  <circle cx="345.0" cy="55.0" r="4.5" class="qr-module" />
  <circle cx="355.0" cy="55.0" r="4.5" class="qr-module" />
  <circle cx="365.0" cy="55.0" r="4.5" class="qr-module" />
  <circle cx="385.0" cy="55.0" r="4.5" class="qr-module" />
  <circle cx="25.0" cy="65.0" r="4.5" class="qr-module" />
  <circle cx="45.0" cy="65.0" r="4.5" class="qr-module" />
  <circle cx="55.0" cy="65.0" r="4.5" class="qr-module" />
  <circle cx="65.0" cy="65.0" r="4.5" class="qr-module" />
  <circle cx="85.0" cy="65.0" r="4.5" class="qr-module" />
  <circle cx="105.0" cy="65.0" r="4.5" class="qr-module" />
  <circle cx="135.0" cy="65.0" r="4.5" class="qr-module" />
  <circle cx="175.0" cy="65.0" r="4.5" class="qr-module" />
  <circle cx="185.0" cy="65.0" r="4.5" class="qr-module" />
  <circle cx="195.0" cy="65.0" r="4.5" class="qr-module" />
  <circle cx="215.0" cy="65.0" r="4.5" class="qr-module" />
  <circle cx="225.0" cy="65.0" r="4.5" class="qr-module" />
  <circle cx="235.0" cy="65.0" r="4.5" class="qr-module" />
  <circle cx="245.0" cy="65.0" r="4.5" class="qr-module" />
  <circle cx="265.0" cy="65.0" r="4.5" class="qr-module" />
  <circle cx="285.0" cy="65.0" r="4.5" class="qr-module" />
  <circle cx="325.0" cy="65.0" r="4.5" class="qr-module" />
  <circle cx="345.0" cy="65.0" r="4.5" class="qr-module" />
  <circle cx="355.0" cy="65.0" r="4.5" class="qr-module" />
  <circle cx="365.0" cy="65.0" r="4.5" class="qr-module" />
  <circle cx="385.0" cy="65.0" r="4.5" class="qr-module" />
  <circle cx="25.0" cy="75.0" r="4.5" class="qr-module" />
  <circle cx="85.0" cy="75.0" r="4.5" class="qr-module" />
  <circle cx="105.0" cy="75.0" r="4.5" class="qr-module" />
  <circle cx="125.0" cy="75.0" r="4.5" class="qr-module" />
  <circle cx="135.0" cy="75.0" r="4.5" class="qr-module" />
  <circle cx="145.0" cy="75.0" r="4.5" class="qr-module" />
  <circle cx="155.0" cy="75.0" r="4.5" class="qr-module" />
  <circle cx="185.0" cy="75.0" r="4.5" class="qr-module" />
  <circle cx="195.0" cy="75.0" r="4.5" class="qr-module" />
  <circle cx="205.0" cy="75.0" r="4.5" class="qr-module" />
  <circle cx="225.0" cy="75.0" r="4.5" class="qr-module" />
  <circle cx="235.0" cy="75.0" r="4.5" class="qr-module" />
  <circle cx="245.0" cy="75.0" r="4.5" class="qr-module" />
  <circle cx="255.0" cy="75.0" r="4.5" class="qr-module" />
  <circle cx="275.0" cy="75.0" r="4.5" class="qr-module" />
  <circle cx="285.0" cy="75.0" r="4.5" class="qr-module" />
  <circle cx="305.0" cy="75.0" r="4.5" class="qr-module" />
  <circle cx="325.0" cy="75.0" r="4.5" class="qr-module" />
  <circle cx="385.0" cy="75.0" r="4.5" class="qr-module" />
  <circle cx="25.0" cy="85.0" r="4.5" class="qr-module" />
  <circle cx="35.0" cy="85.0" r="4.5" class="qr-module" />
  <circle cx="45.0" cy="85.0" r="4.5" class="qr-module" />
  <circle cx="55.0" cy="85.0" r="4.5" class="qr-module" />
  <circle cx="65.0" cy="85.0" r="4.5" class="qr-module" />
  <circle cx="75.0" cy="85.0" r="4.5" class="qr-module" />
  <circle cx="85.0" cy="85.0" r="4.5" class="qr-module" />
  <circle cx="105.0" cy="85.0" r="4.5" class="qr-module" />
  <circle cx="125.0" cy="85.0" r="4.5" class="qr-module" />
  <circle cx="145.0" cy="85.0" r="4.5" class="qr-module" />
  <circle cx="165.0" cy="85.0" r="4.5" class="qr-module" />
  <circle cx="185.0" cy="85.0" r="4.5" class="qr-module" />
  <circle cx="205.0" cy="85.0" r="4.5" class="qr-module" />
  <circle cx="225.0" cy="85.0" r="4.5" class="qr-module" />
  <circle cx="245.0" cy="85.0" r="4.5" class="qr-module" />
  <circle cx="265.0" cy="85.0" r="4.5" class="qr-module" />
  <circle cx="285.0" cy="85.0" r="4.5" class="qr-module" />
  <circle cx="305.0" cy="85.0" r="4.5" class="qr-module" />
  <circle cx="325.0" cy="85.0" r="4.5" class="qr-module" />
  <circle cx="335.0" cy="85.0" r="4.5" class="qr-module" />
  <circle cx="345.0" cy="85.0" r="4.5" class="qr-module" />
  <circle cx="355.0" cy="85.0" r="4.5" class="qr-module" />
  <circle cx="365.0" cy="85.0" r="4.5" class="qr-module" />
  <circle cx="375.0" cy="85.0" r="4.5" class="qr-module" />
  <circle cx="385.0" cy="85.0" r="4.5" class="qr-module" />
  <circle cx="115.0" cy="95.0" r="4.5" class="qr-module" />
  <circle cx="135.0" cy="95.0" r="4.5" class="qr-module" />
  <circle cx="155.0" cy="95.0" r="4.5" class="qr-module" />
  <circle cx="165.0" cy="95.0" r="4.5" class="qr-module" />
  <circle cx="175.0" cy="95.0" r="4.5" class="qr-module" />
  <circle cx="185.0" cy="95.0" r="4.5" class="qr-module" />
  <circle cx="205.0" cy="95.0" r="4.5" class="qr-module" />
  <circle cx="215.0" cy="95.0" r="4.5" class="qr-module" />
  <circle cx="225.0" cy="95.0" r="4.5" class="qr-module" />
  <circle cx="235.0" cy="95.0" r="4.5" class="qr-module" />
  <circle cx="245.0" cy="95.0" r="4.5" class="qr-module" />
  <circle cx="255.0" cy="95.0" r="4.5" class="qr-module" />
  <circle cx="265.0" cy="95.0" r="4.5" class="qr-module" />
  <circle cx="275.0" cy="95.0" r="4.5" class="qr-module" />
  <circle cx="295.0" cy="95.0" r="4.5" class="qr-module" />
  <circle cx="305.0" cy="95.0" r="4.5" class="qr-module" />
  <circle cx="45.0" cy="105.0" r="4.5" class="qr-module" />
  <circle cx="75.0" cy="105.0" r="4.5" class="qr-module" />
  <circle cx="85.0" cy="105.0" r="4.5" class="qr-module" />
  <circle cx="95.0" cy="105.0" r="4.5" class="qr-module" />
  <circle cx="105.0" cy="105.0" r="4.5" class="qr-module" />
  <circle cx="115.0" cy="105.0" r="4.5" class="qr-module" />
  <circle cx="125.0" cy="105.0" r="4.5" class="qr-module" />
  <circle cx="135.0" cy="105.0" r="4.5" class="qr-module" />
  <circle cx="145.0" cy="105.0" r="4.5" class="qr-module" />
  <circle cx="155.0" cy="105.0" r="4.5" class="qr-module" />
  <circle cx="175.0" cy="105.0" r="4.5" class="qr-module" />
  <circle cx="185.0" cy="105.0" r="4.5" class="qr-module" />
  <circle cx="215.0" cy="105.0" r="4.5" class="qr-module" />
  <circle cx="235.0" cy="105.0" r="4.5" class="qr-module" />
  <circle cx="245.0" cy="105.0" r="4.5" class="qr-module" />
  <circle cx="265.0" cy="105.0" r="4.5" class="qr-module" />
  <circle cx="275.0" cy="105.0" r="4.5" class="qr-module" />
  <circle cx="315.0" cy="105.0" r="4.5" class="qr-module" />
  <circle cx="335.0" cy="105.0" r="4.5" class="qr-module" />
  <circle cx="345.0" cy="105.0" r="4.5" class="qr-module" />
  <circle cx="355.0" cy="105.0" r="4.5" class="qr-module" />
  <circle cx="365.0" cy="105.0" r="4.5" class="qr-module" />
  <circle cx="375.0" cy="105.0" r="4.5" class="qr-module" />
  <circle cx="25.0" cy="115.0" r="4.5" class="qr-module" />
  <circle cx="35.0" cy="115.0" r="4.5" class="qr-module" />
  <circle cx="45.0" cy="115.0" r="4.5" class="qr-module" />
  <circle cx="75.0" cy="115.0" r="4.5" class="qr-module" />
  <circle cx="95.0" cy="115.0" r="4.5" class="qr-module" />
  <circle cx="105.0" cy="115.0" r="4.5" class="qr-module" />
  <circle cx="115.0" cy="115.0" r="4.5" class="qr-module" />
  <circle cx="125.0" cy="115.0" r="4.5" class="qr-module" />
  <circle cx="145.0" cy="115.0" r="4.5" class="qr-module" />
  <circle cx="185.0" cy="115.0" r="4.5" class="qr-module" />
  <circle cx="225.0" cy="115.0" r="4.5" class="qr-module" />
  <circle cx="245.0" cy="115.0" r="4.5" class="qr-module" />
  <circle cx="255.0" cy="115.0" r="4.5" class="qr-module" />
  <circle cx="265.0" cy="115.0" r="4.5" class="qr-module" />
  <circle cx="335.0" cy="115.0" r="4.5" class="qr-module" />
  <circle cx="345.0" cy="115.0" r="4.5" class="qr-module" />
  <circle cx="355.0" cy="115.0" r="4.5" class="qr-module" />
  <circle cx="365.0" cy="115.0" r="4.5" class="qr-module" />
  <circle cx="385.0" cy="115.0" r="4.5" class="qr-module" />
  <circle cx="35.0" cy="125.0" r="4.5" class="qr-module" />
  <circle cx="45.0" cy="125.0" r="4.5" class="qr-module" />
  <circle cx="65.0" cy="125.0" r="4.5" class="qr-module" />
  <circle cx="75.0" cy="125.0" r="4.5" class="qr-module" />
  <circle cx="85.0" cy="125.0" r="4.5" class="qr-module" />
  <circle cx="95.0" cy="125.0" r="4.5" class="qr-module" />
  <circle cx="105.0" cy="125.0" r="4.5" class="qr-module" />
  <circle cx="115.0" cy="125.0" r="4.5" class="qr-module" />
  <circle cx="125.0" cy="125.0" r="4.5" class="qr-module" />
  <circle cx="145.0" cy="125.0" r="4.5" class="qr-module" />
  <circle cx="215.0" cy="125.0" r="4.5" class="qr-module" />
  <circle cx="245.0" cy="125.0" r="4.5" class="qr-module" />
  <circle cx="255.0" cy="125.0" r="4.5" class="qr-module" />
  <circle cx="275.0" cy="125.0" r="4.5" class="qr-module" />
  <circle cx="295.0" cy="125.0" r="4.5" class="qr-module" />
  <circle cx="325.0" cy="125.0" r="4.5" class="qr-module" />
  <circle cx="335.0" cy="125.0" r="4.5" class="qr-module" />
  <circle cx="375.0" cy="125.0" r="4.5" class="qr-module" />
  <circle cx="385.0" cy="125.0" r="4.5" class="qr-module" />
  <circle cx="25.0" cy="135.0" r="4.5" class="qr-module" />
  <circle cx="55.0" cy="135.0" r="4.5" class="qr-module" />
  <circle cx="125.0" cy="135.0" r="4.5" class="qr-module" />
  <circle cx="145.0" cy="135.0" r="4.5" class="qr-module" />
  <circle cx="185.0" cy="135.0" r="4.5" class="qr-module" />
  <circle cx="205.0" cy="135.0" r="4.5" class="qr-module" />
  <circle cx="225.0" cy="135.0" r="4.5" class="qr-module" />
  <circle cx="235.0" cy="135.0" r="4.5" class="qr-module" />
  <circle cx="245.0" cy="135.0" r="4.5" class="qr-module" />
  <circle cx="255.0" cy="135.0" r="4.5" class="qr-module" />
  <circle cx="265.0" cy="135.0" r="4.5" class="qr-module" />
  <circle cx="315.0" cy="135.0" r="4.5" class="qr-module" />
  <circle cx="335.0" cy="135.0" r="4.5" class="qr-module" />
  <circle cx="345.0" cy="135.0" r="4.5" class="qr-module" />
  <circle cx="355.0" cy="135.0" r="4.5" class="qr-module" />
  <circle cx="385.0" cy="135.0" r="4.5" class="qr-module" />
  <circle cx="45.0" cy="145.0" r="4.5" class="qr-module" />
  <circle cx="65.0" cy="145.0" r="4.5" class="qr-module" />
  <circle cx="75.0" cy="145.0" r="4.5" class="qr-module" />
  <circle cx="85.0" cy="145.0" r="4.5" class="qr-module" />
  <circle cx="125.0" cy="145.0" r="4.5" class="qr-module" />
  <circle cx="145.0" cy="145.0" r="4.5" class="qr-module" />
  <circle cx="155.0" cy="145.0" r="4.5" class="qr-module" />
  <circle cx="205.0" cy="145.0" r="4.5" class="qr-module" />
  <circle cx="215.0" cy="145.0" r="4.5" class="qr-module" />
  <circle cx="225.0" cy="145.0" r="4.5" class="qr-module" />
  <circle cx="295.0" cy="145.0" r="4.5" class="qr-module" />
  <circle cx="315.0" cy="145.0" r="4.5" class="qr-module" />
  <circle cx="325.0" cy="145.0" r="4.5" class="qr-module" />
  <circle cx="355.0" cy="145.0" r="4.5" class="qr-module" />
  <circle cx="375.0" cy="145.0" r="4.5" class="qr-module" />
  <circle cx="35.0" cy="155.0" r="4.5" class="qr-module" />
  <circle cx="55.0" cy="155.0" r="4.5" class="qr-module" />
  <circle cx="95.0" cy="155.0" r="4.5" class="qr-module" />
  <circle cx="105.0" cy="155.0" r="4.5" class="qr-module" />
  <circle cx="115.0" cy="155.0" r="4.5" class="qr-module" />
  <circle cx="125.0" cy="155.0" r="4.5" class="qr-module" />
  <circle cx="165.0" cy="155.0" r="4.5" class="qr-module" />
  <circle cx="195.0" cy="155.0" r="4.5" class="qr-module" />
  <circle cx="265.0" cy="155.0" r="4.5" class="qr-module" />
  <circle cx="295.0" cy="155.0" r="4.5" class="qr-module" />
  <circle cx="305.0" cy="155.0" r="4.5" class="qr-module" />
  <circle cx="325.0" cy="155.0" r="4.5" class="qr-module" />
  <circle cx="335.0" cy="155.0" r="4.5" class="qr-module" />
  <circle cx="385.0" cy="155.0" r="4.5" class="qr-module" />
  <circle cx="35.0" cy="165.0" r="4.5" class="qr-module" />
  <circle cx="75.0" cy="165.0" r="4.5" class="qr-module" />
  <circle cx="85.0" cy="165.0" r="4.5" class="qr-module" />
  <circle cx="145.0" cy="165.0" r="4.5" class="qr-module" />
  <circle cx="165.0" cy="165.0" r="4.5" class="qr-module" />
  <circle cx="175.0" cy="165.0" r="4.5" class="qr-module" />
  <circle cx="185.0" cy="165.0" r="4.5" class="qr-module" />
  <circle cx="195.0" cy="165.0" r="4.5" class="qr-module" />
  <circle cx="215.0" cy="165.0" r="4.5" class="qr-module" />
  <circle cx="225.0" cy="165.0" r="4.5" class="qr-module" />
  <circle cx="235.0" cy="165.0" r="4.5" class="qr-module" />
  <circle cx="255.0" cy="165.0" r="4.5" class="qr-module" />
  <circle cx="265.0" cy="165.0" r="4.5" class="qr-module" />
  <circle cx="275.0" cy="165.0" r="4.5" class="qr-module" />
  <circle cx="295.0" cy="165.0" r="4.5" class="qr-module" />
  <circle cx="315.0" cy="165.0" r="4.5" class="qr-module" />
  <circle cx="345.0" cy="165.0" r="4.5" class="qr-module" />
  <circle cx="385.0" cy="165.0" r="4.5" class="qr-module" />
  <circle cx="35.0" cy="175.0" r="4.5" class="qr-module" />
  <circle cx="65.0" cy="175.0" r="4.5" class="qr-module" />
  <circle cx="75.0" cy="175.0" r="4.5" class="qr-module" />
  <circle cx="135.0" cy="175.0" r="4.5" class="qr-module" />
  <circle cx="145.0" cy="175.0" r="4.5" class="qr-module" />
  <circle cx="165.0" cy="175.0" r="4.5" class="qr-module" />
  <circle cx="185.0" cy="175.0" r="4.5" class="qr-module" />
  <circle cx="205.0" cy="175.0" r="4.5" class="qr-module" />
  <circle cx="215.0" cy="175.0" r="4.5" class="qr-module" />
  <circle cx="225.0" cy="175.0" r="4.5" class="qr-module" />
  <circle cx="235.0" cy="175.0" r="4.5" class="qr-module" />
  <circle cx="245.0" cy="175.0" r="4.5" class="qr-module" />
  <circle cx="265.0" cy="175.0" r="4.5" class="qr-module" />
  <circle cx="305.0" cy="175.0" r="4.5" class="qr-module" />
  <circle cx="325.0" cy="175.0" r="4.5" class="qr-module" />
  <circle cx="335.0" cy="175.0" r="4.5" class="qr-module" />
  <circle cx="355.0" cy="175.0" r="4.5" class="qr-module" />
  <circle cx="25.0" cy="185.0" r="4.5" class="qr-module" />
  <circle cx="35.0" cy="185.0" r="4.5" class="qr-module" />
  <circle cx="65.0" cy="185.0" r="4.5" class="qr-module" />
  <circle cx="85.0" cy="185.0" r="4.5" class="qr-module" />
  <circle cx="95.0" cy="185.0" r="4.5" class="qr-module" />
  <circle cx="115.0" cy="185.0" r="4.5" class="qr-module" />
  <circle cx="125.0" cy="185.0" r="4.5" class="qr-module" />
  <circle cx="155.0" cy="185.0" r="4.5" class="qr-module" />
  <circle cx="165.0" cy="185.0" r="4.5" class="qr-module" />
  <circle cx="175.0" cy="185.0" r="4.5" class="qr-module" />
  <circle cx="205.0" cy="185.0" r="4.5" class="qr-module" />
  <circle cx="215.0" cy="185.0" r="4.5" class="qr-module" />
  <circle cx="245.0" cy="185.0" r="4.5" class="qr-module" />
  <circle cx="255.0" cy="185.0" r="4.5" class="qr-module" />
  <circle cx="315.0" cy="185.0" r="4.5" class="qr-module" />
  <circle cx="325.0" cy="185.0" r="4.5" class="qr-module" />
  <circle cx="355.0" cy="185.0" r="4.5" class="qr-module" />
  <circle cx="385.0" cy="185.0" r="4.5" class="qr-module" />
  <circle cx="25.0" cy="195.0" r="4.5" class="qr-module" />
  <circle cx="45.0" cy="195.0" r="4.5" class="qr-module" />
  <circle cx="55.0" cy="195.0" r="4.5" class="qr-module" />
  <circle cx="65.0" cy="195.0" r="4.5" class="qr-module" />
  <circle cx="75.0" cy="195.0" r="4.5" class="qr-module" />
  <circle cx="95.0" cy="195.0" r="4.5" class="qr-module" />
  <circle cx="115.0" cy="195.0" r="4.5" class="qr-module" />
  <circle cx="135.0" cy="195.0" r="4.5" class="qr-module" />
  <circle cx="165.0" cy="195.0" r="4.5" class="qr-module" />
  <circle cx="175.0" cy="195.0" r="4.5" class="qr-module" />
  <circle cx="185.0" cy="195.0" r="4.5" class="qr-module" />
  <circle cx="275.0" cy="195.0" r="4.5" class="qr-module" />
  <circle cx="285.0" cy="195.0" r="4.5" class="qr-module" />
  <circle cx="295.0" cy="195.0" r="4.5" class="qr-module" />
  <circle cx="305.0" cy="195.0" r="4.5" class="qr-module" />
  <circle cx="325.0" cy="195.0" r="4.5" class="qr-module" />
  <circle cx="355.0" cy="195.0" r="4.5" class="qr-module" />
  <circle cx="375.0" cy="195.0" r="4.5" class="qr-module" />
  <circle cx="65.0" cy="205.0" r="4.5" class="qr-module" />
  <circle cx="85.0" cy="205.0" r="4.5" class="qr-module" />
  <circle cx="95.0" cy="205.0" r="4.5" class="qr-module" />
  <circle cx="105.0" cy="205.0" r="4.5" class="qr-module" />
  <circle cx="115.0" cy="205.0" r="4.5" class="qr-module" />
  <circle cx="125.0" cy="205.0" r="4.5" class="qr-module" />
  <circle cx="135.0" cy="205.0" r="4.5" class="qr-module" />
  <circle cx="175.0" cy="205.0" r="4.5" class="qr-module" />
  <circle cx="185.0" cy="205.0" r="4.5" class="qr-module" />
  <circle cx="215.0" cy="205.0" r="4.5" class="qr-module" />
  <circle cx="255.0" cy="205.0" r="4.5" class="qr-module" />
  <circle cx="265.0" cy="205.0" r="4.5" class="qr-module" />
  <circle cx="275.0" cy="205.0" r="4.5" class="qr-module" />
  <circle cx="295.0" cy="205.0" r="4.5" class="qr-module" />
  <circle cx="305.0" cy="205.0" r="4.5" class="qr-module" />
  <circle cx="315.0" cy="205.0" r="4.5" class="qr-module" />
  <circle cx="365.0" cy="205.0" r="4.5" class="qr-module" />
  <circle cx="385.0" cy="205.0" r="4.5" class="qr-module" />
  <circle cx="35.0" cy="215.0" r="4.5" class="qr-module" />
  <circle cx="55.0" cy="215.0" r="4.5" class="qr-module" />
  <circle cx="105.0" cy="215.0" r="4.5" class="qr-module" />
  <circle cx="125.0" cy="215.0" r="4.5" class="qr-module" />
  <circle cx="175.0" cy="215.0" r="4.5" class="qr-module" />
  <circle cx="235.0" cy="215.0" r="4.5" class="qr-module" />
  <circle cx="245.0" cy="215.0" r="4.5" class="qr-module" />
  <circle cx="255.0" cy="215.0" r="4.5" class="qr-module" />
  <circle cx="265.0" cy="215.0" r="4.5" class="qr-module" />
  <circle cx="335.0" cy="215.0" r="4.5" class="qr-module" />
  <circle cx="345.0" cy="215.0" r="4.5" class="qr-module" />
  <circle cx="355.0" cy="215.0" r="4.5" class="qr-module" />
  <circle cx="375.0" cy="215.0" r="4.5" class="qr-module" />
  <circle cx="385.0" cy="215.0" r="4.5" class="qr-module" />
  <circle cx="35.0" cy="225.0" r="4.5" class="qr-module" />
  <circle cx="55.0" cy="225.0" r="4.5" class="qr-module" />
  <circle cx="85.0" cy="225.0" r="4.5" class="qr-module" />
  <circle cx="105.0" cy="225.0" r="4.5" class="qr-module" />
  <circle cx="125.0" cy="225.0" r="4.5" class="qr-module" />
  <circle cx="155.0" cy="225.0" r="4.5" class="qr-module" />
  <circle cx="165.0" cy="225.0" r="4.5" class="qr-module" />
  <circle cx="205.0" cy="225.0" r="4.5" class="qr-module" />
  <circle cx="215.0" cy="225.0" r="4.5" class="qr-module" />
  <circle cx="225.0" cy="225.0" r="4.5" class="qr-module" />
  <circle cx="255.0" cy="225.0" r="4.5" class="qr-module" />
  <circle cx="265.0" cy="225.0" r="4.5" class="qr-module" />
  <circle cx="305.0" cy="225.0" r="4.5" class="qr-module" />
  <circle cx="325.0" cy="225.0" r="4.5" class="qr-module" />
  <circle cx="335.0" cy="225.0" r="4.5" class="qr-module" />
  <circle cx="355.0" cy="225.0" r="4.5" class="qr-module" />
  <circle cx="375.0" cy="225.0" r="4.5" class="qr-module" />
  <circle cx="385.0" cy="225.0" r="4.5" class="qr-module" />
  <circle cx="25.0" cy="235.0" r="4.5" class="qr-module" />
  <circle cx="35.0" cy="235.0" r="4.5" class="qr-module" />
  <circle cx="65.0" cy="235.0" r="4.5" class="qr-module" />
  <circle cx="75.0" cy="235.0" r="4.5" class="qr-module" />
  <circle cx="95.0" cy="235.0" r="4.5" class="qr-module" />
  <circle cx="105.0" cy="235.0" r="4.5" class="qr-module" />
  <circle cx="125.0" cy="235.0" r="4.5" class="qr-module" />
  <circle cx="195.0" cy="235.0" r="4.5" class="qr-module" />
  <circle cx="225.0" cy="235.0" r="4.5" class="qr-module" />
  <circle cx="235.0" cy="235.0" r="4.5" class="qr-module" />
  <circle cx="295.0" cy="235.0" r="4.5" class="qr-module" />
  <circle cx="305.0" cy="235.0" r="4.5" class="qr-module" />
  <circle cx="325.0" cy="235.0" r="4.5" class="qr-module" />
  <circle cx="335.0" cy="235.0" r="4.5" class="qr-module" />
  <circle cx="355.0" cy="235.0" r="4.5" class="qr-module" />
  <circle cx="365.0" cy="235.0" r="4.5" class="qr-module" />
  <circle cx="385.0" cy="235.0" r="4.5" class="qr-module" />
  <circle cx="35.0" cy="245.0" r="4.5" class="qr-module" />
  <circle cx="75.0" cy="245.0" r="4.5" class="qr-module" />
  <circle cx="85.0" cy="245.0" r="4.5" class="qr-module" />
  <circle cx="95.0" cy="245.0" r="4.5" class="qr-module" />
  <circle cx="105.0" cy="245.0" r="4.5" class="qr-module" />
  <circle cx="125.0" cy="245.0" r="4.5" class="qr-module" />
  <circle cx="135.0" cy="245.0" r="4.5" class="qr-module" />
  <circle cx="175.0" cy="245.0" r="4.5" class="qr-module" />
  <circle cx="225.0" cy="245.0" r="4.5" class="qr-module" />
  <circle cx="275.0" cy="245.0" r="4.5" class="qr-module" />
  <circle cx="285.0" cy="245.0" r="4.5" class="qr-module" />
  <circle cx="295.0" cy="245.0" r="4.5" class="qr-module" />
  <circle cx="315.0" cy="245.0" r="4.5" class="qr-module" />
  <circle cx="325.0" cy="245.0" r="4.5" class="qr-module" />
  <circle cx="335.0" cy="245.0" r="4.5" class="qr-module" />
  <circle cx="385.0" cy="245.0" r="4.5" class="qr-module" />
  <circle cx="35.0" cy="255.0" r="4.5" class="qr-module" />
  <circle cx="45.0" cy="255.0" r="4.5" class="qr-module" />
  <circle cx="55.0" cy="255.0" r="4.5" class="qr-module" />
  <circle cx="75.0" cy="255.0" r="4.5" class="qr-module" />
  <circle cx="125.0" cy="255.0" r="4.5" class="qr-module" />
  <circle cx="155.0" cy="255.0" r="4.5" class="qr-module" />
  <circle cx="175.0" cy="255.0" r="4.5" class="qr-module" />
  <circle cx="215.0" cy="255.0" r="4.5" class="qr-module" />
  <circle cx="235.0" cy="255.0" r="4.5" class="qr-module" />
  <circle cx="255.0" cy="255.0" r="4.5" class="qr-module" />
  <circle cx="265.0" cy="255.0" r="4.5" class="qr-module" />
  <circle cx="285.0" cy="255.0" r="4.5" class="qr-module" />
  <circle cx="305.0" cy="255.0" r="4.5" class="qr-module" />
  <circle cx="315.0" cy="255.0" r="4.5" class="qr-module" />
  <circle cx="335.0" cy="255.0" r="4.5" class="qr-module" />
  <circle cx="375.0" cy="255.0" r="4.5" class="qr-module" />
  <circle cx="385.0" cy="255.0" r="4.5" class="qr-module" />
  <circle cx="45.0" cy="265.0" r="4.5" class="qr-module" />
  <circle cx="55.0" cy="265.0" r="4.5" class="qr-module" />
  <circle cx="75.0" cy="265.0" r="4.5" class="qr-module" />
  <circle cx="85.0" cy="265.0" r="4.5" class="qr-module" />
  <circle cx="95.0" cy="265.0" r="4.5" class="qr-module" />
  <circle cx="115.0" cy="265.0" r="4.5" class="qr-module" />
  <circle cx="135.0" cy="265.0" r="4.5" class="qr-module" />
  <circle cx="145.0" cy="265.0" r="4.5" class="qr-module" />
  <circle cx="155.0" cy="265.0" r="4.5" class="qr-module" />
  <circle cx="165.0" cy="265.0" r="4.5" class="qr-module" />
  <circle cx="205.0" cy="265.0" r="4.5" class="qr-module" />
  <circle cx="215.0" cy="265.0" r="4.5" class="qr-module" />
  <circle cx="225.0" cy="265.0" r="4.5" class="qr-module" />
  <circle cx="235.0" cy="265.0" r="4.5" class="qr-module" />
  <circle cx="245.0" cy="265.0" r="4.5" class="qr-module" />
  <circle cx="255.0" cy="265.0" r="4.5" class="qr-module" />
  <circle cx="275.0" cy="265.0" r="4.5" class="qr-module" />
  <circle cx="285.0" cy="265.0" r="4.5" class="qr-module" />
  <circle cx="305.0" cy="265.0" r="4.5" class="qr-module" />
  <circle cx="315.0" cy="265.0" r="4.5" class="qr-module" />
  <circle cx="325.0" cy="265.0" r="4.5" class="qr-module" />
  <circle cx="335.0" cy="265.0" r="4.5" class="qr-module" />
  <circle cx="345.0" cy="265.0" r="4.5" class="qr-module" />
  <circle cx="355.0" cy="265.0" r="4.5" class="qr-module" />
  <circle cx="375.0" cy="265.0" r="4.5" class="qr-module" />
  <circle cx="385.0" cy="265.0" r="4.5" class="qr-module" />
  <circle cx="45.0" cy="275.0" r="4.5" class="qr-module" />
  <circle cx="55.0" cy="275.0" r="4.5" class="qr-module" />
  <circle cx="65.0" cy="275.0" r="4.5" class="qr-module" />
  <circle cx="75.0" cy="275.0" r="4.5" class="qr-module" />
  <circle cx="95.0" cy="275.0" r="4.5" class="qr-module" />
  <circle cx="115.0" cy="275.0" r="4.5" class="qr-module" />
  <circle cx="125.0" cy="275.0" r="4.5" class="qr-module" />
  <circle cx="135.0" cy="275.0" r="4.5" class="qr-module" />
  <circle cx="165.0" cy="275.0" r="4.5" class="qr-module" />
  <circle cx="195.0" cy="275.0" r="4.5" class="qr-module" />
  <circle cx="215.0" cy="275.0" r="4.5" class="qr-module" />
  <circle cx="225.0" cy="275.0" r="4.5" class="qr-module" />
  <circle cx="235.0" cy="275.0" r="4.5" class="qr-module" />
  <circle cx="285.0" cy="275.0" r="4.5" class="qr-module" />
  <circle cx="305.0" cy="275.0" r="4.5" class="qr-module" />
  <circle cx="315.0" cy="275.0" r="4.5" class="qr-module" />
  <circle cx="355.0" cy="275.0" r="4.5" class="qr-module" />
  <circle cx="365.0" cy="275.0" r="4.5" class="qr-module" />
  <circle cx="375.0" cy="275.0" r="4.5" class="qr-module" />
  <circle cx="385.0" cy="275.0" r="4.5" class="qr-module" />
  <circle cx="25.0" cy="285.0" r="4.5" class="qr-module" />
  <circle cx="35.0" cy="285.0" r="4.5" class="qr-module" />
  <circle cx="45.0" cy="285.0" r="4.5" class="qr-module" />
  <circle cx="65.0" cy="285.0" r="4.5" class="qr-module" />
  <circle cx="85.0" cy="285.0" r="4.5" class="qr-module" />
  <circle cx="125.0" cy="285.0" r="4.5" class="qr-module" />
  <circle cx="155.0" cy="285.0" r="4.5" class="qr-module" />
  <circle cx="165.0" cy="285.0" r="4.5" class="qr-module" />
  <circle cx="185.0" cy="285.0" r="4.5" class="qr-module" />
  <circle cx="195.0" cy="285.0" r="4.5" class="qr-module" />
  <circle cx="215.0" cy="285.0" r="4.5" class="qr-module" />
  <circle cx="225.0" cy="285.0" r="4.5" class="qr-module" />
  <circle cx="235.0" cy="285.0" r="4.5" class="qr-module" />
  <circle cx="245.0" cy="285.0" r="4.5" class="qr-module" />
  <circle cx="255.0" cy="285.0" r="4.5" class="qr-module" />
  <circle cx="275.0" cy="285.0" r="4.5" class="qr-module" />
  <circle cx="305.0" cy="285.0" r="4.5" class="qr-module" />
  <circle cx="315.0" cy="285.0" r="4.5" class="qr-module" />
  <circle cx="325.0" cy="285.0" r="4.5" class="qr-module" />
  <circle cx="335.0" cy="285.0" r="4.5" class="qr-module" />
  <circle cx="345.0" cy="285.0" r="4.5" class="qr-module" />
  <circle cx="365.0" cy="285.0" r="4.5" class="qr-module" />
  <circle cx="375.0" cy="285.0" r="4.5" class="qr-module" />
  <circle cx="385.0" cy="285.0" r="4.5" class="qr-module" />
  <circle cx="65.0" cy="295.0" r="4.5" class="qr-module" />
  <circle cx="95.0" cy="295.0" r="4.5" class="qr-module" />
  <circle cx="105.0" cy="295.0" r="4.5" class="qr-module" />
  <circle cx="115.0" cy="295.0" r="4.5" class="qr-module" />
  <circle cx="125.0" cy="295.0" r="4.5" class="qr-module" />
  <circle cx="135.0" cy="295.0" r="4.5" class="qr-module" />
  <circle cx="155.0" cy="295.0" r="4.5" class="qr-module" />
  <circle cx="165.0" cy="295.0" r="4.5" class="qr-module" />
  <circle cx="175.0" cy="295.0" r="4.5" class="qr-module" />
  <circle cx="205.0" cy="295.0" r="4.5" class="qr-module" />
  <circle cx="215.0" cy="295.0" r="4.5" class="qr-module" />
  <circle cx="225.0" cy="295.0" r="4.5" class="qr-module" />
  <circle cx="245.0" cy="295.0" r="4.5" class="qr-module" />
  <circle cx="285.0" cy="295.0" r="4.5" class="qr-module" />
  <circle cx="295.0" cy="295.0" r="4.5" class="qr-module" />
  <circle cx="305.0" cy="295.0" r="4.5" class="qr-module" />
  <circle cx="375.0" cy="295.0" r="4.5" class="qr-module" />
  <circle cx="385.0" cy="295.0" r="4.5" class="qr-module" />
  <circle cx="25.0" cy="305.0" r="4.5" class="qr-module" />
  <circle cx="35.0" cy="305.0" r="4.5" class="qr-module" />
  <circle cx="45.0" cy="305.0" r="4.5" class="qr-module" />
  <circle cx="55.0" cy="305.0" r="4.5" class="qr-module" />
  <circle cx="85.0" cy="305.0" r="4.5" class="qr-module" />
  <circle cx="105.0" cy="305.0" r="4.5" class="qr-module" />
  <circle cx="115.0" cy="305.0" r="4.5" class="qr-module" />
  <circle cx="135.0" cy="305.0" r="4.5" class="qr-module" />
  <circle cx="155.0" cy="305.0" r="4.5" class="qr-module" />
  <circle cx="175.0" cy="305.0" r="4.5" class="qr-module" />
  <circle cx="185.0" cy="305.0" r="4.5" class="qr-module" />
  <circle cx="225.0" cy="305.0" r="4.5" class="qr-module" />
  <circle cx="235.0" cy="305.0" r="4.5" class="qr-module" />
  <circle cx="255.0" cy="305.0" r="4.5" class="qr-module" />
  <circle cx="265.0" cy="305.0" r="4.5" class="qr-module" />
  <circle cx="285.0" cy="305.0" r="4.5" class="qr-module" />
  <circle cx="305.0" cy="305.0" r="4.5" class="qr-module" />
  <circle cx="315.0" cy="305.0" r="4.5" class="qr-module" />
  <circle cx="325.0" cy="305.0" r="4.5" class="qr-module" />
  <circle cx="335.0" cy="305.0" r="4.5" class="qr-module" />
  <circle cx="345.0" cy="305.0" r="4.5" class="qr-module" />
  <circle cx="355.0" cy="305.0" r="4.5" class="qr-module" />
  <circle cx="365.0" cy="305.0" r="4.5" class="qr-module" />
  <circle cx="375.0" cy="305.0" r="4.5" class="qr-module" />
  <circle cx="385.0" cy="305.0" r="4.5" class="qr-module" />
  <circle cx="105.0" cy="315.0" r="4.5" class="qr-module" />
  <circle cx="125.0" cy="315.0" r="4.5" class="qr-module" />
  <circle cx="145.0" cy="315.0" r="4.5" class="qr-module" />
  <circle cx="165.0" cy="315.0" r="4.5" class="qr-module" />
  <circle cx="185.0" cy="315.0" r="4.5" class="qr-module" />
  <circle cx="205.0" cy="315.0" r="4.5" class="qr-module" />
  <circle cx="215.0" cy="315.0" r="4.5" class="qr-module" />
  <circle cx="255.0" cy="315.0" r="4.5" class="qr-module" />
  <circle cx="265.0" cy="315.0" r="4.5" class="qr-module" />
  <circle cx="305.0" cy="315.0" r="4.5" class="qr-module" />
  <circle cx="345.0" cy="315.0" r="4.5" class="qr-module" />
  <circle cx="25.0" cy="325.0" r="4.5" class="qr-module" />
  <circle cx="35.0" cy="325.0" r="4.5" class="qr-module" />
  <circle cx="45.0" cy="325.0" r="4.5" class="qr-module" />
  <circle cx="55.0" cy="325.0" r="4.5" class="qr-module" />
  <circle cx="65.0" cy="325.0" r="4.5" class="qr-module" />
  <circle cx="75.0" cy="325.0" r="4.5" class="qr-module" />
  <circle cx="85.0" cy="325.0" r="4.5" class="qr-module" />
  <circle cx="105.0" cy="325.0" r="4.5" class="qr-module" />
  <circle cx="115.0" cy="325.0" r="4.5" class="qr-module" />
  <circle cx="135.0" cy="325.0" r="4.5" class="qr-module" />
  <circle cx="145.0" cy="325.0" r="4.5" class="qr-module" />
  <circle cx="165.0" cy="325.0" r="4.5" class="qr-module" />
  <circle cx="205.0" cy="325.0" r="4.5" class="qr-module" />
  <circle cx="225.0" cy="325.0" r="4.5" class="qr-module" />
  <circle cx="235.0" cy="325.0" r="4.5" class="qr-module" />
  <circle cx="245.0" cy="325.0" r="4.5" class="qr-module" />
  <circle cx="255.0" cy="325.0" r="4.5" class="qr-module" />
  <circle cx="265.0" cy="325.0" r="4.5" class="qr-module" />
  <circle cx="275.0" cy="325.0" r="4.5" class="qr-module" />
  <circle cx="285.0" cy="325.0" r="4.5" class="qr-module" />
  <circle cx="305.0" cy="325.0" r="4.5" class="qr-module" />
  <circle cx="325.0" cy="325.0" r="4.5" class="qr-module" />
  <circle cx="345.0" cy="325.0" r="4.5" class="qr-module" />
  <circle cx="365.0" cy="325.0" r="4.5" class="qr-module" />
  <circle cx="385.0" cy="325.0" r="4.5" class="qr-module" />
  <circle cx="25.0" cy="335.0" r="4.5" class="qr-module" />
  <circle cx="85.0" cy="335.0" r="4.5" class="qr-module" />
  <circle cx="105.0" cy="335.0" r="4.5" class="qr-module" />
  <circle cx="125.0" cy="335.0" r="4.5" class="qr-module" />
  <circle cx="135.0" cy="335.0" r="4.5" class="qr-module" />
  <circle cx="145.0" cy="335.0" r="4.5" class="qr-module" />
  <circle cx="175.0" cy="335.0" r="4.5" class="qr-module" />
  <circle cx="185.0" cy="335.0" r="4.5" class="qr-module" />
  <circle cx="215.0" cy="335.0" r="4.5" class="qr-module" />
  <circle cx="245.0" cy="335.0" r="4.5" class="qr-module" />
  <circle cx="255.0" cy="335.0" r="4.5" class="qr-module" />
  <circle cx="265.0" cy="335.0" r="4.5" class="qr-module" />
  <circle cx="295.0" cy="335.0" r="4.5" class="qr-module" />
  <circle cx="305.0" cy="335.0" r="4.5" class="qr-module" />
  <circle cx="345.0" cy="335.0" r="4.5" class="qr-module" />
  <circle cx="355.0" cy="335.0" r="4.5" class="qr-module" />
  <circle cx="25.0" cy="345.0" r="4.5" class="qr-module" />
  <circle cx="45.0" cy="345.0" r="4.5" class="qr-module" />
  <circle cx="55.0" cy="345.0" r="4.5" class="qr-module" />
  <circle cx="65.0" cy="345.0" r="4.5" class="qr-module" />
  <circle cx="85.0" cy="345.0" r="4.5" class="qr-module" />
  <circle cx="115.0" cy="345.0" r="4.5" class="qr-module" />
  <circle cx="125.0" cy="345.0" r="4.5" class="qr-module" />
  <circle cx="145.0" cy="345.0" r="4.5" class="qr-module" />
  <circle cx="175.0" cy="345.0" r="4.5" class="qr-module" />
  <circle cx="215.0" cy="345.0" r="4.5" class="qr-module" />
  <circle cx="225.0" cy="345.0" r="4.5" class="qr-module" />
  <circle cx="235.0" cy="345.0" r="4.5" class="qr-module" />
  <circle cx="265.0" cy="345.0" r="4.5" class="qr-module" />
  <circle cx="295.0" cy="345.0" r="4.5" class="qr-module" />
  <circle cx="305.0" cy="345.0" r="4.5" class="qr-module" />
  <circle cx="315.0" cy="345.0" r="4.5" class="qr-module" />
  <circle cx="325.0" cy="345.0" r="4.5" class="qr-module" />
  <circle cx="335.0" cy="345.0" r="4.5" class="qr-module" />
  <circle cx="345.0" cy="345.0" r="4.5" class="qr-module" />
  <circle cx="355.0" cy="345.0" r="4.5" class="qr-module" />
  <circle cx="375.0" cy="345.0" r="4.5" class="qr-module" />
  <circle cx="385.0" cy="345.0" r="4.5" class="qr-module" />
  <circle cx="25.0" cy="355.0" r="4.5" class="qr-module" />
  <circle cx="45.0" cy="355.0" r="4.5" class="qr-module" />
  <circle cx="55.0" cy="355.0" r="4.5" class="qr-module" />
  <circle cx="65.0" cy="355.0" r="4.5" class="qr-module" />
  <circle cx="85.0" cy="355.0" r="4.5" class="qr-module" />
  <circle cx="135.0" cy="355.0" r="4.5" class="qr-module" />
  <circle cx="145.0" cy="355.0" r="4.5" class="qr-module" />
  <circle cx="155.0" cy="355.0" r="4.5" class="qr-module" />
  <circle cx="165.0" cy="355.0" r="4.5" class="qr-module" />
  <circle cx="175.0" cy="355.0" r="4.5" class="qr-module" />
  <circle cx="185.0" cy="355.0" r="4.5" class="qr-module" />
  <circle cx="205.0" cy="355.0" r="4.5" class="qr-module" />
  <circle cx="215.0" cy="355.0" r="4.5" class="qr-module" />
  <circle cx="225.0" cy="355.0" r="4.5" class="qr-module" />
  <circle cx="245.0" cy="355.0" r="4.5" class="qr-module" />
  <circle cx="265.0" cy="355.0" r="4.5" class="qr-module" />
  <circle cx="285.0" cy="355.0" r="4.5" class="qr-module" />
  <circle cx="295.0" cy="355.0" r="4.5" class="qr-module" />
  <circle cx="315.0" cy="355.0" r="4.5" class="qr-module" />
  <circle cx="345.0" cy="355.0" r="4.5" class="qr-module" />
  <circle cx="355.0" cy="355.0" r="4.5" class="qr-module" />
  <circle cx="365.0" cy="355.0" r="4.5" class="qr-module" />
  <circle cx="385.0" cy="355.0" r="4.5" class="qr-module" />
  <circle cx="25.0" cy="365.0" r="4.5" class="qr-module" />
  <circle cx="45.0" cy="365.0" r="4.5" class="qr-module" />
  <circle cx="55.0" cy="365.0" r="4.5" class="qr-module" />
  <circle cx="65.0" cy="365.0" r="4.5" class="qr-module" />
  <circle cx="85.0" cy="365.0" r="4.5" class="qr-module" />
  <circle cx="105.0" cy="365.0" r="4.5" class="qr-module" />
  <circle cx="115.0" cy="365.0" r="4.5" class="qr-module" />
  <circle cx="145.0" cy="365.0" r="4.5" class="qr-module" />
  <circle cx="155.0" cy="365.0" r="4.5" class="qr-module" />
  <circle cx="175.0" cy="365.0" r="4.5" class="qr-module" />
  <circle cx="185.0" cy="365.0" r="4.5" class="qr-module" />
  <circle cx="225.0" cy="365.0" r="4.5" class="qr-module" />
  <circle cx="245.0" cy="365.0" r="4.5" class="qr-module" />
  <circle cx="265.0" cy="365.0" r="4.5" class="qr-module" />
  <circle cx="275.0" cy="365.0" r="4.5" class="qr-module" />
  <circle cx="295.0" cy="365.0" r="4.5" class="qr-module" />
  <circle cx="305.0" cy="365.0" r="4.5" class="qr-module" />
  <circle cx="315.0" cy="365.0" r="4.5" class="qr-module" />
  <circle cx="325.0" cy="365.0" r="4.5" class="qr-module" />
  <circle cx="345.0" cy="365.0" r="4.5" class="qr-module" />
  <circle cx="365.0" cy="365.0" r="4.5" class="qr-module" />
  <circle cx="375.0" cy="365.0" r="4.5" class="qr-module" />
  <circle cx="385.0" cy="365.0" r="4.5" class="qr-module" />
  <circle cx="25.0" cy="375.0" r="4.5" class="qr-module" />
  <circle cx="85.0" cy="375.0" r="4.5" class="qr-module" />
  <circle cx="115.0" cy="375.0" r="4.5" class="qr-module" />
  <circle cx="125.0" cy="375.0" r="4.5" class="qr-module" />
  <circle cx="185.0" cy="375.0" r="4.5" class="qr-module" />
  <circle cx="255.0" cy="375.0" r="4.5" class="qr-module" />
  <circle cx="265.0" cy="375.0" r="4.5" class="qr-module" />
  <circle cx="285.0" cy="375.0" r="4.5" class="qr-module" />
  <circle cx="305.0" cy="375.0" r="4.5" class="qr-module" />
  <circle cx="335.0" cy="375.0" r="4.5" class="qr-module" />
  <circle cx="345.0" cy="375.0" r="4.5" class="qr-module" />
  <circle cx="355.0" cy="375.0" r="4.5" class="qr-module" />
  <circle cx="25.0" cy="385.0" r="4.5" class="qr-module" />
  <circle cx="35.0" cy="385.0" r="4.5" class="qr-module" />
  <circle cx="45.0" cy="385.0" r="4.5" class="qr-module" />
  <circle cx="55.0" cy="385.0" r="4.5" class="qr-module" />
  <circle cx="65.0" cy="385.0" r="4.5" class="qr-module" />
  <circle cx="75.0" cy="385.0" r="4.5" class="qr-module" />
  <circle cx="85.0" cy="385.0" r="4.5" class="qr-module" />
  <circle cx="115.0" cy="385.0" r="4.5" class="qr-module" />
  <circle cx="125.0" cy="385.0" r="4.5" class="qr-module" />
  <circle cx="145.0" cy="385.0" r="4.5" class="qr-module" />
  <circle cx="165.0" cy="385.0" r="4.5" class="qr-module" />
  <circle cx="185.0" cy="385.0" r="4.5" class="qr-module" />
  <circle cx="205.0" cy="385.0" r="4.5" class="qr-module" />
  <circle cx="215.0" cy="385.0" r="4.5" class="qr-module" />
  <circle cx="265.0" cy="385.0" r="4.5" class="qr-module" />
  <circle cx="285.0" cy="385.0" r="4.5" class="qr-module" />
  <circle cx="305.0" cy="385.0" r="4.5" class="qr-module" />
  <circle cx="315.0" cy="385.0" r="4.5" class="qr-module" />
  <circle cx="325.0" cy="385.0" r="4.5" class="qr-module" />
  <circle cx="355.0" cy="385.0" r="4.5" class="qr-module" />
  <circle cx="385.0" cy="385.0" r="4.5" class="qr-module" />

</g></svg>