<svg width="330" height="330" viewBox="0 0 330 330" xmlns="http://www.w3.org/2000/svg" xmlns:xlink="http://www.w3.org/1999/xlink" id="qr-root" class="interactive-qr" role="img" aria-label="Interactive QR Code" aria-describedby="qr-root-desc" title="Interactive QR Code" aria-labelledby="title-4374181536">
<title>Interactive QR Code</title><desc>QR Code with 25x25 modules</desc>  <rect x="0" y="0" width="330" height="330" class="segnomms-quiet-zone" fill="#ffffff" />
<style type="text/css">
&lt;![CDATA[

        .qr-background {
            pointer-events: none;
        }
        .qr-module {
            transition: all 0.2s ease;
        }
        .qr-finder {
            fill: currentColor;
        }
        .qr-finder-inner {
            fill: var(--qr-bg-color, white);
        }
        .qr-timing {
            fill: currentColor;
        }
        .qr-data {
            fill: currentColor;
        }
        .qr-alignment {
            fill: currentColor;
        }
        .qr-format {
            fill: currentColor;
        }
        .qr-cluster {
            fill: currentColor;
            stroke: none;
        }
        .qr-contour {
            fill: currentColor;
            stroke: none;
        }
        
]]&gt;
</style>
<g role="img" aria-label="QR Code Content">
  <g class="qr-layer-background" aria-hidden="true" />
  <g class="qr-layer-quiet-zone" aria-hidden="true" />
  <g class="qr-layer-modules" role="presentation" fill="#000000">
  <g class="qr-pattern-finder" data-pattern-type="finder" id="qr-finder-99-1" role="group" aria-label="Finder pattern 100">
    <rect x="40" y="40" width="10" height="10" rx="3.0" ry="3.0" class="qr-module" id="qr-finder-1" title="Finder pattern module" />
  <rect x="50" y="40" width="10" height="10" rx="3.0" ry="3.0" class="qr-module" id="qr-finder-2" title="Finder pattern module" />
  <rect x="60" y="40" width="10" height="10" rx="3.0" ry="3.0" class="qr-module" id="qr-finder-3" title="Finder pattern module" />
  <rect x="70" y="40" width="10" height="10" rx="3.0" ry="3.0" class="qr-module" id="qr-finder-4" title="Finder pattern module" />
  <rect x="80" y="40" width="10" height="10" rx="3.0" ry="3.0" class="qr-module" id="qr-finder-5" title="Finder pattern module" />
  <rect x="90" y="40" width="10" height="10" rx="3.0" ry="3.0" class="qr-module" id="qr-finder-6" title="Finder pattern module" />
  <rect x="100" y="40" width="10" height="10" rx="3.0" ry="3.0" class="qr-module" id="qr-finder-7" title="Finder pattern module" />
  <rect x="220" y="40" width="10" height="10" rx="3.0" ry="3.0" class="qr-module" id="qr-finder-12" title="Finder pattern module" />
  <rect x="230" y="40" width="10" height="10" rx="3.0" ry="3.0" class="qr-module" id="qr-finder-13" title="Finder pattern module" />
  <rect x="240" y="40" width="10" height="10" rx="3.0" ry="3.0" class="qr-module" id="qr-finder-14" title="Finder pattern module" />
  <rect x="250" y="40" width="10" height="10" rx="3.0" ry="3.0" class="qr-module" id="qr-finder-15" title="Finder pattern module" />
  <rect x="260" y="40" width="10" height="10" rx="3.0" ry="3.0" class="qr-module" id="qr-finder-16" title="Finder pattern module" />
  <rect x="270" y="40" width="10" height="10" rx="3.0" ry="3.0" class="qr-module" id="qr-finder-17" title="Finder pattern module" />
  <rect x="280" y="40" width="10" height="10" rx="3.0" ry="3.0" class="qr-module" id="qr-finder-18" title="Finder pattern module" />
  <rect x="40" y="50" width="10" height="10" rx="3.0" ry="3.0" class="qr-module" id="qr-finder-19" title="Finder pattern module" />
  <rect x="100" y="50" width="10" height="10" rx="3.0" ry="3.0" class="qr-module" id="qr-finder-20" title="Finder pattern module" />
  <rect x="220" y="50" width="10" height="10" rx="3.0" ry="3.0" class="qr-module" id="qr-finder-26" title="Finder pattern module" />
  <rect x="280" y="50" width="10" height="10" rx="3.0" ry="3.0" class="qr-module" id="qr-finder-27" title="Finder pattern module" />
  <rect x="40" y="60" width="10" height="10" rx="3.0" ry="3.0" class="qr-module" id="qr-finder-28" title="Finder pattern module" />
  <rect x="60" y="60" width="10" height="10" rx="3.0" ry="3.0" class="qr-module" id="qr-finder_inner-29" title="Finder_Inner pattern module" />
  <rect x="70" y="60" width="10" height="10" rx="3.0" ry="3.0" class="qr-module" id="qr-finder_inner-30" title="Finder_Inner pattern module" />
  <rect x="80" y="60" width="10" height="10" rx="3.0" ry="3.0" class="qr-module" id="qr-finder_inner-31" title="Finder_Inner pattern module" />
  <rect x="100" y="60" width="10" height="10" rx="3.0" ry="3.0" class="qr-module" id="qr-finder-32" title="Finder pattern module" />
  <rect x="220" y="60" width="10" height="10" rx="3.0" ry="3.0" class="qr-module" id="qr-finder-40" title="Finder pattern module" />
  <rect x="240" y="60" width="10" height="10" rx="3.0" ry="3.0" class="qr-module" id="qr-finder_inner-41" title="Finder_Inner pattern module" />
  <rect x="250" y="60" width="10" height="10" rx="3.0" ry="3.0" class="qr-module" id="qr-finder_inner-42" title="Finder_Inner pattern module" />
  <rect x="260" y="60" width="10" height="10" rx="3.0" ry="3.0" class="qr-module" id="qr-finder_inner-43" title="Finder_Inner pattern module" />
  <rect x="280" y="60" width="10" height="10" rx="3.0" ry="3.0" class="qr-module" id="qr-finder-44" title="Finder pattern module" />
  <rect x="40" y="70" width="10" height="10" rx="3.0" ry="3.0" class="qr-module" id="qr-finder-45" title="Finder pattern module" />
  <rect x="60" y="70" width="10" height="10" rx="3.0" ry="3.0" class="qr-module" id="qr-finder_inner-46" title="Finder_Inner pattern module" />
  <rect x="70" y="70" width="10" height="10" rx="3.0" ry="3.0" class="qr-module" id="qr-finder_inner-47" title="Finder_Inner pattern module" />
  <rect x="80" y="70" width="10" height="10" rx="3.0" ry="3.0" class="qr-module" id="qr-finder_inner-48" title="Finder_Inner pattern module" />
  <rect x="100" y="70" width="10" height="10" rx="3.0" ry="3.0" class="qr-module" id="qr-finder-49" title="Finder pattern module" />
  <rect x="220" y="70" width="10" height="10" rx="3.0" ry="3.0" class="qr-module" id="qr-finder-56" title="Finder pattern module" />
  <rect x="240" y="70" width="10" height="10" rx="3.0" ry="3.0" class="qr-module" id="qr-finder_inner-57" title="Finder_Inner pattern module" />
  <rect x="250" y="70" width="10" height="10" rx="3.0" ry="3.0" class="qr-module" id="qr-finder_inner-58" title="Finder_Inner pattern module" />
  <rect x="260" y="70" width="10" height="10" rx="3.0" ry="3.0" class="qr-module" id="qr-finder_inner-59" title="Finder_Inner pattern module" />
  <rect x="280" y="70" width="10" height="10" rx="3.0" ry="3.0" class="qr-module" id="qr-finder-60" title="Finder pattern module" />
  <rect x="40" y="80" width="10" height="10" rx="3.0" ry="3.0" class="qr-module" id="qr-finder-61" title="Finder pattern module" />
  <rect x="60" y="80" width="10" height="10" rx="3.0" ry="3.0" class="qr-module" id="qr-finder_inner-62" title="Finder_Inner pattern module" />
  <rect x="70" y="80" width="10" height="10" rx="3.0" ry="3.0" class="qr-module" id="qr-finder_inner-63" title="Finder_Inner pattern module" />
  <rect x="80" y="80" width="10" height="10" rx="3.0" ry="3.0" class="qr-module" id="qr-finder_inner-64" title="Finder_Inner pattern module" />
  <rect x="100" y="80" width="10" height="10" rx="3.0" ry="3.0" class="qr-module" id="qr-finder-65" title="Finder pattern module" />
  <rect x="220" y="80" width="10" height="10" rx="3.0" ry="3.0" class="qr-module" id="qr-finder-72" title="Finder pattern module" />
  <rect x="240" y="80" width="10" height="10" rx="3.0" ry="3.0" class="qr-module" id="qr-finder_inner-73" title="Finder_Inner pattern module" />
  <rect x="250" y="80" width="10" height="10" rx="3.0" ry="3.0" class="qr-module" id="qr-finder_inner-74" title="Finder_Inner pattern module" />
  <rect x="260" y="80" width="10" height="10" rx="3.0" ry="3.0" class="qr-module" id="qr-finder_inner-75" title="Finder_Inner pattern module" />
  <rect x="280" y="80" width="10" height="10" rx="3.0" ry="3.0" class="qr-module" id="qr-finder-76" title="Finder pattern module" />
  <rect x="40" y="90" width="10" height="10" rx="3.0" ry="3.0" class="qr-module" id="qr-finder-77" title="Finder pattern module" />
  <rect x="100" y="90" width="10" height="10" rx="3.0" ry="3.0" class="qr-module" id="qr-finder-78" title="Finder pattern module" />
  <rect x="220" y="90" width="10" height="10" rx="3.0" ry="3.0" class="qr-module" id="qr-finder-82" title="Finder pattern module" />
  <rect x="280" y="90" width="10" height="10" rx="3.0" ry="3.0" class="qr-module" id="qr-finder-83" title="Finder pattern module" />
  <rect x="40" y="100" width="10" height="10" rx="3.0" ry="3.0" class="qr-module" id="qr-finder-84" title="Finder pattern module" />
  <rect x="50" y="100" width="10" height="10" rx="3.0" ry="3.0" class="qr-module" id="qr-finder-85" title="Finder pattern module" />
  <rect x="60" y="100" width="10" height="10" rx="3.0" ry="3.0" class="qr-module" id="qr-finder-86" title="Finder pattern module" />
  <rect x="70" y="100" width="10" height="10" rx="3.0" ry="3.0" class="qr-module" id="qr-finder-87" title="Finder pattern module" />
  <rect x="80" y="100" width="10" height="10" rx="3.0" ry="3.0" class="qr-module" id="qr-finder-88" title="Finder pattern module" />
  <rect x="90" y="100" width="10" height="10" rx="3.0" ry="3.0" class="qr-module" id="qr-finder-89" title="Finder pattern module" />
  <rect x="100" y="100" width="10" height="10" rx="3.0" ry="3.0" class="qr-module" id="qr-finder-90" title="Finder pattern module" />
  <rect x="220" y="100" width="10" height="10" rx="3.0" ry="3.0" class="qr-module" id="qr-finder-96" title="Finder pattern module" />
  <rect x="230" y="100" width="10" height="10" rx="3.0" ry="3.0" class="qr-module" id="qr-finder-97" title="Finder pattern module" />
  <rect x="240" y="100" width="10" height="10" rx="3.0" ry="3.0" class="qr-module" id="qr-finder-98" title="Finder pattern module" />
  <rect x="250" y="100" width="10" height="10" rx="3.0" ry="3.0" class="qr-module" id="qr-finder-99" title="Finder pattern module" />
  <rect x="260" y="100" width="10" height="10" rx="3.0" ry="3.0" class="qr-module" id="qr-finder-100" title="Finder pattern module" />
  <rect x="270" y="100" width="10" height="10" rx="3.0" ry="3.0" class="qr-module" id="qr-finder-101" title="Finder pattern module" />
  <rect x="280" y="100" width="10" height="10" rx="3.0" ry="3.0" class="qr-module" id="qr-finder-102" title="Finder pattern module" />
  <rect x="40" y="220" width="10" height="10" rx="3.0" ry="3.0" class="qr-module" id="qr-finder-240" title="Finder pattern module" />
  <rect x="50" y="220" width="10" height="10" rx="3.0" ry="3.0" class="qr-module" id="qr-finder-241" title="Finder pattern module" />
  <rect x="60" y="220" width="10" height="10" rx="3.0" ry="3.0" class="qr-module" id="qr-finder-242" title="Finder pattern module" />
  <rect x="70" y="220" width="10" height="10" rx="3.0" ry="3.0" class="qr-module" id="qr-finder-243" title="Finder pattern module" />
  <rect x="80" y="220" width="10" height="10" rx="3.0" ry="3.0" class="qr-module" id="qr-finder-244" title="Finder pattern module" />
  <rect x="90" y="220" width="10" height="10" rx="3.0" ry="3.0" class="qr-module" id="qr-finder-245" title="Finder pattern module" />
  <rect x="100" y="220" width="10" height="10" rx="3.0" ry="3.0" class="qr-module" id="qr-finder-246" title="Finder pattern module" />
  <rect x="40" y="230" width="10" height="10" rx="3.0" ry="3.0" class="qr-module" id="qr-finder-254" title="Finder pattern module" />
  <rect x="100" y="230" width="10" height="10" rx="3.0" ry="3.0" class="qr-module" id="qr-finder-255" title="Finder pattern module" />
  <rect x="40" y="240" width="10" height="10" rx="3.0" ry="3.0" class="qr-module" id="qr-finder-265" title="Finder pattern module" />
  <rect x="60" y="240" width="10" height="10" rx="3.0" ry="3.0" class="qr-module" id="qr-finder_inner-266" title="Finder_Inner pattern module" />
  <rect x="70" y="240" width="10" height="10" rx="3.0" ry="3.0" class="qr-module" id="qr-finder_inner-267" title="Finder_Inner pattern module" />
  <rect x="80" y="240" width="10" height="10" rx="3.0" ry="3.0" class="qr-module" id="qr-finder_inner-268" title="Finder_Inner pattern module" />
  <rect x="100" y="240" width="10" height="10" rx="3.0" ry="3.0" class="qr-module" id="qr-finder-269" title="Finder pattern module" />
  <rect x="40" y="250" width="10" height="10" rx="3.0" ry="3.0" class="qr-module" id="qr-finder-282" title="Finder pattern module" />
  <rect x="60" y="250" width="10" height="10" rx="3.0" ry="3.0" class="qr-module" id="qr-finder_inner-283" title="Finder_Inner pattern module" />
  <rect x="70" y="250" width="10" height="10" rx="3.0" ry="3.0" class="qr-module" id="qr-finder_inner-284" title="Finder_Inner pattern module" />
  <rect x="80" y="250" width="10" height="10" rx="3.0" ry="3.0" class="qr-module" id="qr-finder_inner-285" title="Finder_Inner pattern module" />
  <rect x="100" y="250" width="10" height="10" rx="3.0" ry="3.0" class="qr-module" id="qr-finder-286" title="Finder pattern module" />
  <rect x="40" y="260" width="10" height="10" rx="3.0" ry="3.0" class="qr-module" id="qr-finder-296" title="Finder pattern module" />
  <rect x="60" y="260" width="10" height="10" rx="3.0" ry="3.0" class="qr-module" id="qr-finder_inner-297" title="Finder_Inner pattern module" />
  <rect x="70" y="260" width="10" height="10" rx="3.0" ry="3.0" class="qr-module" id="qr-finder_inner-298" title="Finder_Inner pattern module" />
  <rect x="80" y="260" width="10" height="10" rx="3.0" ry="3.0" class="qr-module" id="qr-finder_inner-299" title="Finder_Inner pattern module" />
  <rect x="100" y="260" width="10" height="10" rx="3.0" ry="3.0" class="qr-module" id="qr-finder-300" title="Finder pattern module" />
  <rect x="40" y="270" width="10" height="10" rx="3.0" ry="3.0" class="qr-module" id="qr-finder-313" title="Finder pattern module" />
  <rect x="100" y="270" width="10" height="10" rx="3.0" ry="3.0" class="qr-module" id="qr-finder-314" title="Finder pattern module" />
  <rect x="40" y="280" width="10" height="10" rx="3.0" ry="3.0" class="qr-module" id="qr-finder-325" title="Finder pattern module" />
  <rect x="50" y="280" width="10" height="10" rx="3.0" ry="3.0" class="qr-module" id="qr-finder-326" title="Finder pattern module" />
  <rect x="60" y="280" width="10" height="10" rx="3.0" ry="3.0" class="qr-module" id="qr-finder-327" title="Finder pattern module" />
  <rect x="70" y="280" width="10" height="10" rx="3.0" ry="3.0" class="qr-module" id="qr-finder-328" title="Finder pattern module" />
  <rect x="80" y="280" width="10" height="10" rx="3.0" ry="3.0" class="qr-module" id="qr-finder-329" title="Finder pattern module" />
  <rect x="90" y="280" width="10" height="10" rx="3.0" ry="3.0" class="qr-module" id="qr-finder-330" title="Finder pattern module" />
  <rect x="100" y="280" width="10" height="10" rx="3.0" ry="3.0" class="qr-module" id="qr-finder-331" title="Finder pattern module" />

</g><g class="qr-pattern-timing" data-pattern-type="timing" id="qr-timing-10" role="group" aria-label="Timing pattern">
    <rect x="120" y="100" width="10" height="10" rx="3.0" ry="3.0" class="qr-module" id="qr-timing-91" title="Timing pattern module" />
  <rect x="140" y="100" width="10" height="10" rx="3.0" ry="3.0" class="qr-module" id="qr-timing-92" title="Timing pattern module" />
  <rect x="160" y="100" width="10" height="10" rx="3.0" ry="3.0" class="qr-module" id="qr-timing-93" title="Timing pattern module" />
  <rect x="180" y="100" width="10" height="10" rx="3.0" ry="3.0" class="qr-module" id="qr-timing-94" title="Timing pattern module" />
  <rect x="200" y="100" width="10" height="10" rx="3.0" ry="3.0" class="qr-module" id="qr-timing-95" title="Timing pattern module" />
  <rect x="100" y="120" width="10" height="10" rx="3.0" ry="3.0" class="qr-module" id="qr-timing-113" title="Timing pattern module" />
  <rect x="100" y="140" width="10" height="10" rx="3.0" ry="3.0" class="qr-module" id="qr-timing-141" title="Timing pattern module" />
  <rect x="100" y="160" width="10" height="10" rx="3.0" ry="3.0" class="qr-module" id="qr-timing-167" title="Timing pattern module" />
  <rect x="100" y="180" width="10" height="10" rx="3.0" ry="3.0" class="qr-module" id="qr-timing-190" title="Timing pattern module" />
  <rect x="100" y="200" width="10" height="10" rx="3.0" ry="3.0" class="qr-module" id="qr-timing-218" title="Timing pattern module" />

</g><g class="qr-pattern-alignment" data-pattern-type="alignment" id="qr-alignment-16" role="group" aria-label="Alignment pattern 17">
    <rect x="200" y="200" width="10" height="10" rx="3.0" ry="3.0" class="qr-module" id="qr-alignment-224" title="Alignment pattern module" />
  <rect x="210" y="200" width="10" height="10" rx="3.0" ry="3.0" class="qr-module" id="qr-alignment-225" title="Alignment pattern module" />
  <rect x="220" y="200" width="10" height="10" rx="3.0" ry="3.0" class="qr-module" id="qr-alignment-226" title="Alignment pattern module" />
  <rect x="230" y="200" width="10" height="10" rx="3.0" ry="3.0" class="qr-module" id="qr-alignment-227" title="Alignment pattern module" />
  <rect x="240" y="200" width="10" height="10" rx="3.0" ry="3.0" class="qr-module" id="qr-alignment-228" title="Alignment pattern module" />
  <rect x="200" y="210" width="10" height="10" rx="3.0" ry="3.0" class="qr-module" id="qr-alignment-236" title="Alignment pattern module" />
  <rect x="240" y="210" width="10" height="10" rx="3.0" ry="3.0" class="qr-module" id="qr-alignment-237" title="Alignment pattern module" />
  <rect x="200" y="220" width="10" height="10" rx="3.0" ry="3.0" class="qr-module" id="qr-alignment-250" title="Alignment pattern module" />
  <rect x="240" y="220" width="10" height="10" rx="3.0" ry="3.0" class="qr-module" id="qr-alignment-252" title="Alignment pattern module" />
  <rect x="200" y="230" width="10" height="10" rx="3.0" ry="3.0" class="qr-module" id="qr-alignment-262" title="Alignment pattern module" />
  <rect x="240" y="230" width="10" height="10" rx="3.0" ry="3.0" class="qr-module" id="qr-alignment-263" title="Alignment pattern module" />
  <rect x="200" y="240" width="10" height="10" rx="3.0" ry="3.0" class="qr-module" id="qr-alignment-276" title="Alignment pattern module" />
  <rect x="210" y="240" width="10" height="10" rx="3.0" ry="3.0" class="qr-module" id="qr-alignment-277" title="Alignment pattern module" />
  <rect x="220" y="240" width="10" height="10" rx="3.0" ry="3.0" class="qr-module" id="qr-alignment-278" title="Alignment pattern module" />
  <rect x="230" y="240" width="10" height="10" rx="3.0" ry="3.0" class="qr-module" id="qr-alignment-279" title="Alignment pattern module" />
  <rect x="240" y="240" width="10" height="10" rx="3.0" ry="3.0" class="qr-module" id="qr-alignment-280" title="Alignment pattern module" />

</g><g class="qr-pattern-format" data-pattern-type="format" id="qr-format-18" role="group" aria-label="Format information">
    <rect x="120" y="50" width="10" height="10" rx="3.0" ry="3.0" class="qr-module" id="qr-format-21" title="Format pattern module" />
  <rect x="120" y="70" width="10" height="10" rx="3.0" ry="3.0" class="qr-module" id="qr-format-50" title="Format pattern module" />
  <rect x="120" y="80" width="10" height="10" rx="3.0" ry="3.0" class="qr-module" id="qr-format-66" title="Format pattern module" />
  <rect x="120" y="110" width="10" height="10" rx="3.0" ry="3.0" class="qr-module" id="qr-format-103" title="Format pattern module" />
  <rect x="50" y="120" width="10" height="10" rx="3.0" ry="3.0" class="qr-module" id="qr-format-109" title="Format pattern module" />
  <rect x="70" y="120" width="10" height="10" rx="3.0" ry="3.0" class="qr-module" id="qr-format-110" title="Format pattern module" />
  <rect x="80" y="120" width="10" height="10" rx="3.0" ry="3.0" class="qr-module" id="qr-format-111" title="Format pattern module" />
  <rect x="90" y="120" width="10" height="10" rx="3.0" ry="3.0" class="qr-module" id="qr-format-112" title="Format pattern module" />
  <rect x="120" y="120" width="10" height="10" rx="3.0" ry="3.0" class="qr-module" id="qr-format-114" title="Format pattern module" />
  <rect x="210" y="120" width="10" height="10" rx="3.0" ry="3.0" class="qr-module" id="qr-format-118" title="Format pattern module" />
  <rect x="220" y="120" width="10" height="10" rx="3.0" ry="3.0" class="qr-module" id="qr-format-119" title="Format pattern module" />
  <rect x="240" y="120" width="10" height="10" rx="3.0" ry="3.0" class="qr-module" id="qr-format-120" title="Format pattern module" />
  <rect x="250" y="120" width="10" height="10" rx="3.0" ry="3.0" class="qr-module" id="qr-format-121" title="Format pattern module" />
  <rect x="270" y="120" width="10" height="10" rx="3.0" ry="3.0" class="qr-module" id="qr-format-122" title="Format pattern module" />
  <rect x="120" y="230" width="10" height="10" rx="3.0" ry="3.0" class="qr-module" id="qr-format-256" title="Format pattern module" />
  <rect x="120" y="240" width="10" height="10" rx="3.0" ry="3.0" class="qr-module" id="qr-format-270" title="Format pattern module" />
  <rect x="120" y="250" width="10" height="10" rx="3.0" ry="3.0" class="qr-module" id="qr-format-287" title="Format pattern module" />
  <rect x="120" y="270" width="10" height="10" rx="3.0" ry="3.0" class="qr-module" id="qr-format-315" title="Format pattern module" />

</g><g class="qr-pattern-version" data-pattern-type="version" />
  <g class="qr-pattern-data" data-pattern-type="data" id="qr-data-195-1" role="group" aria-label="Data modules">
    <rect x="130" y="40" width="10" height="10" rx="3.0" ry="3.0" class="qr-module" id="qr-data-8" />
  <rect x="140" y="40" width="10" height="10" rx="3.0" ry="3.0" class="qr-module" id="qr-data-9" />
  <rect x="160" y="40" width="10" height="10" rx="3.0" ry="3.0" class="qr-module" id="qr-data-10" />
  <rect x="180" y="40" width="10" height="10" rx="3.0" ry="3.0" class="qr-module" id="qr-data-11" />
  <rect x="130" y="50" width="10" height="10" rx="3.0" ry="3.0" class="qr-module" id="qr-data-22" />
  <rect x="140" y="50" width="10" height="10" rx="3.0" ry="3.0" class="qr-module" id="qr-data-23" />
  <rect x="150" y="50" width="10" height="10" rx="3.0" ry="3.0" class="qr-module" id="qr-data-24" />
  <rect x="200" y="50" width="10" height="10" rx="3.0" ry="3.0" class="qr-module" id="qr-data-25" />
  <rect x="130" y="60" width="10" height="10" rx="3.0" ry="3.0" class="qr-module" id="qr-data-33" />
  <rect x="140" y="60" width="10" height="10" rx="3.0" ry="3.0" class="qr-module" id="qr-data-34" />
  <rect x="150" y="60" width="10" height="10" rx="3.0" ry="3.0" class="qr-module" id="qr-data-35" />
  <rect x="160" y="60" width="10" height="10" rx="3.0" ry="3.0" class="qr-module" id="qr-data-36" />
  <rect x="170" y="60" width="10" height="10" rx="3.0" ry="3.0" class="qr-module" id="qr-data-37" />
  <rect x="180" y="60" width="10" height="10" rx="3.0" ry="3.0" class="qr-module" id="qr-data-38" />
  <rect x="200" y="60" width="10" height="10" rx="3.0" ry="3.0" class="qr-module" id="qr-data-39" />
  <rect x="140" y="70" width="10" height="10" rx="3.0" ry="3.0" class="qr-module" id="qr-data-51" />
  <rect x="150" y="70" width="10" height="10" rx="3.0" ry="3.0" class="qr-module" id="qr-data-52" />
  <rect x="160" y="70" width="10" height="10" rx="3.0" ry="3.0" class="qr-module" id="qr-data-53" />
  <rect x="170" y="70" width="10" height="10" rx="3.0" ry="3.0" class="qr-module" id="qr-data-54" />
  <rect x="200" y="70" width="10" height="10" rx="3.0" ry="3.0" class="qr-module" id="qr-data-55" />
  <rect x="130" y="80" width="10" height="10" rx="3.0" ry="3.0" class="qr-module" id="qr-data-67" />
  <rect x="150" y="80" width="10" height="10" rx="3.0" ry="3.0" class="qr-module" id="qr-data-68" />
  <rect x="170" y="80" width="10" height="10" rx="3.0" ry="3.0" class="qr-module" id="qr-data-69" />
  <rect x="180" y="80" width="10" height="10" rx="3.0" ry="3.0" class="qr-module" id="qr-data-70" />
  <rect x="200" y="80" width="10" height="10" rx="3.0" ry="3.0" class="qr-module" id="qr-data-71" />
  <rect x="140" y="90" width="10" height="10" rx="3.0" ry="3.0" class="qr-module" id="qr-data-79" />
  <rect x="180" y="90" width="10" height="10" rx="3.0" ry="3.0" class="qr-module" id="qr-data-80" />
  <rect x="200" y="90" width="10" height="10" rx="3.0" ry="3.0" class="qr-module" id="qr-data-81" />
  <rect x="150" y="110" width="10" height="10" rx="3.0" ry="3.0" class="qr-module" id="qr-data-104" />
  <rect x="160" y="110" width="10" height="10" rx="3.0" ry="3.0" class="qr-module" id="qr-data-105" />
  <rect x="170" y="110" width="10" height="10" rx="3.0" ry="3.0" class="qr-module" id="qr-data-106" />
  <rect x="190" y="110" width="10" height="10" rx="3.0" ry="3.0" class="qr-module" id="qr-data-107" />
  <rect x="200" y="110" width="10" height="10" rx="3.0" ry="3.0" class="qr-module" id="qr-data-108" />
  <rect x="130" y="120" width="10" height="10" rx="3.0" ry="3.0" class="qr-module" id="qr-data-115" />
  <rect x="170" y="120" width="10" height="10" rx="3.0" ry="3.0" class="qr-module" id="qr-data-116" />
  <rect x="200" y="120" width="10" height="10" rx="3.0" ry="3.0" class="qr-module" id="qr-data-117" />
  <rect x="50" y="130" width="10" height="10" rx="3.0" ry="3.0" class="qr-module" id="qr-data-123" />
  <rect x="60" y="130" width="10" height="10" rx="3.0" ry="3.0" class="qr-module" id="qr-data-124" />
  <rect x="80" y="130" width="10" height="10" rx="3.0" ry="3.0" class="qr-module" id="qr-data-125" />
  <rect x="90" y="130" width="10" height="10" rx="3.0" ry="3.0" class="qr-module" id="qr-data-126" />
  <rect x="140" y="130" width="10" height="10" rx="3.0" ry="3.0" class="qr-module" id="qr-data-127" />
  <rect x="160" y="130" width="10" height="10" rx="3.0" ry="3.0" class="qr-module" id="qr-data-128" />
  <rect x="180" y="130" width="10" height="10" rx="3.0" ry="3.0" class="qr-module" id="qr-data-129" />
  <rect x="190" y="130" width="10" height="10" rx="3.0" ry="3.0" class="qr-module" id="qr-data-130" />
  <rect x="200" y="130" width="10" height="10" rx="3.0" ry="3.0" class="qr-module" id="qr-data-131" />
  <rect x="210" y="130" width="10" height="10" rx="3.0" ry="3.0" class="qr-module" id="qr-data-132" />
  <rect x="230" y="130" width="10" height="10" rx="3.0" ry="3.0" class="qr-module" id="qr-data-133" />
  <rect x="240" y="130" width="10" height="10" rx="3.0" ry="3.0" class="qr-module" id="qr-data-134" />
  <rect x="250" y="130" width="10" height="10" rx="3.0" ry="3.0" class="qr-module" id="qr-data-135" />
  <rect x="260" y="130" width="10" height="10" rx="3.0" ry="3.0" class="qr-module" id="qr-data-136" />
  <rect x="270" y="130" width="10" height="10" rx="3.0" ry="3.0" class="qr-module" id="qr-data-137" />
  <rect x="40" y="140" width="10" height="10" rx="3.0" ry="3.0" class="qr-module" id="qr-data-138" />
  <rect x="70" y="140" width="10" height="10" rx="3.0" ry="3.0" class="qr-module" id="qr-data-139" />
  <rect x="80" y="140" width="10" height="10" rx="3.0" ry="3.0" class="qr-module" id="qr-data-140" />
  <rect x="130" y="140" width="10" height="10" rx="3.0" ry="3.0" class="qr-module" id="qr-data-142" />
  <rect x="180" y="140" width="10" height="10" rx="3.0" ry="3.0" class="qr-module" id="qr-data-143" />
  <rect x="190" y="140" width="10" height="10" rx="3.0" ry="3.0" class="qr-module" id="qr-data-144" />
  <rect x="200" y="140" width="10" height="10" rx="3.0" ry="3.0" class="qr-module" id="qr-data-145" />
  <rect x="210" y="140" width="10" height="10" rx="3.0" ry="3.0" class="qr-module" id="qr-data-146" />
  <rect x="230" y="140" width="10" height="10" rx="3.0" ry="3.0" class="qr-module" id="qr-data-147" />
  <rect x="240" y="140" width="10" height="10" rx="3.0" ry="3.0" class="qr-module" id="qr-data-148" />
  <rect x="250" y="140" width="10" height="10" rx="3.0" ry="3.0" class="qr-module" id="qr-data-149" />
  <rect x="280" y="140" width="10" height="10" rx="3.0" ry="3.0" class="qr-module" id="qr-data-150" />
  <rect x="40" y="150" width="10" height="10" rx="3.0" ry="3.0" class="qr-module" id="qr-data-151" />
  <rect x="80" y="150" width="10" height="10" rx="3.0" ry="3.0" class="qr-module" id="qr-data-152" />
  <rect x="90" y="150" width="10" height="10" rx="3.0" ry="3.0" class="qr-module" id="qr-data-153" />
  <rect x="120" y="150" width="10" height="10" rx="3.0" ry="3.0" class="qr-module" id="qr-data-154" />
  <rect x="160" y="150" width="10" height="10" rx="3.0" ry="3.0" class="qr-module" id="qr-data-155" />
  <rect x="210" y="150" width="10" height="10" rx="3.0" ry="3.0" class="qr-module" id="qr-data-156" />
  <rect x="220" y="150" width="10" height="10" rx="3.0" ry="3.0" class="qr-module" id="qr-data-157" />
  <rect x="230" y="150" width="10" height="10" rx="3.0" ry="3.0" class="qr-module" id="qr-data-158" />
  <rect x="250" y="150" width="10" height="10" rx="3.0" ry="3.0" class="qr-module" id="qr-data-159" />
  <rect x="260" y="150" width="10" height="10" rx="3.0" ry="3.0" class="qr-module" id="qr-data-160" />
  <rect x="270" y="150" width="10" height="10" rx="3.0" ry="3.0" class="qr-module" id="qr-data-161" />
  <rect x="280" y="150" width="10" height="10" rx="3.0" ry="3.0" class="qr-module" id="qr-data-162" />
  <rect x="40" y="160" width="10" height="10" rx="3.0" ry="3.0" class="qr-module" id="qr-data-163" />
  <rect x="50" y="160" width="10" height="10" rx="3.0" ry="3.0" class="qr-module" id="qr-data-164" />
  <rect x="60" y="160" width="10" height="10" rx="3.0" ry="3.0" class="qr-module" id="qr-data-165" />
  <rect x="70" y="160" width="10" height="10" rx="3.0" ry="3.0" class="qr-module" id="qr-data-166" />
  <rect x="110" y="160" width="10" height="10" rx="3.0" ry="3.0" class="qr-module" id="qr-data-168" />
  <rect x="170" y="160" width="10" height="10" rx="3.0" ry="3.0" class="qr-module" id="qr-data-169" />
  <rect x="180" y="160" width="10" height="10" rx="3.0" ry="3.0" class="qr-module" id="qr-data-170" />
  <rect x="190" y="160" width="10" height="10" rx="3.0" ry="3.0" class="qr-module" id="qr-data-171" />
  <rect x="200" y="160" width="10" height="10" rx="3.0" ry="3.0" class="qr-module" id="qr-data-172" />
  <rect x="220" y="160" width="10" height="10" rx="3.0" ry="3.0" class="qr-module" id="qr-data-173" />
  <rect x="230" y="160" width="10" height="10" rx="3.0" ry="3.0" class="qr-module" id="qr-data-174" />
  <rect x="280" y="160" width="10" height="10" rx="3.0" ry="3.0" class="qr-module" id="qr-data-175" />
  <rect x="40" y="170" width="10" height="10" rx="3.0" ry="3.0" class="qr-module" id="qr-data-176" />
  <rect x="50" y="170" width="10" height="10" rx="3.0" ry="3.0" class="qr-module" id="qr-data-177" />
  <rect x="70" y="170" width="10" height="10" rx="3.0" ry="3.0" class="qr-module" id="qr-data-178" />
  <rect x="80" y="170" width="10" height="10" rx="3.0" ry="3.0" class="qr-module" id="qr-data-179" />
  <rect x="130" y="170" width="10" height="10" rx="3.0" ry="3.0" class="qr-module" id="qr-data-180" />
  <rect x="150" y="170" width="10" height="10" rx="3.0" ry="3.0" class="qr-module" id="qr-data-181" />
  <rect x="180" y="170" width="10" height="10" rx="3.0" ry="3.0" class="qr-module" id="qr-data-182" />
  <rect x="190" y="170" width="10" height="10" rx="3.0" ry="3.0" class="qr-module" id="qr-data-183" />
  <rect x="200" y="170" width="10" height="10" rx="3.0" ry="3.0" class="qr-module" id="qr-data-184" />
  <rect x="240" y="170" width="10" height="10" rx="3.0" ry="3.0" class="qr-module" id="qr-data-185" />
  <rect x="270" y="170" width="10" height="10" rx="3.0" ry="3.0" class="qr-module" id="qr-data-186" />
  <rect x="40" y="180" width="10" height="10" rx="3.0" ry="3.0" class="qr-module" id="qr-data-187" />
  <rect x="50" y="180" width="10" height="10" rx="3.0" ry="3.0" class="qr-module" id="qr-data-188" />
  <rect x="70" y="180" width="10" height="10" rx="3.0" ry="3.0" class="qr-module" id="qr-data-189" />
  <rect x="110" y="180" width="10" height="10" rx="3.0" ry="3.0" class="qr-module" id="qr-data-191" />
  <rect x="130" y="180" width="10" height="10" rx="3.0" ry="3.0" class="qr-module" id="qr-data-192" />
  <rect x="160" y="180" width="10" height="10" rx="3.0" ry="3.0" class="qr-module" id="qr-data-193" />
  <rect x="170" y="180" width="10" height="10" rx="3.0" ry="3.0" class="qr-module" id="qr-data-194" />
  <rect x="190" y="180" width="10" height="10" rx="3.0" ry="3.0" class="qr-module" id="qr-data-195" />
  <rect x="200" y="180" width="10" height="10" rx="3.0" ry="3.0" class="qr-module" id="qr-data-196" />
  <rect x="220" y="180" width="10" height="10" rx="3.0" ry="3.0" class="qr-module" id="qr-data-197" />
  <rect x="240" y="180" width="10" height="10" rx="3.0" ry="3.0" class="qr-module" id="qr-data-198" />
  <rect x="250" y="180" width="10" height="10" rx="3.0" ry="3.0" class="qr-module" id="qr-data-199" />
  <rect x="260" y="180" width="10" height="10" rx="3.0" ry="3.0" class="qr-module" id="qr-data-200" />
  <rect x="270" y="180" width="10" height="10" rx="3.0" ry="3.0" class="qr-module" id="qr-data-201" />
  <rect x="280" y="180" width="10" height="10" rx="3.0" ry="3.0" class="qr-module" id="qr-data-202" />
  <rect x="40" y="190" width="10" height="10" rx="3.0" ry="3.0" class="qr-module" id="qr-data-203" />
  <rect x="60" y="190" width="10" height="10" rx="3.0" ry="3.0" class="qr-module" id="qr-data-204" />
  <rect x="80" y="190" width="10" height="10" rx="3.0" ry="3.0" class="qr-module" id="qr-data-205" />
  <rect x="90" y="190" width="10" height="10" rx="3.0" ry="3.0" class="qr-module" id="qr-data-206" />
  <rect x="130" y="190" width="10" height="10" rx="3.0" ry="3.0" class="qr-module" id="qr-data-207" />
  <rect x="160" y="190" width="10" height="10" rx="3.0" ry="3.0" class="qr-module" id="qr-data-208" />
  <rect x="210" y="190" width="10" height="10" rx="3.0" ry="3.0" class="qr-module" id="qr-data-209" />
  <rect x="220" y="190" width="10" height="10" rx="3.0" ry="3.0" class="qr-module" id="qr-data-210" />
  <rect x="230" y="190" width="10" height="10" rx="3.0" ry="3.0" class="qr-module" id="qr-data-211" />
  <rect x="250" y="190" width="10" height="10" rx="3.0" ry="3.0" class="qr-module" id="qr-data-212" />
  <rect x="260" y="190" width="10" height="10" rx="3.0" ry="3.0" class="qr-module" id="qr-data-213" />
  <rect x="280" y="190" width="10" height="10" rx="3.0" ry="3.0" class="qr-module" id="qr-data-214" />
  <rect x="40" y="200" width="10" height="10" rx="3.0" ry="3.0" class="qr-module" id="qr-data-215" />
  <rect x="70" y="200" width="10" height="10" rx="3.0" ry="3.0" class="qr-module" id="qr-data-216" />
  <rect x="90" y="200" width="10" height="10" rx="3.0" ry="3.0" class="qr-module" id="qr-data-217" />
  <rect x="120" y="200" width="10" height="10" rx="3.0" ry="3.0" class="qr-module" id="qr-data-219" />
  <rect x="130" y="200" width="10" height="10" rx="3.0" ry="3.0" class="qr-module" id="qr-data-220" />
  <rect x="140" y="200" width="10" height="10" rx="3.0" ry="3.0" class="qr-module" id="qr-data-221" />
  <rect x="170" y="200" width="10" height="10" rx="3.0" ry="3.0" class="qr-module" id="qr-data-222" />
  <rect x="180" y="200" width="10" height="10" rx="3.0" ry="3.0" class="qr-module" id="qr-data-223" />
  <rect x="260" y="200" width="10" height="10" rx="3.0" ry="3.0" class="qr-module" id="qr-data-229" />
  <rect x="270" y="200" width="10" height="10" rx="3.0" ry="3.0" class="qr-module" id="qr-data-230" />
  <rect x="120" y="210" width="10" height="10" rx="3.0" ry="3.0" class="qr-module" id="qr-dark-231" title="Dark pattern module" />
  <rect x="140" y="210" width="10" height="10" rx="3.0" ry="3.0" class="qr-module" id="qr-data-232" />
  <rect x="150" y="210" width="10" height="10" rx="3.0" ry="3.0" class="qr-module" id="qr-data-233" />
  <rect x="160" y="210" width="10" height="10" rx="3.0" ry="3.0" class="qr-module" id="qr-data-234" />
  <rect x="170" y="210" width="10" height="10" rx="3.0" ry="3.0" class="qr-module" id="qr-data-235" />
  <rect x="260" y="210" width="10" height="10" rx="3.0" ry="3.0" class="qr-module" id="qr-data-238" />
  <rect x="270" y="210" width="10" height="10" rx="3.0" ry="3.0" class="qr-module" id="qr-data-239" />
  <rect x="130" y="220" width="10" height="10" rx="3.0" ry="3.0" class="qr-module" id="qr-data-247" />
  <rect x="140" y="220" width="10" height="10" rx="3.0" ry="3.0" class="qr-module" id="qr-data-248" />
  <rect x="160" y="220" width="10" height="10" rx="3.0" ry="3.0" class="qr-module" id="qr-data-249" />
  <rect x="220" y="220" width="10" height="10" rx="3.0" ry="3.0" class="qr-module" id="qr-alignment_center-251" title="Alignment_Center pattern module" />
  <rect x="280" y="220" width="10" height="10" rx="3.0" ry="3.0" class="qr-module" id="qr-data-253" />
  <rect x="130" y="230" width="10" height="10" rx="3.0" ry="3.0" class="qr-module" id="qr-data-257" />
  <rect x="150" y="230" width="10" height="10" rx="3.0" ry="3.0" class="qr-module" id="qr-data-258" />
  <rect x="160" y="230" width="10" height="10" rx="3.0" ry="3.0" class="qr-module" id="qr-data-259" />
  <rect x="180" y="230" width="10" height="10" rx="3.0" ry="3.0" class="qr-module" id="qr-data-260" />
  <rect x="190" y="230" width="10" height="10" rx="3.0" ry="3.0" class="qr-module" id="qr-data-261" />
  <rect x="270" y="230" width="10" height="10" rx="3.0" ry="3.0" class="qr-module" id="qr-data-264" />
  <rect x="130" y="240" width="10" height="10" rx="3.0" ry="3.0" class="qr-module" id="qr-data-271" />
  <rect x="150" y="240" width="10" height="10" rx="3.0" ry="3.0" class="qr-module" id="qr-data-272" />
  <rect x="160" y="240" width="10" height="10" rx="3.0" ry="3.0" class="qr-module" id="qr-data-273" />
  <rect x="180" y="240" width="10" height="10" rx="3.0" ry="3.0" class="qr-module" id="qr-data-274" />
  <rect x="190" y="240" width="10" height="10" rx="3.0" ry="3.0" class="qr-module" id="qr-data-275" />
  <rect x="280" y="240" width="10" height="10" rx="3.0" ry="3.0" class="qr-module" id="qr-data-281" />
  <rect x="140" y="250" width="10" height="10" rx="3.0" ry="3.0" class="qr-module" id="qr-data-288" />
  <rect x="150" y="250" width="10" height="10" rx="3.0" ry="3.0" class="qr-module" id="qr-data-289" />
  <rect x="170" y="250" width="10" height="10" rx="3.0" ry="3.0" class="qr-module" id="qr-data-290" />
  <rect x="200" y="250" width="10" height="10" rx="3.0" ry="3.0" class="qr-module" id="qr-data-291" />
  <rect x="210" y="250" width="10" height="10" rx="3.0" ry="3.0" class="qr-module" id="qr-data-292" />
  <rect x="220" y="250" width="10" height="10" rx="3.0" ry="3.0" class="qr-module" id="qr-data-293" />
  <rect x="270" y="250" width="10" height="10" rx="3.0" ry="3.0" class="qr-module" id="qr-data-294" />
  <rect x="280" y="250" width="10" height="10" rx="3.0" ry="3.0" class="qr-module" id="qr-data-295" />
  <rect x="130" y="260" width="10" height="10" rx="3.0" ry="3.0" class="qr-module" id="qr-data-301" />
  <rect x="140" y="260" width="10" height="10" rx="3.0" ry="3.0" class="qr-module" id="qr-data-302" />
  <rect x="150" y="260" width="10" height="10" rx="3.0" ry="3.0" class="qr-module" id="qr-data-303" />
  <rect x="160" y="260" width="10" height="10" rx="3.0" ry="3.0" class="qr-module" id="qr-data-304" />
  <rect x="170" y="260" width="10" height="10" rx="3.0" ry="3.0" class="qr-module" id="qr-data-305" />
  <rect x="190" y="260" width="10" height="10" rx="3.0" ry="3.0" class="qr-module" id="qr-data-306" />
  <rect x="210" y="260" width="10" height="10" rx="3.0" ry="3.0" class="qr-module" id="qr-data-307" />
  <rect x="240" y="260" width="10" height="10" rx="3.0" ry="3.0" class="qr-module" id="qr-data-308" />
  <rect x="250" y="260" width="10" height="10" rx="3.0" ry="3.0" class="qr-module" id="qr-data-309" />
  <rect x="260" y="260" width="10" height="10" rx="3.0" ry="3.0" class="qr-module" id="qr-data-310" />
  <rect x="270" y="260" width="10" height="10" rx="3.0" ry="3.0" class="qr-module" id="qr-data-311" />
  <rect x="280" y="260" width="10" height="10" rx="3.0" ry="3.0" class="qr-module" id="qr-data-312" />
  <rect x="130" y="270" width="10" height="10" rx="3.0" ry="3.0" class="qr-module" id="qr-data-316" />
  <rect x="160" y="270" width="10" height="10" rx="3.0" ry="3.0" class="qr-module" id="qr-data-317" />
  <rect x="170" y="270" width="10" height="10" rx="3.0" ry="3.0" class="qr-module" id="qr-data-318" />
  <rect x="190" y="270" width="10" height="10" rx="3.0" ry="3.0" class="qr-module" id="qr-data-319" />
  <rect x="230" y="270" width="10" height="10" rx="3.0" ry="3.0" class="qr-module" id="qr-data-320" />
  <rect x="240" y="270" width="10" height="10" rx="3.0" ry="3.0" class="qr-module" id="qr-data-321" />
  <rect x="260" y="270" width="10" height="10" rx="3.0" ry="3.0" class="qr-module" id="qr-data-322" />
  <rect x="270" y="270" width="10" height="10" rx="3.0" ry="3.0" class="qr-module" id="qr-data-323" />
  <rect x="280" y="270" width="10" height="10" rx="3.0" ry="3.0" class="qr-module" id="qr-data-324" />
  <rect x="130" y="280" width="10" height="10" rx="3.0" ry="3.0" class="qr-module" id="qr-data-332" />
  <rect x="140" y="280" width="10" height="10" rx="3.0" ry="3.0" class="qr-module" id="qr-data-333" />
  <rect x="170" y="280" width="10" height="10" rx="3.0" ry="3.0" class="qr-module" id="qr-data-334" />
  <rect x="200" y="280" width="10" height="10" rx="3.0" ry="3.0" class="qr-module" id="qr-data-335" />
  <rect x="220" y="280" width="10" height="10" rx="3.0" ry="3.0" class="qr-module" id="qr-data-336" />
  <rect x="250" y="280" width="10" height="10" rx="3.0" ry="3.0" class="qr-module" id="qr-data-337" />
  <rect x="280" y="280" width="10" height="10" rx="3.0" ry="3.0" class="qr-module" id="qr-data-338" />

</g>
</g><g class="qr-layer-frame" aria-hidden="true" />
  <g class="qr-layer-overlay" style="pointer-events: none;" />
  
</g></svg>