<svg width="250" height="250" viewBox="0 0 250 250" xmlns="http://www.w3.org/2000/svg" xmlns:xlink="http://www.w3.org/1999/xlink" id="qr-root" class="interactive-qr" role="img" aria-label="Interactive QR Code" aria-describedby="qr-root-desc" title="Interactive QR Code" aria-labelledby="title-4400508064">
<title>Interactive QR Code</title><desc>QR Code with 17x17 modules</desc>  <rect x="0" y="0" width="250" height="250" class="segnomms-quiet-zone" fill="#ffffff" />
<style type="text/css">
&lt;![CDATA[

        .qr-background {
            pointer-events: none;
        }
        .qr-module {
            transition: all 0.2s ease;
        }
        .qr-finder {
            fill: currentColor;
        }
        .qr-finder-inner {
            fill: var(--qr-bg-color, white);
        }
        .qr-timing {
            fill: currentColor;
        }
        .qr-data {
            fill: currentColor;
        }
        .qr-alignment {
            fill: currentColor;
        }
        .qr-format {
            fill: currentColor;
        }
        .qr-cluster {
            fill: currentColor;
            stroke: none;
        }
        .qr-contour {
            fill: currentColor;
            stroke: none;
        }
        
]]&gt;
</style>
<g role="img" aria-label="QR Code Content">
  <g class="qr-layer-background" aria-hidden="true" />
  <g class="qr-layer-quiet-zone" aria-hidden="true" />
  <g class="qr-layer-modules" role="presentation" fill="#000000">
  <g class="qr-pattern-finder" data-pattern-type="finder" id="qr-finder-79-1" role="group" aria-label="Finder pattern 80">
    <path d="M 43.0 40 L 47.0 40 C 48.341 40 50 41.659 50 43.0 L 50 47.0 C 50 48.341 48.341 50 47.0 50 L 43.0 50 C 41.659 50 40 48.341 40 47.0 L 40 43.0 C 40 41.659 41.659 40 43.0 40 Z" class="qr-module" id="qr-finder-1" title="Finder pattern module" />
  <path d="M 53.0 40 L 57.0 40 C 58.341 40 60 41.659 60 43.0 L 60 47.0 C 60 48.341 58.341 50 57.0 50 L 53.0 50 C 51.659 50 50 48.341 50 47.0 L 50 43.0 C 50 41.659 51.659 40 53.0 40 Z" class="qr-module" id="qr-finder-2" title="Finder pattern module" />
  <path d="M 63.0 40 L 67.0 40 C 68.341 40 70 41.659 70 43.0 L 70 47.0 C 70 48.341 68.341 50 67.0 50 L 63.0 50 C 61.659 50 60 48.341 60 47.0 L 60 43.0 C 60 41.659 61.659 40 63.0 40 Z" class="qr-module" id="qr-finder-3" title="Finder pattern module" />
  <path d="M 73.0 40 L 77.0 40 C 78.341 40 80 41.659 80 43.0 L 80 47.0 C 80 48.341 78.341 50 77.0 50 L 73.0 50 C 71.659 50 70 48.341 70 47.0 L 70 43.0 C 70 41.659 71.659 40 73.0 40 Z" class="qr-module" id="qr-finder-4" title="Finder pattern module" />
  <path d="M 83.0 40 L 87.0 40 C 88.341 40 90 41.659 90 43.0 L 90 47.0 C 90 48.341 88.341 50 87.0 50 L 83.0 50 C 81.659 50 80 48.341 80 47.0 L 80 43.0 C 80 41.659 81.659 40 83.0 40 Z" class="qr-module" id="qr-finder-5" title="Finder pattern module" />
  <path d="M 93.0 40 L 97.0 40 C 98.341 40 100 41.659 100 43.0 L 100 47.0 C 100 48.341 98.341 50 97.0 50 L 93.0 50 C 91.659 50 90 48.341 90 47.0 L 90 43.0 C 90 41.659 91.659 40 93.0 40 Z" class="qr-module" id="qr-finder-6" title="Finder pattern module" />
  <path d="M 103.0 40 L 107.0 40 C 108.341 40 110 41.659 110 43.0 L 110 47.0 C 110 48.341 108.341 50 107.0 50 L 103.0 50 C 101.659 50 100 48.341 100 47.0 L 100 43.0 C 100 41.659 101.659 40 103.0 40 Z" class="qr-module" id="qr-finder-7" title="Finder pattern module" />
  <path d="M 143.0 40 L 147.0 40 C 148.341 40 150 41.659 150 43.0 L 150 47.0 C 150 48.341 148.341 50 147.0 50 L 143.0 50 C 141.659 50 140 48.341 140 47.0 L 140 43.0 C 140 41.659 141.659 40 143.0 40 Z" class="qr-module" id="qr-finder-9" title="Finder pattern module" />
  <path d="M 163.0 40 L 167.0 40 C 168.341 40 170 41.659 170 43.0 L 170 47.0 C 170 48.341 168.341 50 167.0 50 L 163.0 50 C 161.659 50 160 48.341 160 47.0 L 160 43.0 C 160 41.659 161.659 40 163.0 40 Z" class="qr-module" id="qr-finder-10" title="Finder pattern module" />
  <path d="M 183.0 40 L 187.0 40 C 188.341 40 190 41.659 190 43.0 L 190 47.0 C 190 48.341 188.341 50 187.0 50 L 183.0 50 C 181.659 50 180 48.341 180 47.0 L 180 43.0 C 180 41.659 181.659 40 183.0 40 Z" class="qr-module" id="qr-finder-11" title="Finder pattern module" />
  <path d="M 203.0 40 L 207.0 40 C 208.341 40 210 41.659 210 43.0 L 210 47.0 C 210 48.341 208.341 50 207.0 50 L 203.0 50 C 201.659 50 200 48.341 200 47.0 L 200 43.0 C 200 41.659 201.659 40 203.0 40 Z" class="qr-module" id="qr-finder-12" title="Finder pattern module" />
  <path d="M 43.0 50 L 47.0 50 C 48.341 50 50 51.659 50 53.0 L 50 57.0 C 50 58.341 48.341 60 47.0 60 L 43.0 60 C 41.659 60 40 58.341 40 57.0 L 40 53.0 C 40 51.659 41.659 50 43.0 50 Z" class="qr-module" id="qr-finder-13" title="Finder pattern module" />
  <path d="M 103.0 50 L 107.0 50 C 108.341 50 110 51.659 110 53.0 L 110 57.0 C 110 58.341 108.341 60 107.0 60 L 103.0 60 C 101.659 60 100 58.341 100 57.0 L 100 53.0 C 100 51.659 101.659 50 103.0 50 Z" class="qr-module" id="qr-finder-14" title="Finder pattern module" />
  <path d="M 173.0 50 L 177.0 50 C 178.341 50 180 51.659 180 53.0 L 180 57.0 C 180 58.341 178.341 60 177.0 60 L 173.0 60 C 171.659 60 170 58.341 170 57.0 L 170 53.0 C 170 51.659 171.659 50 173.0 50 Z" class="qr-module" id="qr-finder-15" title="Finder pattern module" />
  <path d="M 43.0 60 L 47.0 60 C 48.341 60 50 61.659 50 63.0 L 50 67.0 C 50 68.341 48.341 70 47.0 70 L 43.0 70 C 41.659 70 40 68.341 40 67.0 L 40 63.0 C 40 61.659 41.659 60 43.0 60 Z" class="qr-module" id="qr-finder-16" title="Finder pattern module" />
  <path d="M 63.0 60 L 67.0 60 C 68.341 60 70 61.659 70 63.0 L 70 67.0 C 70 68.341 68.341 70 67.0 70 L 63.0 70 C 61.659 70 60 68.341 60 67.0 L 60 63.0 C 60 61.659 61.659 60 63.0 60 Z" class="qr-module" id="qr-finder_inner-17" title="Finder_Inner pattern module" />
  <path d="M 73.0 60 L 77.0 60 C 78.341 60 80 61.659 80 63.0 L 80 67.0 C 80 68.341 78.341 70 77.0 70 L 73.0 70 C 71.659 70 70 68.341 70 67.0 L 70 63.0 C 70 61.659 71.659 60 73.0 60 Z" class="qr-module" id="qr-finder_inner-18" title="Finder_Inner pattern module" />
  <path d="M 83.0 60 L 87.0 60 C 88.341 60 90 61.659 90 63.0 L 90 67.0 C 90 68.341 88.341 70 87.0 70 L 83.0 70 C 81.659 70 80 68.341 80 67.0 L 80 63.0 C 80 61.659 81.659 60 83.0 60 Z" class="qr-module" id="qr-finder_inner-19" title="Finder_Inner pattern module" />
  <path d="M 103.0 60 L 107.0 60 C 108.341 60 110 61.659 110 63.0 L 110 67.0 C 110 68.341 108.341 70 107.0 70 L 103.0 70 C 101.659 70 100 68.341 100 67.0 L 100 63.0 C 100 61.659 101.659 60 103.0 60 Z" class="qr-module" id="qr-finder-20" title="Finder pattern module" />
  <path d="M 143.0 60 L 147.0 60 C 148.341 60 150 61.659 150 63.0 L 150 67.0 C 150 68.341 148.341 70 147.0 70 L 143.0 70 C 141.659 70 140 68.341 140 67.0 L 140 63.0 C 140 61.659 141.659 60 143.0 60 Z" class="qr-module" id="qr-finder-22" title="Finder pattern module" />
  <path d="M 163.0 60 L 167.0 60 C 168.341 60 170 61.659 170 63.0 L 170 67.0 C 170 68.341 168.341 70 167.0 70 L 163.0 70 C 161.659 70 160 68.341 160 67.0 L 160 63.0 C 160 61.659 161.659 60 163.0 60 Z" class="qr-module" id="qr-finder_inner-23" title="Finder_Inner pattern module" />
  <path d="M 173.0 60 L 177.0 60 C 178.341 60 180 61.659 180 63.0 L 180 67.0 C 180 68.341 178.341 70 177.0 70 L 173.0 70 C 171.659 70 170 68.341 170 67.0 L 170 63.0 C 170 61.659 171.659 60 173.0 60 Z" class="qr-module" id="qr-finder_inner-24" title="Finder_Inner pattern module" />
  <path d="M 43.0 70 L 47.0 70 C 48.341 70 50 71.659 50 73.0 L 50 77.0 C 50 78.341 48.341 80 47.0 80 L 43.0 80 C 41.659 80 40 78.341 40 77.0 L 40 73.0 C 40 71.659 41.659 70 43.0 70 Z" class="qr-module" id="qr-finder-25" title="Finder pattern module" />
  <path d="M 63.0 70 L 67.0 70 C 68.341 70 70 71.659 70 73.0 L 70 77.0 C 70 78.341 68.341 80 67.0 80 L 63.0 80 C 61.659 80 60 78.341 60 77.0 L 60 73.0 C 60 71.659 61.659 70 63.0 70 Z" class="qr-module" id="qr-finder_inner-26" title="Finder_Inner pattern module" />
  <path d="M 73.0 70 L 77.0 70 C 78.341 70 80 71.659 80 73.0 L 80 77.0 C 80 78.341 78.341 80 77.0 80 L 73.0 80 C 71.659 80 70 78.341 70 77.0 L 70 73.0 C 70 71.659 71.659 70 73.0 70 Z" class="qr-module" id="qr-finder_inner-27" title="Finder_Inner pattern module" />
  <path d="M 83.0 70 L 87.0 70 C 88.341 70 90 71.659 90 73.0 L 90 77.0 C 90 78.341 88.341 80 87.0 80 L 83.0 80 C 81.659 80 80 78.341 80 77.0 L 80 73.0 C 80 71.659 81.659 70 83.0 70 Z" class="qr-module" id="qr-finder_inner-28" title="Finder_Inner pattern module" />
  <path d="M 103.0 70 L 107.0 70 C 108.341 70 110 71.659 110 73.0 L 110 77.0 C 110 78.341 108.341 80 107.0 80 L 103.0 80 C 101.659 80 100 78.341 100 77.0 L 100 73.0 C 100 71.659 101.659 70 103.0 70 Z" class="qr-module" id="qr-finder-29" title="Finder pattern module" />
  <path d="M 163.0 70 L 167.0 70 C 168.341 70 170 71.659 170 73.0 L 170 77.0 C 170 78.341 168.341 80 167.0 80 L 163.0 80 C 161.659 80 160 78.341 160 77.0 L 160 73.0 C 160 71.659 161.659 70 163.0 70 Z" class="qr-module" id="qr-finder_inner-30" title="Finder_Inner pattern module" />
  <path d="M 173.0 70 L 177.0 70 C 178.341 70 180 71.659 180 73.0 L 180 77.0 C 180 78.341 178.341 80 177.0 80 L 173.0 80 C 171.659 80 170 78.341 170 77.0 L 170 73.0 C 170 71.659 171.659 70 173.0 70 Z" class="qr-module" id="qr-finder_inner-31" title="Finder_Inner pattern module" />
  <path d="M 183.0 70 L 187.0 70 C 188.341 70 190 71.659 190 73.0 L 190 77.0 C 190 78.341 188.341 80 187.0 80 L 183.0 80 C 181.659 80 180 78.341 180 77.0 L 180 73.0 C 180 71.659 181.659 70 183.0 70 Z" class="qr-module" id="qr-finder_inner-32" title="Finder_Inner pattern module" />
  <path d="M 203.0 70 L 207.0 70 C 208.341 70 210 71.659 210 73.0 L 210 77.0 C 210 78.341 208.341 80 207.0 80 L 203.0 80 C 201.659 80 200 78.341 200 77.0 L 200 73.0 C 200 71.659 201.659 70 203.0 70 Z" class="qr-module" id="qr-finder-33" title="Finder pattern module" />
  <path d="M 43.0 80 L 47.0 80 C 48.341 80 50 81.659 50 83.0 L 50 87.0 C 50 88.341 48.341 90 47.0 90 L 43.0 90 C 41.659 90 40 88.341 40 87.0 L 40 83.0 C 40 81.659 41.659 80 43.0 80 Z" class="qr-module" id="qr-finder-34" title="Finder pattern module" />
  <path d="M 63.0 80 L 67.0 80 C 68.341 80 70 81.659 70 83.0 L 70 87.0 C 70 88.341 68.341 90 67.0 90 L 63.0 90 C 61.659 90 60 88.341 60 87.0 L 60 83.0 C 60 81.659 61.659 80 63.0 80 Z" class="qr-module" id="qr-finder_inner-35" title="Finder_Inner pattern module" />
  <path d="M 73.0 80 L 77.0 80 C 78.341 80 80 81.659 80 83.0 L 80 87.0 C 80 88.341 78.341 90 77.0 90 L 73.0 90 C 71.659 90 70 88.341 70 87.0 L 70 83.0 C 70 81.659 71.659 80 73.0 80 Z" class="qr-module" id="qr-finder_inner-36" title="Finder_Inner pattern module" />
  <path d="M 83.0 80 L 87.0 80 C 88.341 80 90 81.659 90 83.0 L 90 87.0 C 90 88.341 88.341 90 87.0 90 L 83.0 90 C 81.659 90 80 88.341 80 87.0 L 80 83.0 C 80 81.659 81.659 80 83.0 80 Z" class="qr-module" id="qr-finder_inner-37" title="Finder_Inner pattern module" />
  <path d="M 103.0 80 L 107.0 80 C 108.341 80 110 81.659 110 83.0 L 110 87.0 C 110 88.341 108.341 90 107.0 90 L 103.0 90 C 101.659 90 100 88.341 100 87.0 L 100 83.0 C 100 81.659 101.659 80 103.0 80 Z" class="qr-module" id="qr-finder-38" title="Finder pattern module" />
  <path d="M 143.0 80 L 147.0 80 C 148.341 80 150 81.659 150 83.0 L 150 87.0 C 150 88.341 148.341 90 147.0 90 L 143.0 90 C 141.659 90 140 88.341 140 87.0 L 140 83.0 C 140 81.659 141.659 80 143.0 80 Z" class="qr-module" id="qr-finder-41" title="Finder pattern module" />
  <path d="M 163.0 80 L 167.0 80 C 168.341 80 170 81.659 170 83.0 L 170 87.0 C 170 88.341 168.341 90 167.0 90 L 163.0 90 C 161.659 90 160 88.341 160 87.0 L 160 83.0 C 160 81.659 161.659 80 163.0 80 Z" class="qr-module" id="qr-finder_inner-42" title="Finder_Inner pattern module" />
  <path d="M 173.0 80 L 177.0 80 C 178.341 80 180 81.659 180 83.0 L 180 87.0 C 180 88.341 178.341 90 177.0 90 L 173.0 90 C 171.659 90 170 88.341 170 87.0 L 170 83.0 C 170 81.659 171.659 80 173.0 80 Z" class="qr-module" id="qr-finder_inner-43" title="Finder_Inner pattern module" />
  <path d="M 183.0 80 L 187.0 80 C 188.341 80 190 81.659 190 83.0 L 190 87.0 C 190 88.341 188.341 90 187.0 90 L 183.0 90 C 181.659 90 180 88.341 180 87.0 L 180 83.0 C 180 81.659 181.659 80 183.0 80 Z" class="qr-module" id="qr-finder_inner-44" title="Finder_Inner pattern module" />
  <path d="M 203.0 80 L 207.0 80 C 208.341 80 210 81.659 210 83.0 L 210 87.0 C 210 88.341 208.341 90 207.0 90 L 203.0 90 C 201.659 90 200 88.341 200 87.0 L 200 83.0 C 200 81.659 201.659 80 203.0 80 Z" class="qr-module" id="qr-finder-45" title="Finder pattern module" />
  <path d="M 43.0 90 L 47.0 90 C 48.341 90 50 91.659 50 93.0 L 50 97.0 C 50 98.341 48.341 100 47.0 100 L 43.0 100 C 41.659 100 40 98.341 40 97.0 L 40 93.0 C 40 91.659 41.659 90 43.0 90 Z" class="qr-module" id="qr-finder-46" title="Finder pattern module" />
  <path d="M 103.0 90 L 107.0 90 C 108.341 90 110 91.659 110 93.0 L 110 97.0 C 110 98.341 108.341 100 107.0 100 L 103.0 100 C 101.659 100 100 98.341 100 97.0 L 100 93.0 C 100 91.659 101.659 90 103.0 90 Z" class="qr-module" id="qr-finder-47" title="Finder pattern module" />
  <path d="M 173.0 90 L 177.0 90 C 178.341 90 180 91.659 180 93.0 L 180 97.0 C 180 98.341 178.341 100 177.0 100 L 173.0 100 C 171.659 100 170 98.341 170 97.0 L 170 93.0 C 170 91.659 171.659 90 173.0 90 Z" class="qr-module" id="qr-finder-48" title="Finder pattern module" />
  <path d="M 193.0 90 L 197.0 90 C 198.341 90 200 91.659 200 93.0 L 200 97.0 C 200 98.341 198.341 100 197.0 100 L 193.0 100 C 191.659 100 190 98.341 190 97.0 L 190 93.0 C 190 91.659 191.659 90 193.0 90 Z" class="qr-module" id="qr-finder-49" title="Finder pattern module" />
  <path d="M 43.0 100 L 47.0 100 C 48.341 100 50 101.659 50 103.0 L 50 107.0 C 50 108.341 48.341 110 47.0 110 L 43.0 110 C 41.659 110 40 108.341 40 107.0 L 40 103.0 C 40 101.659 41.659 100 43.0 100 Z" class="qr-module" id="qr-finder-50" title="Finder pattern module" />
  <path d="M 53.0 100 L 57.0 100 C 58.341 100 60 101.659 60 103.0 L 60 107.0 C 60 108.341 58.341 110 57.0 110 L 53.0 110 C 51.659 110 50 108.341 50 107.0 L 50 103.0 C 50 101.659 51.659 100 53.0 100 Z" class="qr-module" id="qr-finder-51" title="Finder pattern module" />
  <path d="M 63.0 100 L 67.0 100 C 68.341 100 70 101.659 70 103.0 L 70 107.0 C 70 108.341 68.341 110 67.0 110 L 63.0 110 C 61.659 110 60 108.341 60 107.0 L 60 103.0 C 60 101.659 61.659 100 63.0 100 Z" class="qr-module" id="qr-finder-52" title="Finder pattern module" />
  <path d="M 73.0 100 L 77.0 100 C 78.341 100 80 101.659 80 103.0 L 80 107.0 C 80 108.341 78.341 110 77.0 110 L 73.0 110 C 71.659 110 70 108.341 70 107.0 L 70 103.0 C 70 101.659 71.659 100 73.0 100 Z" class="qr-module" id="qr-finder-53" title="Finder pattern module" />
  <path d="M 83.0 100 L 87.0 100 C 88.341 100 90 101.659 90 103.0 L 90 107.0 C 90 108.341 88.341 110 87.0 110 L 83.0 110 C 81.659 110 80 108.341 80 107.0 L 80 103.0 C 80 101.659 81.659 100 83.0 100 Z" class="qr-module" id="qr-finder-54" title="Finder pattern module" />
  <path d="M 93.0 100 L 97.0 100 C 98.341 100 100 101.659 100 103.0 L 100 107.0 C 100 108.341 98.341 110 97.0 110 L 93.0 110 C 91.659 110 90 108.341 90 107.0 L 90 103.0 C 90 101.659 91.659 100 93.0 100 Z" class="qr-module" id="qr-finder-55" title="Finder pattern module" />
  <path d="M 103.0 100 L 107.0 100 C 108.341 100 110 101.659 110 103.0 L 110 107.0 C 110 108.341 108.341 110 107.0 110 L 103.0 110 C 101.659 110 100 108.341 100 107.0 L 100 103.0 C 100 101.659 101.659 100 103.0 100 Z" class="qr-module" id="qr-finder-56" title="Finder pattern module" />
  <path d="M 143.0 100 L 147.0 100 C 148.341 100 150 101.659 150 103.0 L 150 107.0 C 150 108.341 148.341 110 147.0 110 L 143.0 110 C 141.659 110 140 108.341 140 107.0 L 140 103.0 C 140 101.659 141.659 100 143.0 100 Z" class="qr-module" id="qr-finder-58" title="Finder pattern module" />
  <path d="M 173.0 100 L 177.0 100 C 178.341 100 180 101.659 180 103.0 L 180 107.0 C 180 108.341 178.341 110 177.0 110 L 173.0 110 C 171.659 110 170 108.341 170 107.0 L 170 103.0 C 170 101.659 171.659 100 173.0 100 Z" class="qr-module" id="qr-finder-59" title="Finder pattern module" />
  <path d="M 203.0 100 L 207.0 100 C 208.341 100 210 101.659 210 103.0 L 210 107.0 C 210 108.341 208.341 110 207.0 110 L 203.0 110 C 201.659 110 200 108.341 200 107.0 L 200 103.0 C 200 101.659 201.659 100 203.0 100 Z" class="qr-module" id="qr-finder-60" title="Finder pattern module" />
  <path d="M 43.0 140 L 47.0 140 C 48.341 140 50 141.659 50 143.0 L 50 147.0 C 50 148.341 48.341 150 47.0 150 L 43.0 150 C 41.659 150 40 148.341 40 147.0 L 40 143.0 C 40 141.659 41.659 140 43.0 140 Z" class="qr-module" id="qr-finder-78" title="Finder pattern module" />
  <path d="M 53.0 140 L 57.0 140 C 58.341 140 60 141.659 60 143.0 L 60 147.0 C 60 148.341 58.341 150 57.0 150 L 53.0 150 C 51.659 150 50 148.341 50 147.0 L 50 143.0 C 50 141.659 51.659 140 53.0 140 Z" class="qr-module" id="qr-finder-79" title="Finder pattern module" />
  <path d="M 63.0 140 L 67.0 140 C 68.341 140 70 141.659 70 143.0 L 70 147.0 C 70 148.341 68.341 150 67.0 150 L 63.0 150 C 61.659 150 60 148.341 60 147.0 L 60 143.0 C 60 141.659 61.659 140 63.0 140 Z" class="qr-module" id="qr-finder-80" title="Finder pattern module" />
  <path d="M 103.0 140 L 107.0 140 C 108.341 140 110 141.659 110 143.0 L 110 147.0 C 110 148.341 108.341 150 107.0 150 L 103.0 150 C 101.659 150 100 148.341 100 147.0 L 100 143.0 C 100 141.659 101.659 140 103.0 140 Z" class="qr-module" id="qr-finder-81" title="Finder pattern module" />
  <path d="M 53.0 150 L 57.0 150 C 58.341 150 60 151.659 60 153.0 L 60 157.0 C 60 158.341 58.341 160 57.0 160 L 53.0 160 C 51.659 160 50 158.341 50 157.0 L 50 153.0 C 50 151.659 51.659 150 53.0 150 Z" class="qr-module" id="qr-finder-89" title="Finder pattern module" />
  <path d="M 73.0 150 L 77.0 150 C 78.341 150 80 151.659 80 153.0 L 80 157.0 C 80 158.341 78.341 160 77.0 160 L 73.0 160 C 71.659 160 70 158.341 70 157.0 L 70 153.0 C 70 151.659 71.659 150 73.0 150 Z" class="qr-module" id="qr-finder-90" title="Finder pattern module" />
  <path d="M 93.0 150 L 97.0 150 C 98.341 150 100 151.659 100 153.0 L 100 157.0 C 100 158.341 98.341 160 97.0 160 L 93.0 160 C 91.659 160 90 158.341 90 157.0 L 90 153.0 C 90 151.659 91.659 150 93.0 150 Z" class="qr-module" id="qr-finder-91" title="Finder pattern module" />
  <path d="M 103.0 150 L 107.0 150 C 108.341 150 110 151.659 110 153.0 L 110 157.0 C 110 158.341 108.341 160 107.0 160 L 103.0 160 C 101.659 160 100 158.341 100 157.0 L 100 153.0 C 100 151.659 101.659 150 103.0 150 Z" class="qr-module" id="qr-finder-92" title="Finder pattern module" />
  <path d="M 43.0 160 L 47.0 160 C 48.341 160 50 161.659 50 163.0 L 50 167.0 C 50 168.341 48.341 170 47.0 170 L 43.0 170 C 41.659 170 40 168.341 40 167.0 L 40 163.0 C 40 161.659 41.659 160 43.0 160 Z" class="qr-module" id="qr-finder-97" title="Finder pattern module" />
  <path d="M 63.0 170 L 67.0 170 C 68.341 170 70 171.659 70 173.0 L 70 177.0 C 70 178.341 68.341 180 67.0 180 L 63.0 180 C 61.659 180 60 178.341 60 177.0 L 60 173.0 C 60 171.659 61.659 170 63.0 170 Z" class="qr-module" id="qr-finder_inner-104" title="Finder_Inner pattern module" />
  <path d="M 73.0 170 L 77.0 170 C 78.341 170 80 171.659 80 173.0 L 80 177.0 C 80 178.341 78.341 180 77.0 180 L 73.0 180 C 71.659 180 70 178.341 70 177.0 L 70 173.0 C 70 171.659 71.659 170 73.0 170 Z" class="qr-module" id="qr-finder_inner-105" title="Finder_Inner pattern module" />
  <path d="M 43.0 180 L 47.0 180 C 48.341 180 50 181.659 50 183.0 L 50 187.0 C 50 188.341 48.341 190 47.0 190 L 43.0 190 C 41.659 190 40 188.341 40 187.0 L 40 183.0 C 40 181.659 41.659 180 43.0 180 Z" class="qr-module" id="qr-finder-115" title="Finder pattern module" />
  <path d="M 53.0 180 L 57.0 180 C 58.341 180 60 181.659 60 183.0 L 60 187.0 C 60 188.341 58.341 190 57.0 190 L 53.0 190 C 51.659 190 50 188.341 50 187.0 L 50 183.0 C 50 181.659 51.659 180 53.0 180 Z" class="qr-module" id="qr-finder-116" title="Finder pattern module" />
  <path d="M 63.0 180 L 67.0 180 C 68.341 180 70 181.659 70 183.0 L 70 187.0 C 70 188.341 68.341 190 67.0 190 L 63.0 190 C 61.659 190 60 188.341 60 187.0 L 60 183.0 C 60 181.659 61.659 180 63.0 180 Z" class="qr-module" id="qr-finder_inner-117" title="Finder_Inner pattern module" />
  <path d="M 73.0 180 L 77.0 180 C 78.341 180 80 181.659 80 183.0 L 80 187.0 C 80 188.341 78.341 190 77.0 190 L 73.0 190 C 71.659 190 70 188.341 70 187.0 L 70 183.0 C 70 181.659 71.659 180 73.0 180 Z" class="qr-module" id="qr-finder_inner-118" title="Finder_Inner pattern module" />
  <path d="M 83.0 180 L 87.0 180 C 88.341 180 90 181.659 90 183.0 L 90 187.0 C 90 188.341 88.341 190 87.0 190 L 83.0 190 C 81.659 190 80 188.341 80 187.0 L 80 183.0 C 80 181.659 81.659 180 83.0 180 Z" class="qr-module" id="qr-finder_inner-119" title="Finder_Inner pattern module" />
  <path d="M 103.0 180 L 107.0 180 C 108.341 180 110 181.659 110 183.0 L 110 187.0 C 110 188.341 108.341 190 107.0 190 L 103.0 190 C 101.659 190 100 188.341 100 187.0 L 100 183.0 C 100 181.659 101.659 180 103.0 180 Z" class="qr-module" id="qr-finder-120" title="Finder pattern module" />
  <path d="M 63.0 190 L 67.0 190 C 68.341 190 70 191.659 70 193.0 L 70 197.0 C 70 198.341 68.341 200 67.0 200 L 63.0 200 C 61.659 200 60 198.341 60 197.0 L 60 193.0 C 60 191.659 61.659 190 63.0 190 Z" class="qr-module" id="qr-finder-126" title="Finder pattern module" />
  <path d="M 83.0 190 L 87.0 190 C 88.341 190 90 191.659 90 193.0 L 90 197.0 C 90 198.341 88.341 200 87.0 200 L 83.0 200 C 81.659 200 80 198.341 80 197.0 L 80 193.0 C 80 191.659 81.659 190 83.0 190 Z" class="qr-module" id="qr-finder-127" title="Finder pattern module" />
  <path d="M 103.0 190 L 107.0 190 C 108.341 190 110 191.659 110 193.0 L 110 197.0 C 110 198.341 108.341 200 107.0 200 L 103.0 200 C 101.659 200 100 198.341 100 197.0 L 100 193.0 C 100 191.659 101.659 190 103.0 190 Z" class="qr-module" id="qr-finder-128" title="Finder pattern module" />
  <path d="M 43.0 200 L 47.0 200 C 48.341 200 50 201.659 50 203.0 L 50 207.0 C 50 208.341 48.341 210 47.0 210 L 43.0 210 C 41.659 210 40 208.341 40 207.0 L 40 203.0 C 40 201.659 41.659 200 43.0 200 Z" class="qr-module" id="qr-finder-134" title="Finder pattern module" />
  <path d="M 53.0 200 L 57.0 200 C 58.341 200 60 201.659 60 203.0 L 60 207.0 C 60 208.341 58.341 210 57.0 210 L 53.0 210 C 51.659 210 50 208.341 50 207.0 L 50 203.0 C 50 201.659 51.659 200 53.0 200 Z" class="qr-module" id="qr-finder-135" title="Finder pattern module" />
  <path d="M 73.0 200 L 77.0 200 C 78.341 200 80 201.659 80 203.0 L 80 207.0 C 80 208.341 78.341 210 77.0 210 L 73.0 210 C 71.659 210 70 208.341 70 207.0 L 70 203.0 C 70 201.659 71.659 200 73.0 200 Z" class="qr-module" id="qr-finder-136" title="Finder pattern module" />
  <path d="M 83.0 200 L 87.0 200 C 88.341 200 90 201.659 90 203.0 L 90 207.0 C 90 208.341 88.341 210 87.0 210 L 83.0 210 C 81.659 210 80 208.341 80 207.0 L 80 203.0 C 80 201.659 81.659 200 83.0 200 Z" class="qr-module" id="qr-finder-137" title="Finder pattern module" />

</g><g class="qr-pattern-timing" data-pattern-type="timing" id="qr-timing-2" role="group" aria-label="Timing pattern">
    <path d="M 133.0 100 L 137.0 100 C 138.341 100 140 101.659 140 103.0 L 140 107.0 C 140 108.341 138.341 110 137.0 110 L 133.0 110 C 131.659 110 130 108.341 130 107.0 L 130 103.0 C 130 101.659 131.659 100 133.0 100 Z" class="qr-module" id="qr-timing-57" title="Timing pattern module" />
  <path d="M 103.0 130 L 107.0 130 C 108.341 130 110 131.659 110 133.0 L 110 137.0 C 110 138.341 108.341 140 107.0 140 L 103.0 140 C 101.659 140 100 138.341 100 137.0 L 100 133.0 C 100 131.659 101.659 130 103.0 130 Z" class="qr-module" id="qr-timing-75" title="Timing pattern module" />

</g><g class="qr-pattern-alignment" data-pattern-type="alignment" id="qr-alignment-12" role="group" aria-label="Alignment pattern 13">
    <path d="M 133.0 120 L 137.0 120 C 138.341 120 140 121.659 140 123.0 L 140 127.0 C 140 128.341 138.341 130 137.0 130 L 133.0 130 C 131.659 130 130 128.341 130 127.0 L 130 123.0 C 130 121.659 131.659 120 133.0 120 Z" class="qr-module" id="qr-alignment-69" title="Alignment pattern module" />
  <path d="M 143.0 120 L 147.0 120 C 148.341 120 150 121.659 150 123.0 L 150 127.0 C 150 128.341 148.341 130 147.0 130 L 143.0 130 C 141.659 130 140 128.341 140 127.0 L 140 123.0 C 140 121.659 141.659 120 143.0 120 Z" class="qr-module" id="qr-alignment-70" title="Alignment pattern module" />
  <path d="M 163.0 120 L 167.0 120 C 168.341 120 170 121.659 170 123.0 L 170 127.0 C 170 128.341 168.341 130 167.0 130 L 163.0 130 C 161.659 130 160 128.341 160 127.0 L 160 123.0 C 160 121.659 161.659 120 163.0 120 Z" class="qr-module" id="qr-alignment-71" title="Alignment pattern module" />
  <path d="M 163.0 130 L 167.0 130 C 168.341 130 170 131.659 170 133.0 L 170 137.0 C 170 138.341 168.341 140 167.0 140 L 163.0 140 C 161.659 140 160 138.341 160 137.0 L 160 133.0 C 160 131.659 161.659 130 163.0 130 Z" class="qr-module" id="qr-alignment-77" title="Alignment pattern module" />
  <path d="M 123.0 140 L 127.0 140 C 128.341 140 130 141.659 130 143.0 L 130 147.0 C 130 148.341 128.341 150 127.0 150 L 123.0 150 C 121.659 150 120 148.341 120 147.0 L 120 143.0 C 120 141.659 121.659 140 123.0 140 Z" class="qr-module" id="qr-alignment-83" title="Alignment pattern module" />
  <path d="M 153.0 140 L 157.0 140 C 158.341 140 160 141.659 160 143.0 L 160 147.0 C 160 148.341 158.341 150 157.0 150 L 153.0 150 C 151.659 150 150 148.341 150 147.0 L 150 143.0 C 150 141.659 151.659 140 153.0 140 Z" class="qr-module" id="qr-alignment-85" title="Alignment pattern module" />
  <path d="M 163.0 140 L 167.0 140 C 168.341 140 170 141.659 170 143.0 L 170 147.0 C 170 148.341 168.341 150 167.0 150 L 163.0 150 C 161.659 150 160 148.341 160 147.0 L 160 143.0 C 160 141.659 161.659 140 163.0 140 Z" class="qr-module" id="qr-alignment-86" title="Alignment pattern module" />
  <path d="M 123.0 150 L 127.0 150 C 128.341 150 130 151.659 130 153.0 L 130 157.0 C 130 158.341 128.341 160 127.0 160 L 123.0 160 C 121.659 160 120 158.341 120 157.0 L 120 153.0 C 120 151.659 121.659 150 123.0 150 Z" class="qr-module" id="qr-alignment-94" title="Alignment pattern module" />
  <path d="M 153.0 150 L 157.0 150 C 158.341 150 160 151.659 160 153.0 L 160 157.0 C 160 158.341 158.341 160 157.0 160 L 153.0 160 C 151.659 160 150 158.341 150 157.0 L 150 153.0 C 150 151.659 151.659 150 153.0 150 Z" class="qr-module" id="qr-alignment-95" title="Alignment pattern module" />
  <path d="M 163.0 150 L 167.0 150 C 168.341 150 170 151.659 170 153.0 L 170 157.0 C 170 158.341 168.341 160 167.0 160 L 163.0 160 C 161.659 160 160 158.341 160 157.0 L 160 153.0 C 160 151.659 161.659 150 163.0 150 Z" class="qr-module" id="qr-alignment-96" title="Alignment pattern module" />
  <path d="M 143.0 160 L 147.0 160 C 148.341 160 150 161.659 150 163.0 L 150 167.0 C 150 168.341 148.341 170 147.0 170 L 143.0 170 C 141.659 170 140 168.341 140 167.0 L 140 163.0 C 140 161.659 141.659 160 143.0 160 Z" class="qr-module" id="qr-alignment-99" title="Alignment pattern module" />
  <path d="M 163.0 160 L 167.0 160 C 168.341 160 170 161.659 170 163.0 L 170 167.0 C 170 168.341 168.341 170 167.0 170 L 163.0 170 C 161.659 170 160 168.341 160 167.0 L 160 163.0 C 160 161.659 161.659 160 163.0 160 Z" class="qr-module" id="qr-alignment-100" title="Alignment pattern module" />

</g><g class="qr-pattern-format" data-pattern-type="format" id="qr-format-9" role="group" aria-label="Format information">
    <path d="M 123.0 40 L 127.0 40 C 128.341 40 130 41.659 130 43.0 L 130 47.0 C 130 48.341 128.341 50 127.0 50 L 123.0 50 C 121.659 50 120 48.341 120 47.0 L 120 43.0 C 120 41.659 121.659 40 123.0 40 Z" class="qr-module" id="qr-format-8" title="Format pattern module" />
  <path d="M 123.0 80 L 127.0 80 C 128.341 80 130 81.659 130 83.0 L 130 87.0 C 130 88.341 128.341 90 127.0 90 L 123.0 90 C 121.659 90 120 88.341 120 87.0 L 120 83.0 C 120 81.659 121.659 80 123.0 80 Z" class="qr-module" id="qr-format-39" title="Format pattern module" />
  <path d="M 43.0 120 L 47.0 120 C 48.341 120 50 121.659 50 123.0 L 50 127.0 C 50 128.341 48.341 130 47.0 130 L 43.0 130 C 41.659 130 40 128.341 40 127.0 L 40 123.0 C 40 121.659 41.659 120 43.0 120 Z" class="qr-module" id="qr-format-65" title="Format pattern module" />
  <path d="M 63.0 120 L 67.0 120 C 68.341 120 70 121.659 70 123.0 L 70 127.0 C 70 128.341 68.341 130 67.0 130 L 63.0 130 C 61.659 130 60 128.341 60 127.0 L 60 123.0 C 60 121.659 61.659 120 63.0 120 Z" class="qr-module" id="qr-format-66" title="Format pattern module" />
  <path d="M 93.0 120 L 97.0 120 C 98.341 120 100 121.659 100 123.0 L 100 127.0 C 100 128.341 98.341 130 97.0 130 L 93.0 130 C 91.659 130 90 128.341 90 127.0 L 90 123.0 C 90 121.659 91.659 120 93.0 120 Z" class="qr-module" id="qr-format-67" title="Format pattern module" />
  <path d="M 113.0 120 L 117.0 120 C 118.341 120 120 121.659 120 123.0 L 120 127.0 C 120 128.341 118.341 130 117.0 130 L 113.0 130 C 111.659 130 110 128.341 110 127.0 L 110 123.0 C 110 121.659 111.659 120 113.0 120 Z" class="qr-module" id="qr-format-68" title="Format pattern module" />
  <path d="M 203.0 120 L 207.0 120 C 208.341 120 210 121.659 210 123.0 L 210 127.0 C 210 128.341 208.341 130 207.0 130 L 203.0 130 C 201.659 130 200 128.341 200 127.0 L 200 123.0 C 200 121.659 201.659 120 203.0 120 Z" class="qr-module" id="qr-format-72" title="Format pattern module" />
  <path d="M 123.0 170 L 127.0 170 C 128.341 170 130 171.659 130 173.0 L 130 177.0 C 130 178.341 128.341 180 127.0 180 L 123.0 180 C 121.659 180 120 178.341 120 177.0 L 120 173.0 C 120 171.659 121.659 170 123.0 170 Z" class="qr-module" id="qr-format-107" title="Format pattern module" />
  <path d="M 123.0 180 L 127.0 180 C 128.341 180 130 181.659 130 183.0 L 130 187.0 C 130 188.341 128.341 190 127.0 190 L 123.0 190 C 121.659 190 120 188.341 120 187.0 L 120 183.0 C 120 181.659 121.659 180 123.0 180 Z" class="qr-module" id="qr-format-122" title="Format pattern module" />

</g><g class="qr-pattern-version" data-pattern-type="version" />
  <g class="qr-pattern-data" data-pattern-type="data" id="qr-data-39" role="group" aria-label="Data modules">
    <path d="M 133.0 60 L 137.0 60 C 138.341 60 140 61.659 140 63.0 L 140 67.0 C 140 68.341 138.341 70 137.0 70 L 133.0 70 C 131.659 70 130 68.341 130 67.0 L 130 63.0 C 130 61.659 131.659 60 133.0 60 Z" class="qr-module" id="qr-data-21" />
  <path d="M 133.0 80 L 137.0 80 C 138.341 80 140 81.659 140 83.0 L 140 87.0 C 140 88.341 138.341 90 137.0 90 L 133.0 90 C 131.659 90 130 88.341 130 87.0 L 130 83.0 C 130 81.659 131.659 80 133.0 80 Z" class="qr-module" id="qr-data-40" />
  <path d="M 163.0 110 L 167.0 110 C 168.341 110 170 111.659 170 113.0 L 170 117.0 C 170 118.341 168.341 120 167.0 120 L 163.0 120 C 161.659 120 160 118.341 160 117.0 L 160 113.0 C 160 111.659 161.659 110 163.0 110 Z" class="qr-module" id="qr-separator-61" title="Separator pattern module" />
  <path d="M 173.0 110 L 177.0 110 C 178.341 110 180 111.659 180 113.0 L 180 117.0 C 180 118.341 178.341 120 177.0 120 L 173.0 120 C 171.659 120 170 118.341 170 117.0 L 170 113.0 C 170 111.659 171.659 110 173.0 110 Z" class="qr-module" id="qr-separator-62" title="Separator pattern module" />
  <path d="M 183.0 110 L 187.0 110 C 188.341 110 190 111.659 190 113.0 L 190 117.0 C 190 118.341 188.341 120 187.0 120 L 183.0 120 C 181.659 120 180 118.341 180 117.0 L 180 113.0 C 180 111.659 181.659 110 183.0 110 Z" class="qr-module" id="qr-separator-63" title="Separator pattern module" />
  <path d="M 203.0 110 L 207.0 110 C 208.341 110 210 111.659 210 113.0 L 210 117.0 C 210 118.341 208.341 120 207.0 120 L 203.0 120 C 201.659 120 200 118.341 200 117.0 L 200 113.0 C 200 111.659 201.659 110 203.0 110 Z" class="qr-module" id="qr-separator-64" title="Separator pattern module" />
  <path d="M 83.0 130 L 87.0 130 C 88.341 130 90 131.659 90 133.0 L 90 137.0 C 90 138.341 88.341 140 87.0 140 L 83.0 140 C 81.659 140 80 138.341 80 137.0 L 80 133.0 C 80 131.659 81.659 130 83.0 130 Z" class="qr-module" id="qr-data-73" />
  <path d="M 93.0 130 L 97.0 130 C 98.341 130 100 131.659 100 133.0 L 100 137.0 C 100 138.341 98.341 140 97.0 140 L 93.0 140 C 91.659 140 90 138.341 90 137.0 L 90 133.0 C 90 131.659 91.659 130 93.0 130 Z" class="qr-module" id="qr-data-74" />
  <path d="M 113.0 130 L 117.0 130 C 118.341 130 120 131.659 120 133.0 L 120 137.0 C 120 138.341 118.341 140 117.0 140 L 113.0 140 C 111.659 140 110 138.341 110 137.0 L 110 133.0 C 110 131.659 111.659 130 113.0 130 Z" class="qr-module" id="qr-data-76" />
  <path d="M 113.0 140 L 117.0 140 C 118.341 140 120 141.659 120 143.0 L 120 147.0 C 120 148.341 118.341 150 117.0 150 L 113.0 150 C 111.659 150 110 148.341 110 147.0 L 110 143.0 C 110 141.659 111.659 140 113.0 140 Z" class="qr-module" id="qr-separator-82" title="Separator pattern module" />
  <path d="M 143.0 140 L 147.0 140 C 148.341 140 150 141.659 150 143.0 L 150 147.0 C 150 148.341 148.341 150 147.0 150 L 143.0 150 C 141.659 150 140 148.341 140 147.0 L 140 143.0 C 140 141.659 141.659 140 143.0 140 Z" class="qr-module" id="qr-alignment_center-84" title="Alignment_Center pattern module" />
  <path d="M 173.0 140 L 177.0 140 C 178.341 140 180 141.659 180 143.0 L 180 147.0 C 180 148.341 178.341 150 177.0 150 L 173.0 150 C 171.659 150 170 148.341 170 147.0 L 170 143.0 C 170 141.659 171.659 140 173.0 140 Z" class="qr-module" id="qr-data-87" />
  <path d="M 193.0 140 L 197.0 140 C 198.341 140 200 141.659 200 143.0 L 200 147.0 C 200 148.341 198.341 150 197.0 150 L 193.0 150 C 191.659 150 190 148.341 190 147.0 L 190 143.0 C 190 141.659 191.659 140 193.0 140 Z" class="qr-module" id="qr-data-88" />
  <path d="M 113.0 150 L 117.0 150 C 118.341 150 120 151.659 120 153.0 L 120 157.0 C 120 158.341 118.341 160 117.0 160 L 113.0 160 C 111.659 160 110 158.341 110 157.0 L 110 153.0 C 110 151.659 111.659 150 113.0 150 Z" class="qr-module" id="qr-separator-93" title="Separator pattern module" />
  <path d="M 113.0 160 L 117.0 160 C 118.341 160 120 161.659 120 163.0 L 120 167.0 C 120 168.341 118.341 170 117.0 170 L 113.0 170 C 111.659 170 110 168.341 110 167.0 L 110 163.0 C 110 161.659 111.659 160 113.0 160 Z" class="qr-module" id="qr-separator-98" title="Separator pattern module" />
  <path d="M 173.0 160 L 177.0 160 C 178.341 160 180 161.659 180 163.0 L 180 167.0 C 180 168.341 178.341 170 177.0 170 L 173.0 170 C 171.659 170 170 168.341 170 167.0 L 170 163.0 C 170 161.659 171.659 160 173.0 160 Z" class="qr-module" id="qr-data-101" />
  <path d="M 183.0 160 L 187.0 160 C 188.341 160 190 161.659 190 163.0 L 190 167.0 C 190 168.341 188.341 170 187.0 170 L 183.0 170 C 181.659 170 180 168.341 180 167.0 L 180 163.0 C 180 161.659 181.659 160 183.0 160 Z" class="qr-module" id="qr-data-102" />
  <path d="M 203.0 160 L 207.0 160 C 208.341 160 210 161.659 210 163.0 L 210 167.0 C 210 168.341 208.341 170 207.0 170 L 203.0 170 C 201.659 170 200 168.341 200 167.0 L 200 163.0 C 200 161.659 201.659 160 203.0 160 Z" class="qr-module" id="qr-data-103" />
  <path d="M 113.0 170 L 117.0 170 C 118.341 170 120 171.659 120 173.0 L 120 177.0 C 120 178.341 118.341 180 117.0 180 L 113.0 180 C 111.659 180 110 178.341 110 177.0 L 110 173.0 C 110 171.659 111.659 170 113.0 170 Z" class="qr-module" id="qr-separator-106" title="Separator pattern module" />
  <path d="M 133.0 170 L 137.0 170 C 138.341 170 140 171.659 140 173.0 L 140 177.0 C 140 178.341 138.341 180 137.0 180 L 133.0 180 C 131.659 180 130 178.341 130 177.0 L 130 173.0 C 130 171.659 131.659 170 133.0 170 Z" class="qr-module" id="qr-data-108" />
  <path d="M 143.0 170 L 147.0 170 C 148.341 170 150 171.659 150 173.0 L 150 177.0 C 150 178.341 148.341 180 147.0 180 L 143.0 180 C 141.659 180 140 178.341 140 177.0 L 140 173.0 C 140 171.659 141.659 170 143.0 170 Z" class="qr-module" id="qr-data-109" />
  <path d="M 153.0 170 L 157.0 170 C 158.341 170 160 171.659 160 173.0 L 160 177.0 C 160 178.341 158.341 180 157.0 180 L 153.0 180 C 151.659 180 150 178.341 150 177.0 L 150 173.0 C 150 171.659 151.659 170 153.0 170 Z" class="qr-module" id="qr-data-110" />
  <path d="M 163.0 170 L 167.0 170 C 168.341 170 170 171.659 170 173.0 L 170 177.0 C 170 178.341 168.341 180 167.0 180 L 163.0 180 C 161.659 180 160 178.341 160 177.0 L 160 173.0 C 160 171.659 161.659 170 163.0 170 Z" class="qr-module" id="qr-data-111" />
  <path d="M 173.0 170 L 177.0 170 C 178.341 170 180 171.659 180 173.0 L 180 177.0 C 180 178.341 178.341 180 177.0 180 L 173.0 180 C 171.659 180 170 178.341 170 177.0 L 170 173.0 C 170 171.659 171.659 170 173.0 170 Z" class="qr-module" id="qr-data-112" />
  <path d="M 193.0 170 L 197.0 170 C 198.341 170 200 171.659 200 173.0 L 200 177.0 C 200 178.341 198.341 180 197.0 180 L 193.0 180 C 191.659 180 190 178.341 190 177.0 L 190 173.0 C 190 171.659 191.659 170 193.0 170 Z" class="qr-module" id="qr-data-113" />
  <path d="M 203.0 170 L 207.0 170 C 208.341 170 210 171.659 210 173.0 L 210 177.0 C 210 178.341 208.341 180 207.0 180 L 203.0 180 C 201.659 180 200 178.341 200 177.0 L 200 173.0 C 200 171.659 201.659 170 203.0 170 Z" class="qr-module" id="qr-data-114" />
  <path d="M 113.0 180 L 117.0 180 C 118.341 180 120 181.659 120 183.0 L 120 187.0 C 120 188.341 118.341 190 117.0 190 L 113.0 190 C 111.659 190 110 188.341 110 187.0 L 110 183.0 C 110 181.659 111.659 180 113.0 180 Z" class="qr-module" id="qr-separator-121" title="Separator pattern module" />
  <path d="M 133.0 180 L 137.0 180 C 138.341 180 140 181.659 140 183.0 L 140 187.0 C 140 188.341 138.341 190 137.0 190 L 133.0 190 C 131.659 190 130 188.341 130 187.0 L 130 183.0 C 130 181.659 131.659 180 133.0 180 Z" class="qr-module" id="qr-data-123" />
  <path d="M 183.0 180 L 187.0 180 C 188.341 180 190 181.659 190 183.0 L 190 187.0 C 190 188.341 188.341 190 187.0 190 L 183.0 190 C 181.659 190 180 188.341 180 187.0 L 180 183.0 C 180 181.659 181.659 180 183.0 180 Z" class="qr-module" id="qr-data-124" />
  <path d="M 193.0 180 L 197.0 180 C 198.341 180 200 181.659 200 183.0 L 200 187.0 C 200 188.341 198.341 190 197.0 190 L 193.0 190 C 191.659 190 190 188.341 190 187.0 L 190 183.0 C 190 181.659 191.659 180 193.0 180 Z" class="qr-module" id="qr-data-125" />
  <path d="M 113.0 190 L 117.0 190 C 118.341 190 120 191.659 120 193.0 L 120 197.0 C 120 198.341 118.341 200 117.0 200 L 113.0 200 C 111.659 200 110 198.341 110 197.0 L 110 193.0 C 110 191.659 111.659 190 113.0 190 Z" class="qr-module" id="qr-separator-129" title="Separator pattern module" />
  <path d="M 133.0 190 L 137.0 190 C 138.341 190 140 191.659 140 193.0 L 140 197.0 C 140 198.341 138.341 200 137.0 200 L 133.0 200 C 131.659 200 130 198.341 130 197.0 L 130 193.0 C 130 191.659 131.659 190 133.0 190 Z" class="qr-module" id="qr-data-130" />
  <path d="M 143.0 190 L 147.0 190 C 148.341 190 150 191.659 150 193.0 L 150 197.0 C 150 198.341 148.341 200 147.0 200 L 143.0 200 C 141.659 200 140 198.341 140 197.0 L 140 193.0 C 140 191.659 141.659 190 143.0 190 Z" class="qr-module" id="qr-data-131" />
  <path d="M 163.0 190 L 167.0 190 C 168.341 190 170 191.659 170 193.0 L 170 197.0 C 170 198.341 168.341 200 167.0 200 L 163.0 200 C 161.659 200 160 198.341 160 197.0 L 160 193.0 C 160 191.659 161.659 190 163.0 190 Z" class="qr-module" id="qr-data-132" />
  <path d="M 173.0 190 L 177.0 190 C 178.341 190 180 191.659 180 193.0 L 180 197.0 C 180 198.341 178.341 200 177.0 200 L 173.0 200 C 171.659 200 170 198.341 170 197.0 L 170 193.0 C 170 191.659 171.659 190 173.0 190 Z" class="qr-module" id="qr-data-133" />
  <path d="M 113.0 200 L 117.0 200 C 118.341 200 120 201.659 120 203.0 L 120 207.0 C 120 208.341 118.341 210 117.0 210 L 113.0 210 C 111.659 210 110 208.341 110 207.0 L 110 203.0 C 110 201.659 111.659 200 113.0 200 Z" class="qr-module" id="qr-separator-138" title="Separator pattern module" />
  <path d="M 133.0 200 L 137.0 200 C 138.341 200 140 201.659 140 203.0 L 140 207.0 C 140 208.341 138.341 210 137.0 210 L 133.0 210 C 131.659 210 130 208.341 130 207.0 L 130 203.0 C 130 201.659 131.659 200 133.0 200 Z" class="qr-module" id="qr-data-139" />
  <path d="M 163.0 200 L 167.0 200 C 168.341 200 170 201.659 170 203.0 L 170 207.0 C 170 208.341 168.341 210 167.0 210 L 163.0 210 C 161.659 210 160 208.341 160 207.0 L 160 203.0 C 160 201.659 161.659 200 163.0 200 Z" class="qr-module" id="qr-data-140" />
  <path d="M 203.0 200 L 207.0 200 C 208.341 200 210 201.659 210 203.0 L 210 207.0 C 210 208.341 208.341 210 207.0 210 L 203.0 210 C 201.659 210 200 208.341 200 207.0 L 200 203.0 C 200 201.659 201.659 200 203.0 200 Z" class="qr-module" id="qr-data-141" />

</g>
</g><g class="qr-layer-frame" aria-hidden="true" />
  <g class="qr-layer-overlay" style="pointer-events: none;" />
  
</g></svg>